<?xml version="1.0" encoding="utf-8"?>
<!-- Generator: Adobe Illustrator 16.0.0, SVG Export Plug-In . SVG Version: 6.00 Build 0)  -->
<!DOCTYPE svg PUBLIC "-//W3C//DTD SVG 1.1//EN" "http://www.w3.org/Graphics/SVG/1.1/DTD/svg11.dtd">
<svg version="1.1" id="Layer_1" xmlns="http://www.w3.org/2000/svg" xmlns:xlink="http://www.w3.org/1999/xlink" x="0px" y="0px"
	 width="160px" height="34px" viewBox="0 0 160 34" enable-background="new 0 0 160 34" xml:space="preserve">
<g>
	<path fill="#FFFFFF" d="M32.822,31.824c1.77,0.161,3.605-0.345,5.271-0.865c1.441-0.45,2.766-1.164,3.942-2.11
		c2.287-1.839,4.318-4.36,5.277-7.157c0.549-1.6,0.843-3.438,0.843-5.131c0-8.469-6.865-15.321-15.335-15.321h-7.474l4.54,6.256
		l3.433,0.332c4.708,0,8.525,3.817,8.525,8.525c0,1.797-0.57,3.638-1.67,5.06c-1.009,1.303-2.591,2.804-4.284,3.063
		c-0.474,0.072-0.982,0.164-1.437,0.015c-0.773-0.254-1.356-0.658-1.742-1.416c-0.245-0.483-0.435-0.99-0.683-1.476
		c-0.404-0.793-0.751-1.616-1.151-2.413c-0.502-1-0.968-2.017-1.456-3.024c-0.536-1.105-1.079-2.208-1.606-3.317
		c-0.537-1.126-1.093-2.244-1.633-3.369c-0.51-1.064-1.022-2.127-1.538-3.188c-0.441-0.907-0.872-1.818-1.313-2.725
		c-0.317-0.652-0.301-0.641-0.615-1.294c-0.147-0.308-0.301-0.612-0.446-0.921c-0.009-0.017-0.017-0.036-0.025-0.054L12.06,19.564
		c0,0,4.706,1.661,4.651,5.536l5.425-8.844c0,0,4.426,9.946,4.429,9.951c0.254,0.571,0.468,1.138,0.788,1.681
		c0.675,1.145,1.535,2.279,2.669,2.999c0.375,0.238,0.778,0.427,1.194,0.581C31.74,31.663,32.278,31.775,32.822,31.824z"/>
	<circle fill="#FFFFFF" cx="10.662" cy="25.945" r="3.695"/>
</g>
<g>
	<path fill="#FFFFFF" d="M66.661,26.336l-1.436-4.713h-7.218l-1.436,4.713h-4.524l6.989-19.882h5.133l7.015,19.882H66.661z
		 M64.223,18.102c-1.327-4.271-2.074-6.687-2.242-7.246c-0.167-0.56-0.286-1.002-0.358-1.328c-0.298,1.156-1.151,4.014-2.56,8.574
		H64.223z"/>
	<path fill="#FFFFFF" d="M81.668,26.607c-1.779,0-3.174-0.646-4.185-1.937h-0.217c0.145,1.264,0.217,1.995,0.217,2.194V33h-4.13
		V11.194h3.358l0.582,1.964h0.19c0.966-1.499,2.397-2.249,4.294-2.249c1.787,0,3.188,0.69,4.198,2.072
		c1.011,1.382,1.517,3.301,1.517,5.757c0,1.617-0.237,3.02-0.71,4.212c-0.474,1.192-1.149,2.099-2.025,2.723
		C83.88,26.296,82.851,26.607,81.668,26.607z M80.449,14.214c-1.021,0-1.765,0.313-2.235,0.941c-0.47,0.628-0.713,1.664-0.731,3.108
		v0.447c0,1.625,0.242,2.79,0.725,3.494s1.248,1.057,2.296,1.057c1.851,0,2.777-1.526,2.777-4.579c0-1.489-0.229-2.607-0.684-3.352
		C82.14,14.587,81.424,14.214,80.449,14.214z"/>
	<path fill="#FFFFFF" d="M95.7,26.607c-1.779,0-3.176-0.691-4.192-2.073c-1.016-1.381-1.524-3.295-1.524-5.743
		c0-2.483,0.517-4.417,1.551-5.803c1.034-1.386,2.458-2.079,4.273-2.079c1.905,0,3.359,0.741,4.361,2.221h0.136
		c-0.208-1.128-0.312-2.135-0.312-3.021V5.262h4.145v21.074h-3.17l-0.799-1.964h-0.176C99.054,25.862,97.623,26.607,95.7,26.607z
		 M97.149,23.316c1.056,0,1.83-0.307,2.323-0.921c0.492-0.613,0.76-1.657,0.806-3.129v-0.446c0-1.625-0.25-2.79-0.752-3.494
		c-0.501-0.704-1.316-1.057-2.444-1.057c-0.921,0-1.637,0.391-2.147,1.172c-0.51,0.781-0.765,1.917-0.765,3.406
		c0,1.489,0.257,2.607,0.772,3.352C95.456,22.943,96.192,23.316,97.149,23.316z"/>
	<path fill="#FFFFFF" d="M118.075,26.336l-0.8-2.058h-0.108c-0.695,0.876-1.41,1.483-2.147,1.822
		c-0.735,0.338-1.694,0.508-2.877,0.508c-1.454,0-2.598-0.416-3.434-1.246c-0.835-0.831-1.253-2.014-1.253-3.549
		c0-1.607,0.563-2.792,1.687-3.555c1.124-0.764,2.819-1.186,5.085-1.267l2.628-0.081v-0.664c0-1.536-0.786-2.303-2.356-2.303
		c-1.21,0-2.632,0.366-4.267,1.097l-1.368-2.791c1.743-0.911,3.675-1.368,5.797-1.368c2.032,0,3.589,0.442,4.672,1.328
		c1.084,0.885,1.625,2.23,1.625,4.036v10.09H118.075z M116.856,19.32l-1.599,0.054c-1.201,0.036-2.095,0.252-2.681,0.65
		c-0.587,0.397-0.881,1.002-0.881,1.814c0,1.165,0.668,1.748,2.004,1.748c0.957,0,1.722-0.275,2.296-0.826
		c0.573-0.551,0.86-1.283,0.86-2.194V19.32z"/>
	<path fill="#FFFFFF" d="M135.777,21.839c0,1.553-0.54,2.736-1.619,3.549c-1.079,0.813-2.693,1.219-4.842,1.219
		c-1.102,0-2.041-0.075-2.817-0.224c-0.776-0.149-1.503-0.368-2.181-0.657v-3.413c0.768,0.361,1.632,0.664,2.594,0.908
		c0.962,0.244,1.808,0.366,2.54,0.366c1.499,0,2.249-0.433,2.249-1.301c0-0.325-0.099-0.589-0.298-0.792
		c-0.198-0.203-0.542-0.433-1.029-0.691c-0.488-0.257-1.138-0.557-1.951-0.9c-1.165-0.487-2.021-0.939-2.566-1.354
		c-0.547-0.415-0.944-0.892-1.192-1.429c-0.249-0.537-0.373-1.199-0.373-1.984c0-1.345,0.521-2.386,1.564-3.122
		c1.043-0.736,2.521-1.104,4.436-1.104c1.824,0,3.598,0.398,5.322,1.192l-1.246,2.979c-0.758-0.325-1.467-0.591-2.126-0.798
		c-0.659-0.208-1.332-0.312-2.018-0.312c-1.219,0-1.828,0.33-1.828,0.988c0,0.37,0.196,0.691,0.589,0.962
		c0.394,0.271,1.253,0.672,2.581,1.206c1.183,0.479,2.049,0.925,2.6,1.341c0.551,0.416,0.957,0.894,1.219,1.436
		C135.646,20.445,135.777,21.09,135.777,21.839z"/>
	<path fill="#FFFFFF" d="M152.978,26.336h-4.131v-8.844c0-2.185-0.812-3.277-2.438-3.277c-1.156,0-1.991,0.393-2.506,1.178
		c-0.514,0.786-0.771,2.059-0.771,3.819v7.124H139V5.262h4.131v4.293c0,0.334-0.032,1.12-0.095,2.356l-0.095,1.219h0.217
		c0.921-1.48,2.383-2.221,4.388-2.221c1.779,0,3.128,0.479,4.05,1.436c0.921,0.957,1.381,2.33,1.381,4.117V26.336z"/>
</g>
</svg>
