<?xml version="1.0" encoding="utf-8"?>
<!-- Generator: Adobe Illustrator 16.0.0, SVG Export Plug-In . SVG Version: 6.00 Build 0)  -->
<!DOCTYPE svg PUBLIC "-//W3C//DTD SVG 1.1//EN" "http://www.w3.org/Graphics/SVG/1.1/DTD/svg11.dtd">
<svg version="1.1" id="Layer_1" xmlns="http://www.w3.org/2000/svg" xmlns:xlink="http://www.w3.org/1999/xlink" x="0px" y="0px"
	 width="160px" height="34px" viewBox="0 0 160 34" enable-background="new 0 0 160 34" xml:space="preserve">
<g>
	<linearGradient id="SVGID_1_" gradientUnits="userSpaceOnUse" x1="23.5034" y1="5.9219" x2="45.0295" y2="28.7933">
		<stop  offset="0" style="stop-color:#6731E4"/>
		<stop  offset="1" style="stop-color:#A322E3"/>
	</linearGradient>
	<path fill="url(#SVGID_1_)" d="M36.006,31.904c1.65,0.15,3.362-0.322,4.915-0.807c1.344-0.419,2.579-1.085,3.675-1.967
		c2.132-1.715,4.027-4.066,4.921-6.674c0.512-1.492,0.786-3.206,0.786-4.785c0-7.897-6.402-14.286-14.299-14.286h-6.969l4.233,5.833
		l3.201,0.31c4.391,0,7.95,3.559,7.95,7.95c0,1.676-0.531,3.393-1.557,4.719c-0.941,1.215-2.416,2.614-3.995,2.855
		c-0.442,0.067-0.916,0.153-1.34,0.014c-0.722-0.237-1.265-0.613-1.624-1.32c-0.229-0.45-0.406-0.923-0.637-1.375
		c-0.377-0.74-0.7-1.507-1.073-2.25c-0.468-0.933-0.902-1.881-1.357-2.82c-0.5-1.031-1.005-2.059-1.498-3.093
		c-0.5-1.05-1.019-2.092-1.522-3.142c-0.476-0.992-0.954-1.983-1.435-2.973c-0.411-0.846-0.813-1.695-1.224-2.541
		c-0.296-0.608-0.28-0.598-0.573-1.208c-0.137-0.287-0.281-0.571-0.417-0.858c-0.008-0.017-0.015-0.034-0.023-0.05l-9.499,17.035
		c0,0,4.388,1.548,4.336,5.162l5.059-8.247c0,0,4.128,9.274,4.13,9.279c0.237,0.532,0.436,1.061,0.734,1.567
		c0.629,1.067,1.432,2.125,2.489,2.796c0.35,0.222,0.726,0.398,1.113,0.542C34.997,31.753,35.499,31.858,36.006,31.904z"/>
	<linearGradient id="SVGID_2_" gradientUnits="userSpaceOnUse" x1="12.9805" y1="23.9121" x2="17.7031" y2="28.9299">
		<stop  offset="0" style="stop-color:#6731E4"/>
		<stop  offset="1" style="stop-color:#A322E3"/>
	</linearGradient>
	<circle fill="url(#SVGID_2_)" cx="15.342" cy="26.421" r="3.445"/>
</g>
<g>
	<path fill="#4511AB" d="M67.56,26.786l-1.339-4.395H59.49l-1.339,4.395h-4.218l6.517-18.54h4.787l6.542,18.54H67.56z
		 M65.287,19.107c-1.238-3.982-1.935-6.235-2.09-6.757s-0.267-0.935-0.334-1.238c-0.278,1.078-1.074,3.743-2.387,7.995H65.287z"/>
	<path fill="#4511AB" d="M81.554,27.039c-1.659,0-2.96-0.602-3.903-1.806h-0.202c0.135,1.179,0.202,1.86,0.202,2.046V33h-3.852
		V12.667h3.132l0.543,1.831h0.177c0.901-1.397,2.236-2.096,4.004-2.096c1.667,0,2.972,0.644,3.915,1.932s1.415,3.078,1.415,5.368
		c0,1.507-0.221,2.816-0.663,3.928s-1.071,1.958-1.888,2.539S82.657,27.039,81.554,27.039z M80.417,15.483
		c-0.952,0-1.646,0.292-2.084,0.877c-0.438,0.585-0.665,1.552-0.682,2.898v0.417c0,1.516,0.226,2.602,0.676,3.258
		c0.451,0.657,1.164,0.985,2.141,0.985c1.726,0,2.589-1.423,2.589-4.269c0-1.389-0.213-2.431-0.638-3.125
		C81.994,15.83,81.326,15.483,80.417,15.483z"/>
	<path fill="#4511AB" d="M94.638,27.039c-1.659,0-2.962-0.645-3.909-1.933s-1.421-3.073-1.421-5.355
		c0-2.315,0.482-4.119,1.446-5.412c0.964-1.292,2.292-1.938,3.984-1.938c1.776,0,3.132,0.69,4.067,2.071h0.126
		c-0.194-1.052-0.291-1.991-0.291-2.816V7.135h3.865v19.651h-2.956l-0.745-1.831h-0.164C97.766,26.344,96.431,27.039,94.638,27.039z
		 M95.989,23.97c0.985,0,1.707-0.286,2.166-0.859c0.459-0.572,0.709-1.545,0.751-2.917v-0.417c0-1.516-0.233-2.602-0.701-3.258
		c-0.467-0.657-1.227-0.985-2.279-0.985c-0.859,0-1.526,0.364-2.002,1.093c-0.476,0.728-0.713,1.787-0.713,3.176
		s0.24,2.431,0.72,3.125C94.411,23.623,95.097,23.97,95.989,23.97z"/>
	<path fill="#4511AB" d="M115.502,26.786l-0.745-1.919h-0.101c-0.648,0.817-1.315,1.383-2.002,1.699
		c-0.686,0.315-1.581,0.474-2.684,0.474c-1.356,0-2.423-0.387-3.202-1.162C105.99,25.103,105.6,24,105.6,22.568
		c0-1.499,0.524-2.604,1.573-3.315s2.629-1.105,4.742-1.181l2.45-0.076v-0.619c0-1.431-0.732-2.147-2.197-2.147
		c-1.128,0-2.455,0.341-3.979,1.023l-1.275-2.602c1.625-0.85,3.427-1.275,5.405-1.275c1.895,0,3.347,0.413,4.357,1.238
		c1.011,0.825,1.516,2.08,1.516,3.763v9.409H115.502z M114.365,20.244l-1.49,0.05c-1.12,0.034-1.954,0.236-2.5,0.606
		c-0.547,0.371-0.821,0.935-0.821,1.692c0,1.086,0.623,1.629,1.869,1.629c0.893,0,1.606-0.257,2.141-0.771
		c0.535-0.514,0.802-1.196,0.802-2.046V20.244z"/>
	<path fill="#4511AB" d="M132.009,22.593c0,1.448-0.503,2.551-1.509,3.309c-1.006,0.758-2.511,1.137-4.515,1.137
		c-1.027,0-1.903-0.07-2.627-0.208c-0.724-0.139-1.402-0.343-2.033-0.613v-3.183c0.715,0.337,1.522,0.619,2.418,0.846
		c0.897,0.228,1.686,0.341,2.368,0.341c1.397,0,2.097-0.404,2.097-1.213c0-0.303-0.093-0.549-0.278-0.739
		c-0.185-0.189-0.505-0.404-0.959-0.644c-0.455-0.24-1.061-0.52-1.819-0.84c-1.086-0.455-1.884-0.875-2.393-1.263
		c-0.51-0.387-0.88-0.832-1.111-1.333c-0.232-0.501-0.348-1.118-0.348-1.851c0-1.254,0.486-2.225,1.459-2.911
		c0.972-0.687,2.351-1.029,4.136-1.029c1.701,0,3.355,0.371,4.963,1.111l-1.162,2.778c-0.707-0.303-1.368-0.551-1.983-0.745
		c-0.615-0.193-1.242-0.291-1.882-0.291c-1.137,0-1.705,0.308-1.705,0.922c0,0.345,0.184,0.644,0.55,0.897
		c0.366,0.252,1.168,0.627,2.406,1.124c1.103,0.446,1.911,0.863,2.425,1.25c0.514,0.388,0.893,0.834,1.137,1.339
		C131.887,21.292,132.009,21.895,132.009,22.593z"/>
	<path fill="#4511AB" d="M148.048,26.786h-3.852v-8.247c0-2.038-0.757-3.056-2.273-3.056c-1.078,0-1.857,0.366-2.337,1.099
		c-0.479,0.732-0.72,1.92-0.72,3.562v6.643h-3.852V7.135h3.852v4.003c0,0.312-0.029,1.044-0.088,2.197l-0.088,1.137h0.202
		c0.859-1.38,2.223-2.071,4.092-2.071c1.659,0,2.917,0.446,3.776,1.338c0.859,0.893,1.288,2.172,1.288,3.839V26.786z"/>
</g>
</svg>
