<?xml version="1.0" standalone="no"?>
<!DOCTYPE svg PUBLIC "-//W3C//DTD SVG 20010904//EN"
 "http://www.w3.org/TR/2001/REC-SVG-20010904/DTD/svg10.dtd">
<svg version="1.0" xmlns="http://www.w3.org/2000/svg"
 width="894.000000pt" height="190.000000pt" viewBox="0 0 894.000000 190.000000"
 preserveAspectRatio="xMidYMid meet">

<g transform="translate(0.000000,190.000000) scale(0.100000,-0.100000)"
fill="#000000" stroke="none">
<path d="M380 1865 c0 -2 22 -52 49 -110 l50 -105 167 2 168 3 47 95 c26 52
48 101 48 108 1 9 -58 12 -264 12 -146 0 -265 -2 -265 -5z"/>
<path d="M445 1565 c-18 -17 -25 -35 -25 -61 0 -40 -6 -40 90 -5 75 28 195 28
270 0 80 -30 94 -29 98 4 2 20 -5 35 -27 57 l-29 30 -177 0 c-173 0 -176 0
-200 -25z"/>
<path d="M1731 1529 c-162 -28 -264 -148 -265 -309 -2 -161 90 -259 316 -338
117 -41 160 -65 193 -104 23 -27 26 -39 22 -75 -5 -51 -18 -68 -71 -96 -58
-30 -194 -30 -251 0 -81 43 -124 102 -147 202 -6 28 -14 51 -18 51 -4 0 -16
-10 -28 -23 -52 -55 -69 -196 -33 -280 82 -191 365 -266 588 -157 207 102 253
391 85 542 -58 52 -111 81 -259 138 -104 40 -139 59 -163 86 -74 85 -6 184
126 184 60 0 100 -18 163 -74 28 -25 58 -46 65 -46 20 0 68 57 90 107 25 57
16 84 -41 122 -92 61 -252 92 -372 70z"/>
<path d="M2745 1524 c-105 -55 -232 -195 -306 -337 -86 -165 -119 -312 -119
-528 0 -153 11 -225 41 -264 20 -24 24 -25 145 -25 68 0 124 2 124 4 0 2 -19
43 -42 92 -35 74 -42 100 -43 151 0 77 20 107 97 146 98 50 281 53 323 7 37
-40 9 -182 -62 -324 -37 -73 -33 -76 105 -76 135 0 141 3 163 80 17 60 17 381
0 480 -44 260 -159 470 -317 578 -44 30 -75 35 -109 16z m102 -268 c34 -39 78
-131 98 -203 10 -38 -26 -63 -91 -63 -31 0 -103 -8 -160 -17 -126 -20 -134
-17 -116 55 28 102 159 272 211 272 10 0 37 -20 58 -44z"/>
<path d="M5783 1522 c-218 -78 -394 -471 -362 -809 17 -171 98 -290 233 -340
54 -20 290 -29 371 -14 77 14 158 56 197 100 117 133 137 389 51 656 -99 308
-300 475 -490 407z m163 -246 c85 -73 142 -226 151 -403 5 -92 3 -121 -11
-158 -33 -86 -102 -120 -232 -114 -107 5 -150 28 -188 100 -27 52 -28 57 -23
164 9 176 60 318 143 401 57 58 101 60 160 10z"/>
<path d="M7645 1524 c-105 -55 -232 -195 -306 -337 -86 -165 -119 -312 -119
-528 0 -153 11 -225 41 -264 20 -24 24 -25 145 -25 68 0 124 2 124 4 0 2 -19
43 -42 92 -35 74 -42 100 -43 151 0 77 20 107 97 146 98 50 281 53 323 7 37
-40 9 -182 -62 -324 -37 -73 -33 -76 105 -76 135 0 141 3 163 80 17 60 17 381
0 480 -44 260 -159 470 -317 578 -44 30 -75 35 -109 16z m102 -268 c34 -39 78
-131 98 -203 10 -38 -26 -63 -91 -63 -31 0 -103 -8 -160 -17 -126 -20 -134
-17 -116 55 28 102 159 272 211 272 10 0 37 -20 58 -44z"/>
<path d="M3354 1488 c-32 -61 -44 -194 -50 -523 -6 -326 3 -510 29 -563 12
-26 15 -27 110 -30 114 -3 107 -19 77 163 -35 206 -44 595 -15 623 12 12 83
-77 135 -169 90 -159 161 -332 204 -497 14 -52 30 -100 37 -108 9 -11 35 -14
113 -12 97 3 101 4 113 29 45 93 43 856 -2 1033 -22 86 -23 87 -129 84 -107
-3 -100 17 -62 -183 30 -154 48 -425 28 -425 -6 0 -30 35 -53 78 -147 267
-276 461 -339 507 -29 21 -45 25 -107 25 -72 0 -73 0 -89 -32z"/>
<path d="M4260 1506 c-18 -23 -33 -217 -27 -366 11 -266 88 -514 223 -717 37
-55 62 -83 74 -83 24 0 59 51 140 201 34 63 73 125 86 139 l25 25 17 -23 c10
-12 44 -71 76 -130 89 -162 123 -212 145 -212 46 0 206 291 266 485 59 193 70
261 70 460 0 236 1 235 -125 235 -49 0 -92 -5 -95 -10 -3 -6 1 -46 10 -90 48
-235 32 -438 -49 -615 -41 -88 -59 -105 -86 -80 -23 20 -62 138 -82 242 -12
61 -15 361 -6 503 l3 45 -114 3 -114 3 7 -48 c15 -109 18 -313 7 -394 -27
-191 -99 -369 -148 -369 -22 0 -70 116 -89 216 -25 126 -25 413 -1 503 10 35
16 70 13 77 -8 21 -209 20 -226 0z"/>
<path d="M6484 1489 c-32 -62 -44 -194 -50 -524 -6 -326 3 -510 29 -563 12
-27 13 -27 141 -30 l129 -3 -6 28 c-4 15 -13 62 -22 103 -9 41 -17 105 -18
142 -2 64 0 68 33 103 19 20 69 57 110 82 160 98 227 145 279 194 158 153 145
386 -27 471 -45 22 -58 23 -314 26 l-267 4 -17 -33z m445 -157 c20 -10 43 -33
54 -55 19 -36 19 -40 2 -82 -32 -86 -233 -243 -298 -233 -32 5 -42 61 -29 172
19 172 55 216 172 215 40 0 78 -6 99 -17z"/>
<path d="M8114 1506 c-17 -13 -19 -26 -18 -109 2 -158 67 -312 196 -470 40
-49 83 -101 95 -115 20 -25 20 -30 8 -62 -62 -162 -75 -212 -77 -279 -2 -101
0 -102 141 -99 l116 3 1 105 c2 173 45 289 178 483 127 184 174 304 179 451 3
102 -5 108 -128 104 l-90 -3 4 -92 c2 -67 -1 -105 -14 -145 -26 -81 -84 -185
-130 -236 l-42 -46 -27 18 c-38 25 -102 128 -128 205 -16 50 -22 92 -22 174
-1 84 -4 110 -16 117 -25 16 -203 12 -226 -4z"/>
<path d="M493 1441 c-92 -34 -154 -74 -218 -143 -75 -82 -127 -176 -154 -283
-27 -110 -32 -185 -23 -355 11 -206 -3 -288 -64 -382 l-18 -26 89 -104 c49
-56 92 -107 96 -112 4 -4 23 3 41 18 98 74 252 110 443 103 174 -6 288 -39
367 -105 l31 -26 25 30 c13 16 49 57 80 92 30 35 64 74 75 88 l19 25 -21 23
c-12 13 -32 47 -44 77 -21 51 -22 70 -22 319 -1 222 -4 275 -19 329 -32 115
-82 207 -158 287 -116 122 -213 164 -377 164 -68 -1 -111 -6 -148 -19z m393
-414 c9 -5 8 -22 -3 -66 l-15 -60 -77 2 c-70 2 -76 0 -79 -19 -3 -19 3 -22 46
-28 96 -13 132 -70 111 -176 -14 -74 -42 -119 -89 -143 -29 -15 -54 -18 -137
-15 -56 2 -107 8 -113 14 -8 8 -6 29 6 73 14 49 21 60 33 55 9 -3 47 -9 85
-12 52 -4 70 -2 77 9 18 28 8 37 -48 44 -81 10 -113 43 -113 117 0 101 41 188
100 212 20 8 202 2 216 -7z m-286 -11 c-13 -13 -29 -13 -110 -1 l-95 13 110 1
c95 1 107 -1 95 -13z m-40 -76 c0 -18 -5 -20 -32 -16 -18 3 -69 10 -112 16
-44 6 -82 12 -84 15 -3 3 47 5 111 5 111 0 117 -1 117 -20z m-15 -70 c14 -23
-10 -26 -107 -13 -146 18 -148 21 -16 22 68 1 119 -3 123 -9z m3 -89 c4 -11
-8 -12 -64 -6 -137 14 -156 23 -45 22 78 -2 106 -5 109 -16z m47 -77 c18 -13
15 -14 -40 -8 -33 3 -85 10 -115 14 -50 7 -47 8 40 8 70 1 100 -3 115 -14z
m-75 -73 c0 -18 -14 -19 -95 -6 l-80 13 88 1 c48 0 87 -3 87 -8z m-20 -74 c0
-23 -8 -24 -92 -11 -115 19 -116 22 -5 23 74 1 97 -2 97 -12z m-270 -102 c0
-9 -9 -15 -22 -16 l-23 0 23 -16 c29 -20 28 -51 -2 -64 -31 -14 -76 -4 -76 17
0 10 6 14 14 11 23 -9 27 5 6 20 -40 28 -14 62 48 63 22 0 32 -5 32 -15z m548
-23 c39 -50 -37 -111 -82 -66 -23 22 -20 60 6 78 25 18 56 13 76 -12z m-421
-26 l10 -44 -59 0 c-50 0 -58 2 -54 17 3 9 8 28 12 44 5 23 11 27 43 27 36 0
38 -2 48 -44z m81 32 c9 -9 12 -9 12 0 0 7 9 12 20 12 17 0 20 -7 20 -45 0
-37 -3 -45 -18 -45 -10 0 -23 5 -30 12 -9 9 -12 9 -12 0 0 -7 -9 -12 -20 -12
-17 0 -20 7 -20 45 0 37 3 45 18 45 10 0 23 -5 30 -12z m112 -3 c0 -8 5 -15
10 -15 6 0 10 7 10 15 0 18 36 20 44 3 5 -10 7 -10 12 0 3 6 12 12 21 12 11 0
13 -7 8 -32 -9 -39 -23 -68 -33 -68 -12 0 -29 15 -35 30 -4 12 -6 12 -6 -1 -1
-20 -30 -34 -43 -21 -12 12 -27 79 -20 86 11 12 32 6 32 -9z m358 -18 c2 -19
-2 -29 -15 -33 -10 -3 -26 -10 -35 -15 -37 -19 -48 -11 -48 37 l0 45 48 -3
c43 -3 47 -5 50 -31z m122 7 c21 -53 15 -61 -45 -62 -48 0 -55 2 -51 16 3 9 8
29 12 45 5 23 11 27 40 27 28 0 36 -5 44 -26z m79 9 c9 -17 10 -17 16 0 7 17
30 23 39 9 2 -4 -5 -29 -16 -55 -14 -32 -27 -47 -39 -47 -13 0 -19 7 -19 21 0
11 -5 29 -11 40 -20 38 9 68 30 32z"/>
<path d="M727 411 c-2 -10 -1 -25 4 -32 6 -10 9 -4 9 19 0 36 -5 42 -13 13z"/>
<path d="M311 404 c0 -11 3 -14 6 -6 3 7 2 16 -1 19 -3 4 -6 -2 -5 -13z"/>
<path d="M856 415 c-3 -8 -1 -15 4 -15 6 0 10 7 10 15 0 8 -2 15 -4 15 -2 0
-6 -7 -10 -15z"/>
<path d="M991 404 c0 -11 3 -14 6 -6 3 7 2 16 -1 19 -3 4 -6 -2 -5 -13z"/>
</g>
</svg>
