<svg width="431" height="864" viewBox="0 0 431 864" fill="none" xmlns="http://www.w3.org/2000/svg">
<g clip-path="url(#clip0)">
<rect width="375" height="812" transform="translate(27 26)" fill="#FCFCFC"/>
<path opacity="0.35" d="M363.5 46C363.5 44.8034 364.47 43.8334 365.667 43.8334H382.333C383.53 43.8334 384.5 44.8034 384.5 46V52C384.5 53.1967 383.53 54.1667 382.333 54.1667H365.667C364.47 54.1667 363.5 53.1967 363.5 52V46Z" stroke="#14142B"/>
<path opacity="0.4" d="M386 47V51C386.805 50.6612 387.328 49.8731 387.328 49C387.328 48.1269 386.805 47.3388 386 47Z" fill="#14142B"/>
<path d="M365 46.6667C365 45.9303 365.597 45.3334 366.333 45.3334H381.667C382.403 45.3334 383 45.9303 383 46.6667V51.3334C383 52.0698 382.403 52.6667 381.667 52.6667H366.333C365.597 52.6667 365 52.0698 365 51.3334V46.6667Z" fill="#14142B"/>
<path fill-rule="evenodd" clip-rule="evenodd" d="M350.33 45.608C352.546 45.6081 354.678 46.4596 356.283 47.9863C356.404 48.1042 356.598 48.1027 356.717 47.983L357.873 46.8163C357.933 46.7556 357.967 46.6734 357.966 46.5878C357.966 46.5022 357.931 46.4204 357.87 46.3603C353.655 42.3208 347.005 42.3208 342.79 46.3603C342.729 46.4203 342.694 46.5021 342.694 46.5877C342.693 46.6733 342.727 46.7556 342.787 46.8163L343.943 47.983C344.062 48.1029 344.256 48.1044 344.377 47.9863C345.983 46.4595 348.114 45.608 350.33 45.608ZM350.33 49.4037C351.548 49.4036 352.722 49.8561 353.624 50.6733C353.747 50.7893 353.939 50.7868 354.058 50.6677L355.212 49.501C355.273 49.4398 355.307 49.3568 355.306 49.2705C355.305 49.1843 355.27 49.102 355.208 49.042C352.46 46.4856 348.204 46.4856 345.455 49.042C345.393 49.102 345.358 49.1843 345.357 49.2706C345.356 49.3569 345.39 49.4399 345.451 49.501L346.605 50.6677C346.724 50.7868 346.917 50.7893 347.039 50.6733C347.941 49.8567 349.114 49.4042 350.33 49.4037ZM352.643 51.9575C352.645 52.044 352.611 52.1274 352.549 52.188L350.552 54.2037C350.494 54.2629 350.414 54.2963 350.33 54.2963C350.247 54.2963 350.167 54.2629 350.109 54.2037L348.111 52.188C348.049 52.1274 348.015 52.0439 348.017 51.9574C348.019 51.8709 348.057 51.789 348.121 51.731C349.396 50.6521 351.265 50.6521 352.54 51.731C352.604 51.7891 352.642 51.871 352.643 51.9575Z" fill="#14142B"/>
<path fill-rule="evenodd" clip-rule="evenodd" d="M336.667 43.6666H335.667C335.114 43.6666 334.667 44.1143 334.667 44.6666V53.3333C334.667 53.8856 335.114 54.3333 335.667 54.3333H336.667C337.219 54.3333 337.667 53.8856 337.667 53.3333V44.6666C337.667 44.1143 337.219 43.6666 336.667 43.6666ZM331 46H332C332.552 46 333 46.4477 333 47V53.3333C333 53.8856 332.552 54.3333 332 54.3333H331C330.448 54.3333 330 53.8856 330 53.3333V47C330 46.4477 330.448 46 331 46ZM327.333 48.3333H326.333C325.781 48.3333 325.333 48.781 325.333 49.3333V53.3333C325.333 53.8856 325.781 54.3333 326.333 54.3333H327.333C327.886 54.3333 328.333 53.8856 328.333 53.3333V49.3333C328.333 48.781 327.886 48.3333 327.333 48.3333ZM322.667 50.3333H321.667C321.114 50.3333 320.667 50.781 320.667 51.3333V53.3333C320.667 53.8856 321.114 54.3333 321.667 54.3333H322.667C323.219 54.3333 323.667 53.8856 323.667 53.3333V51.3333C323.667 50.781 323.219 50.3333 322.667 50.3333Z" fill="#14142B"/>
<path d="M65.5104 43.35C66.9504 43.35 68.0654 43.8 68.8554 44.7C69.6554 45.6 70.0554 46.89 70.0554 48.57C70.0554 49.75 69.8404 50.76 69.4104 51.6C68.9804 52.43 68.3754 53.065 67.5955 53.505C66.8254 53.935 65.9304 54.15 64.9104 54.15C64.3704 54.15 63.8604 54.095 63.3804 53.985C62.9104 53.865 62.5004 53.695 62.1504 53.475L62.8704 52.005C63.3904 52.345 64.0554 52.515 64.8654 52.515C65.8754 52.515 66.6654 52.205 67.2354 51.585C67.8054 50.965 68.0904 50.07 68.0904 48.9V48.885C67.7805 49.245 67.3855 49.52 66.9054 49.71C66.4254 49.89 65.8854 49.98 65.2854 49.98C64.5954 49.98 63.9754 49.85 63.4254 49.59C62.8754 49.32 62.4454 48.94 62.1354 48.45C61.8254 47.96 61.6704 47.395 61.6704 46.755C61.6704 46.075 61.8404 45.48 62.1804 44.97C62.5204 44.45 62.9804 44.05 63.5604 43.77C64.1404 43.49 64.7904 43.35 65.5104 43.35ZM65.6604 48.45C66.2904 48.45 66.8004 48.28 67.1904 47.94C67.5904 47.6 67.7904 47.17 67.7904 46.65C67.7904 46.14 67.5954 45.72 67.2054 45.39C66.8254 45.05 66.2954 44.88 65.6154 44.88C65.0054 44.88 64.5104 45.045 64.1304 45.375C63.7504 45.695 63.5604 46.125 63.5604 46.665C63.5604 47.215 63.7504 47.65 64.1304 47.97C64.5104 48.29 65.0204 48.45 65.6604 48.45ZM72.2447 48.39C71.9047 48.39 71.6147 48.275 71.3747 48.045C71.1347 47.805 71.0147 47.505 71.0147 47.145C71.0147 46.775 71.1297 46.475 71.3597 46.245C71.5997 46.015 71.8947 45.9 72.2447 45.9C72.5947 45.9 72.8847 46.015 73.1147 46.245C73.3547 46.475 73.4747 46.775 73.4747 47.145C73.4747 47.505 73.3547 47.805 73.1147 48.045C72.8747 48.275 72.5847 48.39 72.2447 48.39ZM72.2447 54.105C71.9047 54.105 71.6147 53.99 71.3747 53.76C71.1347 53.52 71.0147 53.22 71.0147 52.86C71.0147 52.49 71.1297 52.19 71.3597 51.96C71.5997 51.73 71.8947 51.615 72.2447 51.615C72.5947 51.615 72.8847 51.73 73.1147 51.96C73.3547 52.19 73.4747 52.49 73.4747 52.86C73.4747 53.22 73.3547 53.52 73.1147 53.76C72.8747 53.99 72.5847 54.105 72.2447 54.105ZM83.7969 51.615H81.9369V54H80.0469V51.615H74.2869V50.265L79.4619 43.5H81.5469L76.6719 49.965H80.1069V47.85H81.9369V49.965H83.7969V51.615ZM87.5667 43.5V54H85.6167V45.135H83.3967V43.5H87.5667Z" fill="#14142B"/>
<path d="M60.7173 115L54.0002 122L60.7173 129" stroke="#14142B" stroke-width="2" stroke-linecap="round" stroke-linejoin="round"/>
<line x1="1" y1="-1" x2="16.7331" y2="-1" transform="matrix(1 0 0 -1 54.2671 121.032)" stroke="#14142B" stroke-width="2" stroke-linecap="round"/>
<path opacity="0.8" d="M57.5789 173.14C56.6056 173.14 55.7256 172.973 54.9389 172.64C54.1656 172.307 53.5522 171.827 53.0989 171.2C52.6456 170.573 52.4122 169.833 52.3989 168.98H55.3989C55.4389 169.553 55.6389 170.007 55.9989 170.34C56.3722 170.673 56.8789 170.84 57.5189 170.84C58.1722 170.84 58.6856 170.687 59.0589 170.38C59.4322 170.06 59.6189 169.647 59.6189 169.14C59.6189 168.727 59.4922 168.387 59.2389 168.12C58.9856 167.853 58.6656 167.647 58.2789 167.5C57.9056 167.34 57.3856 167.167 56.7189 166.98C55.8122 166.713 55.0722 166.453 54.4989 166.2C53.9389 165.933 53.4522 165.54 53.0389 165.02C52.6389 164.487 52.4389 163.78 52.4389 162.9C52.4389 162.073 52.6456 161.353 53.0589 160.74C53.4722 160.127 54.0522 159.66 54.7989 159.34C55.5456 159.007 56.3989 158.84 57.3589 158.84C58.7989 158.84 59.9656 159.193 60.8589 159.9C61.7656 160.593 62.2656 161.567 62.3589 162.82H59.2789C59.2522 162.34 59.0456 161.947 58.6589 161.64C58.2856 161.32 57.7856 161.16 57.1589 161.16C56.6122 161.16 56.1722 161.3 55.8389 161.58C55.5189 161.86 55.3589 162.267 55.3589 162.8C55.3589 163.173 55.4789 163.487 55.7189 163.74C55.9722 163.98 56.2789 164.18 56.6389 164.34C57.0122 164.487 57.5322 164.66 58.1989 164.86C59.1056 165.127 59.8456 165.393 60.4189 165.66C60.9922 165.927 61.4856 166.327 61.8989 166.86C62.3122 167.393 62.5189 168.093 62.5189 168.96C62.5189 169.707 62.3256 170.4 61.9389 171.04C61.5522 171.68 60.9856 172.193 60.2389 172.58C59.4922 172.953 58.6056 173.14 57.5789 173.14ZM75.9964 167.22C75.9964 167.62 75.9697 167.98 75.9164 168.3H67.8164C67.8831 169.1 68.1631 169.727 68.6564 170.18C69.1497 170.633 69.7564 170.86 70.4764 170.86C71.5164 170.86 72.2564 170.413 72.6964 169.52H75.7164C75.3964 170.587 74.7831 171.467 73.8764 172.16C72.9697 172.84 71.8564 173.18 70.5364 173.18C69.4697 173.18 68.5097 172.947 67.6564 172.48C66.8164 172 66.1564 171.327 65.6764 170.46C65.2097 169.593 64.9764 168.593 64.9764 167.46C64.9764 166.313 65.2097 165.307 65.6764 164.44C66.1431 163.573 66.7964 162.907 67.6364 162.44C68.4764 161.973 69.4431 161.74 70.5364 161.74C71.5897 161.74 72.5297 161.967 73.3564 162.42C74.1964 162.873 74.8431 163.52 75.2964 164.36C75.7631 165.187 75.9964 166.14 75.9964 167.22ZM73.0964 166.42C73.0831 165.7 72.8231 165.127 72.3164 164.7C71.8097 164.26 71.1897 164.04 70.4564 164.04C69.7631 164.04 69.1764 164.253 68.6964 164.68C68.2297 165.093 67.9431 165.673 67.8364 166.42H73.0964ZM84.9302 161.76C86.2502 161.76 87.3168 162.18 88.1302 163.02C88.9435 163.847 89.3502 165.007 89.3502 166.5V173H86.5502V166.88C86.5502 166 86.3302 165.327 85.8902 164.86C85.4502 164.38 84.8502 164.14 84.0902 164.14C83.3168 164.14 82.7035 164.38 82.2502 164.86C81.8102 165.327 81.5902 166 81.5902 166.88V173H78.7902V161.92H81.5902V163.3C81.9635 162.82 82.4368 162.447 83.0102 162.18C83.5968 161.9 84.2368 161.76 84.9302 161.76ZM92.0428 167.42C92.0428 166.3 92.2628 165.307 92.7028 164.44C93.1561 163.573 93.7695 162.907 94.5428 162.44C95.3161 161.973 96.1761 161.74 97.1228 161.74C97.8428 161.74 98.5295 161.9 99.1828 162.22C99.8361 162.527 100.356 162.94 100.743 163.46V158.2H103.583V173H100.743V171.36C100.396 171.907 99.9095 172.347 99.2828 172.68C98.6561 173.013 97.9295 173.18 97.1028 173.18C96.1695 173.18 95.3161 172.94 94.5428 172.46C93.7695 171.98 93.1561 171.307 92.7028 170.44C92.2628 169.56 92.0428 168.553 92.0428 167.42ZM100.763 167.46C100.763 166.78 100.629 166.2 100.363 165.72C100.096 165.227 99.7361 164.853 99.2828 164.6C98.8295 164.333 98.3428 164.2 97.8228 164.2C97.3028 164.2 96.8228 164.327 96.3828 164.58C95.9428 164.833 95.5828 165.207 95.3028 165.7C95.0361 166.18 94.9028 166.753 94.9028 167.42C94.9028 168.087 95.0361 168.673 95.3028 169.18C95.5828 169.673 95.9428 170.053 96.3828 170.32C96.8361 170.587 97.3161 170.72 97.8228 170.72C98.3428 170.72 98.8295 170.593 99.2828 170.34C99.7361 170.073 100.096 169.7 100.363 169.22C100.629 168.727 100.763 168.14 100.763 167.46ZM127.803 159.04V173H125.003V163.92L121.263 173H119.143L115.383 163.92V173H112.583V159.04H115.763L120.203 169.42L124.643 159.04H127.803ZM136.241 173.18C135.175 173.18 134.215 172.947 133.361 172.48C132.508 172 131.835 171.327 131.341 170.46C130.861 169.593 130.621 168.593 130.621 167.46C130.621 166.327 130.868 165.327 131.361 164.46C131.868 163.593 132.555 162.927 133.421 162.46C134.288 161.98 135.255 161.74 136.321 161.74C137.388 161.74 138.355 161.98 139.221 162.46C140.088 162.927 140.768 163.593 141.261 164.46C141.768 165.327 142.021 166.327 142.021 167.46C142.021 168.593 141.761 169.593 141.241 170.46C140.735 171.327 140.041 172 139.161 172.48C138.295 172.947 137.321 173.18 136.241 173.18ZM136.241 170.74C136.748 170.74 137.221 170.62 137.661 170.38C138.115 170.127 138.475 169.753 138.741 169.26C139.008 168.767 139.141 168.167 139.141 167.46C139.141 166.407 138.861 165.6 138.301 165.04C137.755 164.467 137.081 164.18 136.281 164.18C135.481 164.18 134.808 164.467 134.261 165.04C133.728 165.6 133.461 166.407 133.461 167.46C133.461 168.513 133.721 169.327 134.241 169.9C134.775 170.46 135.441 170.74 136.241 170.74ZM150.965 161.76C152.285 161.76 153.352 162.18 154.165 163.02C154.979 163.847 155.385 165.007 155.385 166.5V173H152.585V166.88C152.585 166 152.365 165.327 151.925 164.86C151.485 164.38 150.885 164.14 150.125 164.14C149.352 164.14 148.739 164.38 148.285 164.86C147.845 165.327 147.625 166 147.625 166.88V173H144.825V161.92H147.625V163.3C147.999 162.82 148.472 162.447 149.045 162.18C149.632 161.9 150.272 161.76 150.965 161.76ZM169.098 167.22C169.098 167.62 169.071 167.98 169.018 168.3H160.918C160.985 169.1 161.265 169.727 161.758 170.18C162.251 170.633 162.858 170.86 163.578 170.86C164.618 170.86 165.358 170.413 165.798 169.52H168.818C168.498 170.587 167.885 171.467 166.978 172.16C166.071 172.84 164.958 173.18 163.638 173.18C162.571 173.18 161.611 172.947 160.758 172.48C159.918 172 159.258 171.327 158.778 170.46C158.311 169.593 158.078 168.593 158.078 167.46C158.078 166.313 158.311 165.307 158.778 164.44C159.245 163.573 159.898 162.907 160.738 162.44C161.578 161.973 162.545 161.74 163.638 161.74C164.691 161.74 165.631 161.967 166.458 162.42C167.298 162.873 167.945 163.52 168.398 164.36C168.865 165.187 169.098 166.14 169.098 167.22ZM166.198 166.42C166.185 165.7 165.925 165.127 165.418 164.7C164.911 164.26 164.291 164.04 163.558 164.04C162.865 164.04 162.278 164.253 161.798 164.68C161.331 165.093 161.045 165.673 160.938 166.42H166.198ZM182.492 161.92L175.632 178.24H172.652L175.052 172.72L170.612 161.92H173.752L176.612 169.66L179.512 161.92H182.492Z" fill="#14142B"/>
<g filter="url(#filter0_d)">
<rect x="51" y="206" width="327" height="56" rx="5" fill="white"/>
<path opacity="0.8" d="M115.096 228.848V230.032H112.056V240H110.6V230.032H107.544V228.848H115.096ZM121.462 240.144C120.641 240.144 119.894 239.957 119.222 239.584C118.561 239.211 118.038 238.683 117.654 238C117.281 237.307 117.094 236.507 117.094 235.6C117.094 234.704 117.286 233.915 117.67 233.232C118.065 232.539 118.598 232.011 119.27 231.648C119.942 231.275 120.694 231.088 121.526 231.088C122.358 231.088 123.11 231.275 123.782 231.648C124.454 232.011 124.982 232.533 125.366 233.216C125.761 233.899 125.958 234.693 125.958 235.6C125.958 236.507 125.756 237.307 125.35 238C124.956 238.683 124.417 239.211 123.734 239.584C123.052 239.957 122.294 240.144 121.462 240.144ZM121.462 238.864C121.985 238.864 122.476 238.741 122.934 238.496C123.393 238.251 123.761 237.883 124.038 237.392C124.326 236.901 124.47 236.304 124.47 235.6C124.47 234.896 124.332 234.299 124.054 233.808C123.777 233.317 123.414 232.955 122.966 232.72C122.518 232.475 122.033 232.352 121.51 232.352C120.977 232.352 120.486 232.475 120.038 232.72C119.601 232.955 119.249 233.317 118.982 233.808C118.716 234.299 118.582 234.896 118.582 235.6C118.582 236.315 118.71 236.917 118.966 237.408C119.233 237.899 119.585 238.267 120.022 238.512C120.46 238.747 120.94 238.864 121.462 238.864ZM137.174 240.112C136.438 240.112 135.777 239.984 135.19 239.728C134.614 239.461 134.161 239.099 133.83 238.64C133.5 238.171 133.329 237.632 133.318 237.024H134.87C134.924 237.547 135.137 237.989 135.51 238.352C135.894 238.704 136.449 238.88 137.174 238.88C137.868 238.88 138.412 238.709 138.806 238.368C139.212 238.016 139.414 237.568 139.414 237.024C139.414 236.597 139.297 236.251 139.062 235.984C138.828 235.717 138.534 235.515 138.182 235.376C137.83 235.237 137.356 235.088 136.758 234.928C136.022 234.736 135.43 234.544 134.982 234.352C134.545 234.16 134.166 233.861 133.846 233.456C133.537 233.04 133.382 232.485 133.382 231.792C133.382 231.184 133.537 230.645 133.846 230.176C134.156 229.707 134.588 229.344 135.142 229.088C135.708 228.832 136.353 228.704 137.078 228.704C138.124 228.704 138.977 228.965 139.638 229.488C140.31 230.011 140.689 230.704 140.774 231.568H139.174C139.121 231.141 138.897 230.768 138.502 230.448C138.108 230.117 137.585 229.952 136.934 229.952C136.326 229.952 135.83 230.112 135.446 230.432C135.062 230.741 134.87 231.179 134.87 231.744C134.87 232.149 134.982 232.48 135.206 232.736C135.441 232.992 135.724 233.189 136.054 233.328C136.396 233.456 136.87 233.605 137.478 233.776C138.214 233.979 138.806 234.181 139.254 234.384C139.702 234.576 140.086 234.88 140.406 235.296C140.726 235.701 140.886 236.256 140.886 236.96C140.886 237.504 140.742 238.016 140.454 238.496C140.166 238.976 139.74 239.365 139.174 239.664C138.609 239.963 137.942 240.112 137.174 240.112ZM143.235 235.584C143.235 234.688 143.416 233.904 143.779 233.232C144.142 232.549 144.638 232.021 145.267 231.648C145.907 231.275 146.616 231.088 147.395 231.088C148.163 231.088 148.83 231.253 149.395 231.584C149.96 231.915 150.382 232.331 150.659 232.832V231.232H152.131V240H150.659V238.368C150.371 238.88 149.939 239.307 149.363 239.648C148.798 239.979 148.136 240.144 147.379 240.144C146.6 240.144 145.896 239.952 145.267 239.568C144.638 239.184 144.142 238.645 143.779 237.952C143.416 237.259 143.235 236.469 143.235 235.584ZM150.659 235.6C150.659 234.939 150.526 234.363 150.259 233.872C149.992 233.381 149.63 233.008 149.171 232.752C148.723 232.485 148.227 232.352 147.683 232.352C147.139 232.352 146.643 232.48 146.195 232.736C145.747 232.992 145.39 233.365 145.123 233.856C144.856 234.347 144.723 234.923 144.723 235.584C144.723 236.256 144.856 236.843 145.123 237.344C145.39 237.835 145.747 238.213 146.195 238.48C146.643 238.736 147.139 238.864 147.683 238.864C148.227 238.864 148.723 238.736 149.171 238.48C149.63 238.213 149.992 237.835 150.259 237.344C150.526 236.843 150.659 236.261 150.659 235.6ZM159.613 231.072C160.68 231.072 161.544 231.397 162.205 232.048C162.867 232.688 163.197 233.616 163.197 234.832V240H161.757V235.04C161.757 234.165 161.539 233.499 161.101 233.04C160.664 232.571 160.067 232.336 159.309 232.336C158.541 232.336 157.928 232.576 157.469 233.056C157.021 233.536 156.797 234.235 156.797 235.152V240H155.341V231.232H156.797V232.48C157.085 232.032 157.475 231.685 157.965 231.44C158.467 231.195 159.016 231.072 159.613 231.072ZM178.006 231.232L175.27 240H173.766L171.654 233.04L169.542 240H168.038L165.286 231.232H166.774L168.79 238.592L170.966 231.232H172.454L174.582 238.608L176.566 231.232H178.006ZM184.025 240.144C183.203 240.144 182.457 239.957 181.785 239.584C181.123 239.211 180.601 238.683 180.217 238C179.843 237.307 179.657 236.507 179.657 235.6C179.657 234.704 179.849 233.915 180.233 233.232C180.627 232.539 181.161 232.011 181.833 231.648C182.505 231.275 183.257 231.088 184.089 231.088C184.921 231.088 185.673 231.275 186.345 231.648C187.017 232.011 187.545 232.533 187.929 233.216C188.323 233.899 188.521 234.693 188.521 235.6C188.521 236.507 188.318 237.307 187.913 238C187.518 238.683 186.979 239.211 186.297 239.584C185.614 239.957 184.857 240.144 184.025 240.144ZM184.025 238.864C184.547 238.864 185.038 238.741 185.497 238.496C185.955 238.251 186.323 237.883 186.601 237.392C186.889 236.901 187.033 236.304 187.033 235.6C187.033 234.896 186.894 234.299 186.617 233.808C186.339 233.317 185.977 232.955 185.529 232.72C185.081 232.475 184.595 232.352 184.073 232.352C183.539 232.352 183.049 232.475 182.601 232.72C182.163 232.955 181.811 233.317 181.545 233.808C181.278 234.299 181.145 234.896 181.145 235.6C181.145 236.315 181.273 236.917 181.529 237.408C181.795 237.899 182.147 238.267 182.585 238.512C183.022 238.747 183.502 238.864 184.025 238.864ZM198.641 232.112C198.641 233.04 198.321 233.813 197.681 234.432C197.052 235.04 196.086 235.344 194.785 235.344H192.641V240H191.185V228.848H194.785C196.044 228.848 196.998 229.152 197.649 229.76C198.31 230.368 198.641 231.152 198.641 232.112ZM194.785 234.144C195.596 234.144 196.193 233.968 196.577 233.616C196.961 233.264 197.153 232.763 197.153 232.112C197.153 230.736 196.364 230.048 194.785 230.048H192.641V234.144H194.785ZM200.657 235.584C200.657 234.688 200.838 233.904 201.201 233.232C201.563 232.549 202.059 232.021 202.689 231.648C203.329 231.275 204.038 231.088 204.817 231.088C205.585 231.088 206.251 231.253 206.817 231.584C207.382 231.915 207.803 232.331 208.081 232.832V231.232H209.553V240H208.081V238.368C207.793 238.88 207.361 239.307 206.785 239.648C206.219 239.979 205.558 240.144 204.801 240.144C204.022 240.144 203.318 239.952 202.689 239.568C202.059 239.184 201.563 238.645 201.201 237.952C200.838 237.259 200.657 236.469 200.657 235.584ZM208.081 235.6C208.081 234.939 207.947 234.363 207.681 233.872C207.414 233.381 207.051 233.008 206.593 232.752C206.145 232.485 205.649 232.352 205.105 232.352C204.561 232.352 204.065 232.48 203.617 232.736C203.169 232.992 202.811 233.365 202.545 233.856C202.278 234.347 202.145 234.923 202.145 235.584C202.145 236.256 202.278 236.843 202.545 237.344C202.811 237.835 203.169 238.213 203.617 238.48C204.065 238.736 204.561 238.864 205.105 238.864C205.649 238.864 206.145 238.736 206.593 238.48C207.051 238.213 207.414 237.835 207.681 237.344C207.947 236.843 208.081 236.261 208.081 235.6ZM220.315 231.232L215.035 244.128H213.531L215.259 239.904L211.723 231.232H213.339L216.091 238.336L218.811 231.232H220.315Z" fill="#14142B"/>
<path d="M83.8 242.8V246H67V242.8C67 242.8 67 236.4 75.4 236.4C83.8 236.4 83.8 242.8 83.8 242.8ZM79.6 227.6C79.6 226.492 79.3537 225.41 78.8922 224.489C78.4307 223.568 77.7747 222.85 77.0073 222.426C76.2398 222.003 75.3953 221.892 74.5806 222.108C73.7659 222.324 73.0175 222.857 72.4302 223.64C71.8428 224.423 71.4428 225.421 71.2807 226.508C71.1186 227.594 71.2018 228.72 71.5197 229.743C71.8376 230.766 72.3759 231.641 73.0666 232.256C73.7573 232.872 74.5693 233.2 75.4 233.2C76.5139 233.2 77.5822 232.61 78.3698 231.56C79.1575 230.51 79.6 229.085 79.6 227.6ZM83.728 236.4C84.4657 237.161 85.0693 238.129 85.4964 239.234C85.9235 240.34 86.1637 241.557 86.2 242.8V246H91V242.8C91 242.8 91 236.992 83.728 236.4ZM82.6 222C81.774 221.994 80.9662 222.323 80.284 222.944C81.0129 224.302 81.4049 225.93 81.4049 227.6C81.4049 229.27 81.0129 230.898 80.284 232.256C80.9662 232.877 81.774 233.206 82.6 233.2C83.7139 233.2 84.7822 232.61 85.5699 231.56C86.3575 230.51 86.8 229.085 86.8 227.6C86.8 226.115 86.3575 224.69 85.5699 223.64C84.7822 222.59 83.7139 222 82.6 222Z" fill="#6E7191"/>
<path d="M347 227L353.963 233.963L347 240.926" stroke="#A0A3BD" stroke-width="2" stroke-linecap="round" stroke-linejoin="round"/>
</g>
<g filter="url(#filter1_d)">
<rect x="51" y="264" width="327" height="56" rx="5" fill="white"/>
<path opacity="0.8" d="M115.096 286.848V288.032H112.056V298H110.6V288.032H107.544V286.848H115.096ZM121.462 298.144C120.641 298.144 119.894 297.957 119.222 297.584C118.561 297.211 118.038 296.683 117.654 296C117.281 295.307 117.094 294.507 117.094 293.6C117.094 292.704 117.286 291.915 117.67 291.232C118.065 290.539 118.598 290.011 119.27 289.648C119.942 289.275 120.694 289.088 121.526 289.088C122.358 289.088 123.11 289.275 123.782 289.648C124.454 290.011 124.982 290.533 125.366 291.216C125.761 291.899 125.958 292.693 125.958 293.6C125.958 294.507 125.756 295.307 125.35 296C124.956 296.683 124.417 297.211 123.734 297.584C123.052 297.957 122.294 298.144 121.462 298.144ZM121.462 296.864C121.985 296.864 122.476 296.741 122.934 296.496C123.393 296.251 123.761 295.883 124.038 295.392C124.326 294.901 124.47 294.304 124.47 293.6C124.47 292.896 124.332 292.299 124.054 291.808C123.777 291.317 123.414 290.955 122.966 290.72C122.518 290.475 122.033 290.352 121.51 290.352C120.977 290.352 120.486 290.475 120.038 290.72C119.601 290.955 119.249 291.317 118.982 291.808C118.716 292.299 118.582 292.896 118.582 293.6C118.582 294.315 118.71 294.917 118.966 295.408C119.233 295.899 119.585 296.267 120.022 296.512C120.46 296.747 120.94 296.864 121.462 296.864ZM139.222 292.256C139.628 292.32 139.996 292.485 140.326 292.752C140.668 293.019 140.934 293.349 141.126 293.744C141.329 294.139 141.43 294.56 141.43 295.008C141.43 295.573 141.286 296.085 140.998 296.544C140.71 296.992 140.289 297.349 139.734 297.616C139.19 297.872 138.545 298 137.798 298H133.638V286.848H137.638C138.396 286.848 139.041 286.976 139.574 287.232C140.108 287.477 140.508 287.813 140.774 288.24C141.041 288.667 141.174 289.147 141.174 289.68C141.174 290.341 140.993 290.891 140.63 291.328C140.278 291.755 139.809 292.064 139.222 292.256ZM135.094 291.664H137.542C138.225 291.664 138.753 291.504 139.126 291.184C139.5 290.864 139.686 290.421 139.686 289.856C139.686 289.291 139.5 288.848 139.126 288.528C138.753 288.208 138.214 288.048 137.51 288.048H135.094V291.664ZM137.67 296.8C138.396 296.8 138.961 296.629 139.366 296.288C139.772 295.947 139.974 295.472 139.974 294.864C139.974 294.245 139.761 293.76 139.334 293.408C138.908 293.045 138.337 292.864 137.622 292.864H135.094V296.8H137.67ZM143.657 293.584C143.657 292.688 143.838 291.904 144.201 291.232C144.563 290.549 145.059 290.021 145.689 289.648C146.329 289.275 147.038 289.088 147.817 289.088C148.585 289.088 149.251 289.253 149.817 289.584C150.382 289.915 150.803 290.331 151.081 290.832V289.232H152.553V298H151.081V296.368C150.793 296.88 150.361 297.307 149.785 297.648C149.219 297.979 148.558 298.144 147.801 298.144C147.022 298.144 146.318 297.952 145.689 297.568C145.059 297.184 144.563 296.645 144.201 295.952C143.838 295.259 143.657 294.469 143.657 293.584ZM151.081 293.6C151.081 292.939 150.947 292.363 150.681 291.872C150.414 291.381 150.051 291.008 149.593 290.752C149.145 290.485 148.649 290.352 148.105 290.352C147.561 290.352 147.065 290.48 146.617 290.736C146.169 290.992 145.811 291.365 145.545 291.856C145.278 292.347 145.145 292.923 145.145 293.584C145.145 294.256 145.278 294.843 145.545 295.344C145.811 295.835 146.169 296.213 146.617 296.48C147.065 296.736 147.561 296.864 148.105 296.864C148.649 296.864 149.145 296.736 149.593 296.48C150.051 296.213 150.414 295.835 150.681 295.344C150.947 294.843 151.081 294.261 151.081 293.6ZM160.035 289.072C161.102 289.072 161.966 289.397 162.627 290.048C163.289 290.688 163.619 291.616 163.619 292.832V298H162.179V293.04C162.179 292.165 161.961 291.499 161.523 291.04C161.086 290.571 160.489 290.336 159.731 290.336C158.963 290.336 158.35 290.576 157.891 291.056C157.443 291.536 157.219 292.235 157.219 293.152V298H155.763V289.232H157.219V290.48C157.507 290.032 157.897 289.685 158.387 289.44C158.889 289.195 159.438 289.072 160.035 289.072ZM171.644 298L168.204 294.128V298H166.748V286.16H168.204V293.12L171.58 289.232H173.612L169.484 293.6L173.628 298H171.644Z" fill="#14142B"/>
<path d="M347 285L353.963 291.963L347 298.926" stroke="#A0A3BD" stroke-width="2" stroke-linecap="round" stroke-linejoin="round"/>
<path d="M69.3334 289.04L79.0001 283.487L88.6667 289.04C88.8191 289.12 88.9964 289.137 89.1615 289.09C89.3266 289.042 89.4669 288.932 89.5529 288.783C89.639 288.634 89.6642 288.458 89.6233 288.291C89.5824 288.124 89.4785 287.979 89.3334 287.887L79.0001 281.947L68.6667 287.887C68.5871 287.928 68.5166 287.986 68.4597 288.055C68.4028 288.125 68.3605 288.205 68.3355 288.292C68.3104 288.378 68.3031 288.469 68.3139 288.558C68.3248 288.647 68.3536 288.733 68.3986 288.811C68.4436 288.889 68.5038 288.957 68.5758 289.011C68.6477 289.065 68.7298 289.104 68.8171 289.125C68.9045 289.146 68.9952 289.15 69.0839 289.135C69.1727 289.121 69.2575 289.088 69.3334 289.04Z" fill="#6E7191"/>
<path d="M69.6667 297.333C69.6667 297.51 69.737 297.68 69.862 297.805C69.987 297.93 70.1566 298 70.3334 298H87.6667C87.8436 298 88.0131 297.93 88.1382 297.805C88.2632 297.68 88.3334 297.51 88.3334 297.333C88.3334 297.156 88.2632 296.987 88.1382 296.862C88.0131 296.737 87.8436 296.667 87.6667 296.667H85.6667V291.753H84.3334V296.667H79.6667V291.753H78.3334V296.667H73.6667V291.753H72.3334V296.667H70.3334C70.1566 296.667 69.987 296.737 69.862 296.862C69.737 296.987 69.6667 297.156 69.6667 297.333Z" fill="#6E7191"/>
<path d="M70.3467 289.333H87.68V290.667H70.3467V289.333Z" fill="#6E7191"/>
<path d="M88.9999 299.333H68.9999C68.8231 299.333 68.6535 299.404 68.5285 299.529C68.4035 299.654 68.3333 299.823 68.3333 300C68.3333 300.177 68.4035 300.346 68.5285 300.471C68.6535 300.596 68.8231 300.667 68.9999 300.667H88.9999C89.1767 300.667 89.3463 300.596 89.4713 300.471C89.5963 300.346 89.6666 300.177 89.6666 300C89.6666 299.823 89.5963 299.654 89.4713 299.529C89.3463 299.404 89.1767 299.333 88.9999 299.333Z" fill="#6E7191"/>
<path d="M81.7666 287.72H83.9066L79.4333 285.147C79.3522 285.1 79.2602 285.075 79.1666 285.075C79.073 285.075 78.981 285.1 78.8999 285.147L74.4199 287.72H76.5599L79.1599 286.227L81.7666 287.72Z" fill="#6E7191"/>
</g>
<rect opacity="0.9" x="27" y="764" width="375" height="74" fill="#0122AE"/>
<path d="M69 789.88C69 788.927 69.4533 788.03 70.2212 787.464L79 781L87.7788 787.464C88.5467 788.03 89 788.927 89 789.88V800.5C89 801.881 87.8807 803 86.5 803H83C82.4477 803 82 802.552 82 802V796C82 795.724 81.7761 795.5 81.5 795.5H76.5C76.2239 795.5 76 795.724 76 796V802C76 802.552 75.5523 803 75 803H71.5C70.1193 803 69 801.881 69 800.5V789.88Z" stroke="#FFDE00" stroke-width="2" stroke-linecap="round" stroke-linejoin="round"/>
<path d="M66.672 814.926V824H64.852V820.139H60.965V824H59.145V814.926H60.965V818.657H64.852V814.926H66.672ZM72.4114 824.117C71.7181 824.117 71.0941 823.965 70.5394 823.662C69.9847 823.35 69.5471 822.912 69.2264 822.349C68.9144 821.786 68.7584 821.136 68.7584 820.399C68.7584 819.662 68.9187 819.012 69.2394 818.449C69.5687 817.886 70.0151 817.452 70.5784 817.149C71.1417 816.837 71.7701 816.681 72.4634 816.681C73.1567 816.681 73.7851 816.837 74.3484 817.149C74.9117 817.452 75.3537 817.886 75.6744 818.449C76.0037 819.012 76.1684 819.662 76.1684 820.399C76.1684 821.136 75.9994 821.786 75.6614 822.349C75.3321 822.912 74.8814 823.35 74.3094 823.662C73.7461 823.965 73.1134 824.117 72.4114 824.117ZM72.4114 822.531C72.7407 822.531 73.0484 822.453 73.3344 822.297C73.6291 822.132 73.8631 821.89 74.0364 821.569C74.2097 821.248 74.2964 820.858 74.2964 820.399C74.2964 819.714 74.1144 819.19 73.7504 818.826C73.3951 818.453 72.9574 818.267 72.4374 818.267C71.9174 818.267 71.4797 818.453 71.1244 818.826C70.7777 819.19 70.6044 819.714 70.6044 820.399C70.6044 821.084 70.7734 821.612 71.1114 821.985C71.4581 822.349 71.8914 822.531 72.4114 822.531ZM87.1974 816.694C88.0814 816.694 88.7921 816.967 89.3294 817.513C89.8754 818.05 90.1484 818.804 90.1484 819.775V824H88.3284V820.022C88.3284 819.459 88.1854 819.03 87.8994 818.735C87.6134 818.432 87.2234 818.28 86.7294 818.28C86.2354 818.28 85.8411 818.432 85.5464 818.735C85.2604 819.03 85.1174 819.459 85.1174 820.022V824H83.2974V820.022C83.2974 819.459 83.1544 819.03 82.8684 818.735C82.5824 818.432 82.1924 818.28 81.6984 818.28C81.1958 818.28 80.7971 818.432 80.5024 818.735C80.2164 819.03 80.0734 819.459 80.0734 820.022V824H78.2534V816.798H80.0734V817.669C80.3074 817.366 80.6064 817.127 80.9704 816.954C81.3431 816.781 81.7504 816.694 82.1924 816.694C82.7558 816.694 83.2584 816.815 83.7004 817.058C84.1424 817.292 84.4848 817.63 84.7274 818.072C84.9614 817.656 85.2994 817.322 85.7414 817.071C86.1921 816.82 86.6774 816.694 87.1974 816.694ZM99.3205 820.243C99.3205 820.503 99.3032 820.737 99.2685 820.945H94.0035C94.0468 821.465 94.2288 821.872 94.5495 822.167C94.8702 822.462 95.2645 822.609 95.7325 822.609C96.4085 822.609 96.8895 822.319 97.1755 821.738H99.1385C98.9305 822.431 98.5318 823.003 97.9425 823.454C97.3532 823.896 96.6295 824.117 95.7715 824.117C95.0782 824.117 94.4542 823.965 93.8995 823.662C93.3535 823.35 92.9245 822.912 92.6125 822.349C92.3092 821.786 92.1575 821.136 92.1575 820.399C92.1575 819.654 92.3092 818.999 92.6125 818.436C92.9158 817.873 93.3405 817.439 93.8865 817.136C94.4325 816.833 95.0608 816.681 95.7715 816.681C96.4562 816.681 97.0672 816.828 97.6045 817.123C98.1505 817.418 98.5708 817.838 98.8655 818.384C99.1688 818.921 99.3205 819.541 99.3205 820.243ZM97.4355 819.723C97.4268 819.255 97.2578 818.882 96.9285 818.605C96.5992 818.319 96.1962 818.176 95.7195 818.176C95.2688 818.176 94.8875 818.315 94.5755 818.592C94.2722 818.861 94.0858 819.238 94.0165 819.723H97.4355Z" fill="#FFDE00"/>
<path opacity="0.5" d="M126.761 822.557H129.751V824H124.941V814.926H126.761V822.557ZM134.856 824.117C134.162 824.117 133.538 823.965 132.984 823.662C132.429 823.35 131.991 822.912 131.671 822.349C131.359 821.786 131.203 821.136 131.203 820.399C131.203 819.662 131.363 819.012 131.684 818.449C132.013 817.886 132.459 817.452 133.023 817.149C133.586 816.837 134.214 816.681 134.908 816.681C135.601 816.681 136.229 816.837 136.793 817.149C137.356 817.452 137.798 817.886 138.119 818.449C138.448 819.012 138.613 819.662 138.613 820.399C138.613 821.136 138.444 821.786 138.106 822.349C137.776 822.912 137.326 823.35 136.754 823.662C136.19 823.965 135.558 824.117 134.856 824.117ZM134.856 822.531C135.185 822.531 135.493 822.453 135.779 822.297C136.073 822.132 136.307 821.89 136.481 821.569C136.654 821.248 136.741 820.858 136.741 820.399C136.741 819.714 136.559 819.19 136.195 818.826C135.839 818.453 135.402 818.267 134.882 818.267C134.362 818.267 133.924 818.453 133.569 818.826C133.222 819.19 133.049 819.714 133.049 820.399C133.049 821.084 133.218 821.612 133.556 821.985C133.902 822.349 134.336 822.531 134.856 822.531ZM140.23 820.373C140.23 819.645 140.373 818.999 140.659 818.436C140.953 817.873 141.348 817.439 141.842 817.136C142.344 816.833 142.903 816.681 143.519 816.681C144.056 816.681 144.524 816.789 144.923 817.006C145.33 817.223 145.655 817.496 145.898 817.825V816.798H147.731V824H145.898V822.947C145.664 823.285 145.339 823.567 144.923 823.792C144.515 824.009 144.043 824.117 143.506 824.117C142.899 824.117 142.344 823.961 141.842 823.649C141.348 823.337 140.953 822.899 140.659 822.336C140.373 821.764 140.23 821.11 140.23 820.373ZM145.898 820.399C145.898 819.957 145.811 819.58 145.638 819.268C145.464 818.947 145.23 818.705 144.936 818.54C144.641 818.367 144.325 818.28 143.987 818.28C143.649 818.28 143.337 818.362 143.051 818.527C142.765 818.692 142.531 818.934 142.349 819.255C142.175 819.567 142.089 819.94 142.089 820.373C142.089 820.806 142.175 821.188 142.349 821.517C142.531 821.838 142.765 822.085 143.051 822.258C143.345 822.431 143.657 822.518 143.987 822.518C144.325 822.518 144.641 822.436 144.936 822.271C145.23 822.098 145.464 821.855 145.638 821.543C145.811 821.222 145.898 820.841 145.898 820.399ZM154.249 816.694C155.107 816.694 155.801 816.967 156.329 817.513C156.858 818.05 157.122 818.804 157.122 819.775V824H155.302V820.022C155.302 819.45 155.159 819.012 154.873 818.709C154.587 818.397 154.197 818.241 153.703 818.241C153.201 818.241 152.802 818.397 152.507 818.709C152.221 819.012 152.078 819.45 152.078 820.022V824H150.258V816.798H152.078V817.695C152.321 817.383 152.629 817.14 153.001 816.967C153.383 816.785 153.799 816.694 154.249 816.694Z" fill="#EFF0F7"/>
<path opacity="0.5" d="M183.619 824L181.617 820.464H180.759V824H178.939V814.926H182.345C183.047 814.926 183.645 815.052 184.139 815.303C184.633 815.546 185.001 815.879 185.244 816.304C185.495 816.72 185.621 817.188 185.621 817.708C185.621 818.306 185.447 818.848 185.101 819.333C184.754 819.81 184.238 820.139 183.554 820.321L185.725 824H183.619ZM180.759 819.099H182.28C182.774 819.099 183.142 818.982 183.385 818.748C183.627 818.505 183.749 818.172 183.749 817.747C183.749 817.331 183.627 817.01 183.385 816.785C183.142 816.551 182.774 816.434 182.28 816.434H180.759V819.099ZM194.712 820.243C194.712 820.503 194.694 820.737 194.66 820.945H189.395C189.438 821.465 189.62 821.872 189.941 822.167C190.261 822.462 190.656 822.609 191.124 822.609C191.8 822.609 192.281 822.319 192.567 821.738H194.53C194.322 822.431 193.923 823.003 193.334 823.454C192.744 823.896 192.021 824.117 191.163 824.117C190.469 824.117 189.845 823.965 189.291 823.662C188.745 823.35 188.316 822.912 188.004 822.349C187.7 821.786 187.549 821.136 187.549 820.399C187.549 819.654 187.7 818.999 188.004 818.436C188.307 817.873 188.732 817.439 189.278 817.136C189.824 816.833 190.452 816.681 191.163 816.681C191.847 816.681 192.458 816.828 192.996 817.123C193.542 817.418 193.962 817.838 194.257 818.384C194.56 818.921 194.712 819.541 194.712 820.243ZM192.827 819.723C192.818 819.255 192.649 818.882 192.32 818.605C191.99 818.319 191.587 818.176 191.111 818.176C190.66 818.176 190.279 818.315 189.967 818.592C189.663 818.861 189.477 819.238 189.408 819.723H192.827ZM196.322 820.399C196.322 819.654 196.474 819.004 196.777 818.449C197.08 817.886 197.501 817.452 198.038 817.149C198.575 816.837 199.191 816.681 199.884 816.681C200.777 816.681 201.513 816.906 202.094 817.357C202.683 817.799 203.078 818.423 203.277 819.229H201.314C201.21 818.917 201.032 818.674 200.781 818.501C200.538 818.319 200.235 818.228 199.871 818.228C199.351 818.228 198.939 818.419 198.636 818.8C198.333 819.173 198.181 819.706 198.181 820.399C198.181 821.084 198.333 821.617 198.636 821.998C198.939 822.371 199.351 822.557 199.871 822.557C200.608 822.557 201.089 822.228 201.314 821.569H203.277C203.078 822.349 202.683 822.969 202.094 823.428C201.505 823.887 200.768 824.117 199.884 824.117C199.191 824.117 198.575 823.965 198.038 823.662C197.501 823.35 197.08 822.917 196.777 822.362C196.474 821.799 196.322 821.144 196.322 820.399ZM209.416 816.694C209.962 816.694 210.448 816.815 210.872 817.058C211.297 817.292 211.626 817.643 211.86 818.111C212.103 818.57 212.224 819.125 212.224 819.775V824H210.404V820.022C210.404 819.45 210.261 819.012 209.975 818.709C209.689 818.397 209.299 818.241 208.805 818.241C208.303 818.241 207.904 818.397 207.609 818.709C207.323 819.012 207.18 819.45 207.18 820.022V824H205.36V814.38H207.18V817.695C207.414 817.383 207.726 817.14 208.116 816.967C208.506 816.785 208.94 816.694 209.416 816.694ZM214.237 820.373C214.237 819.645 214.38 818.999 214.666 818.436C214.961 817.873 215.355 817.439 215.849 817.136C216.352 816.833 216.911 816.681 217.526 816.681C218.063 816.681 218.531 816.789 218.93 817.006C219.337 817.223 219.662 817.496 219.905 817.825V816.798H221.738V824H219.905V822.947C219.671 823.285 219.346 823.567 218.93 823.792C218.523 824.009 218.05 824.117 217.513 824.117C216.906 824.117 216.352 823.961 215.849 823.649C215.355 823.337 214.961 822.899 214.666 822.336C214.38 821.764 214.237 821.11 214.237 820.373ZM219.905 820.399C219.905 819.957 219.818 819.58 219.645 819.268C219.472 818.947 219.238 818.705 218.943 818.54C218.648 818.367 218.332 818.28 217.994 818.28C217.656 818.28 217.344 818.362 217.058 818.527C216.772 818.692 216.538 818.934 216.356 819.255C216.183 819.567 216.096 819.94 216.096 820.373C216.096 820.806 216.183 821.188 216.356 821.517C216.538 821.838 216.772 822.085 217.058 822.258C217.353 822.431 217.665 822.518 217.994 822.518C218.332 822.518 218.648 822.436 218.943 822.271C219.238 822.098 219.472 821.855 219.645 821.543C219.818 821.222 219.905 820.841 219.905 820.399ZM226.086 817.916C226.32 817.535 226.623 817.236 226.996 817.019C227.377 816.802 227.81 816.694 228.296 816.694V818.605H227.815C227.243 818.605 226.809 818.739 226.515 819.008C226.229 819.277 226.086 819.745 226.086 820.412V824H224.266V816.798H226.086V817.916ZM233.093 816.681C233.63 816.681 234.102 816.789 234.51 817.006C234.917 817.214 235.238 817.487 235.472 817.825V816.798H237.305V824.052C237.305 824.719 237.17 825.313 236.902 825.833C236.633 826.362 236.23 826.778 235.693 827.081C235.155 827.393 234.505 827.549 233.743 827.549C232.72 827.549 231.879 827.311 231.221 826.834C230.571 826.357 230.202 825.707 230.116 824.884H231.923C232.018 825.213 232.222 825.473 232.534 825.664C232.854 825.863 233.24 825.963 233.691 825.963C234.219 825.963 234.648 825.803 234.978 825.482C235.307 825.17 235.472 824.693 235.472 824.052V822.934C235.238 823.272 234.913 823.554 234.497 823.779C234.089 824.004 233.621 824.117 233.093 824.117C232.486 824.117 231.931 823.961 231.429 823.649C230.926 823.337 230.527 822.899 230.233 822.336C229.947 821.764 229.804 821.11 229.804 820.373C229.804 819.645 229.947 818.999 230.233 818.436C230.527 817.873 230.922 817.439 231.416 817.136C231.918 816.833 232.477 816.681 233.093 816.681ZM235.472 820.399C235.472 819.957 235.385 819.58 235.212 819.268C235.038 818.947 234.804 818.705 234.51 818.54C234.215 818.367 233.899 818.28 233.561 818.28C233.223 818.28 232.911 818.362 232.625 818.527C232.339 818.692 232.105 818.934 231.923 819.255C231.749 819.567 231.663 819.94 231.663 820.373C231.663 820.806 231.749 821.188 231.923 821.517C232.105 821.838 232.339 822.085 232.625 822.258C232.919 822.431 233.231 822.518 233.561 822.518C233.899 822.518 234.215 822.436 234.51 822.271C234.804 822.098 235.038 821.855 235.212 821.543C235.385 821.222 235.472 820.841 235.472 820.399ZM246.527 820.243C246.527 820.503 246.51 820.737 246.475 820.945H241.21C241.253 821.465 241.435 821.872 241.756 822.167C242.077 822.462 242.471 822.609 242.939 822.609C243.615 822.609 244.096 822.319 244.382 821.738H246.345C246.137 822.431 245.738 823.003 245.149 823.454C244.56 823.896 243.836 824.117 242.978 824.117C242.285 824.117 241.661 823.965 241.106 823.662C240.56 823.35 240.131 822.912 239.819 822.349C239.516 821.786 239.364 821.136 239.364 820.399C239.364 819.654 239.516 818.999 239.819 818.436C240.122 817.873 240.547 817.439 241.093 817.136C241.639 816.833 242.267 816.681 242.978 816.681C243.663 816.681 244.274 816.828 244.811 817.123C245.357 817.418 245.777 817.838 246.072 818.384C246.375 818.921 246.527 819.541 246.527 820.243ZM244.642 819.723C244.633 819.255 244.464 818.882 244.135 818.605C243.806 818.319 243.403 818.176 242.926 818.176C242.475 818.176 242.094 818.315 241.782 818.592C241.479 818.861 241.292 819.238 241.223 819.723H244.642Z" fill="#EFF0F7"/>
<g opacity="0.5">
<path fill-rule="evenodd" clip-rule="evenodd" d="M142.706 796.5H144.008V799.438H142.706V796.5Z" fill="#EFF0F7"/>
<path fill-rule="evenodd" clip-rule="evenodd" d="M142.706 796.5H144.008V799.438H142.706V796.5Z" fill="#EFF0F7"/>
<path fill-rule="evenodd" clip-rule="evenodd" d="M139.882 792H141.207V794.961H139.882V792Z" fill="#EFF0F7"/>
<path fill-rule="evenodd" clip-rule="evenodd" d="M139.882 792H141.207V794.961H139.882V792Z" fill="#EFF0F7"/>
<path fill-rule="evenodd" clip-rule="evenodd" d="M143.124 787.168C144.335 785.668 145.199 782.283 145.199 781.057C145.199 778.468 143.746 781.717 141.955 781.717C140.161 781.717 138.711 778.435 138.711 781.057C138.711 782.304 139.599 785.779 140.845 787.242C137.163 788.352 134.261 793.983 134.261 798.933C134.261 803.31 137.727 803.979 142 803.979C146.273 803.979 149.738 803.25 149.738 798.933C149.738 794.424 146.909 788.131 143.124 787.168ZM145.573 799.57H144.161V801.046H142.75V802.593H141.25V801.046H139.839V799.57L139.857 799.546H138.427V797.953H139.905V799.483L139.928 799.453H141.252V796.546H139.882V795.07H138.404V791.977H139.882V790.453H141.25V788.907H142.75V790.453H144.161V791.953H145.551V793.546H144.073V792.015L144.05 792.024H142.748V794.953H144.183V796.477H145.572V799.57H145.573Z" fill="#EFF0F7"/>
<path fill-rule="evenodd" clip-rule="evenodd" d="M143.124 787.168C144.335 785.668 145.199 782.283 145.199 781.057C145.199 778.468 143.746 781.717 141.955 781.717C140.161 781.717 138.711 778.435 138.711 781.057C138.711 782.304 139.599 785.779 140.845 787.242C137.163 788.352 134.261 793.983 134.261 798.933C134.261 803.31 137.727 803.979 142 803.979C146.273 803.979 149.738 803.25 149.738 798.933C149.738 794.424 146.909 788.131 143.124 787.168ZM145.573 799.57H144.161V801.046H142.75V802.593H141.25V801.046H139.839V799.57L139.857 799.546H138.427V797.953H139.905V799.483L139.928 799.453H141.252V796.546H139.882V795.07H138.404V791.977H139.882V790.453H141.25V788.907H142.75V790.453H144.161V791.953H145.551V793.546H144.073V792.015L144.05 792.024H142.748V794.953H144.183V796.477H145.572V799.57H145.573Z" fill="#EFF0F7"/>
</g>
<path opacity="0.5" d="M262.943 819.45C262.943 818.557 263.142 817.76 263.541 817.058C263.948 816.347 264.498 815.797 265.192 815.407C265.894 815.008 266.678 814.809 267.545 814.809C268.559 814.809 269.447 815.069 270.21 815.589C270.972 816.109 271.505 816.828 271.809 817.747H269.716C269.508 817.314 269.213 816.989 268.832 816.772C268.459 816.555 268.026 816.447 267.532 816.447C267.003 816.447 266.531 816.573 266.115 816.824C265.707 817.067 265.387 817.413 265.153 817.864C264.927 818.315 264.815 818.843 264.815 819.45C264.815 820.048 264.927 820.577 265.153 821.036C265.387 821.487 265.707 821.838 266.115 822.089C266.531 822.332 267.003 822.453 267.532 822.453C268.026 822.453 268.459 822.345 268.832 822.128C269.213 821.903 269.508 821.573 269.716 821.14H271.809C271.505 822.067 270.972 822.791 270.21 823.311C269.456 823.822 268.567 824.078 267.545 824.078C266.678 824.078 265.894 823.883 265.192 823.493C264.498 823.094 263.948 822.544 263.541 821.842C263.142 821.14 262.943 820.343 262.943 819.45ZM278.169 816.694C278.715 816.694 279.201 816.815 279.625 817.058C280.05 817.292 280.379 817.643 280.613 818.111C280.856 818.57 280.977 819.125 280.977 819.775V824H279.157V820.022C279.157 819.45 279.014 819.012 278.728 818.709C278.442 818.397 278.052 818.241 277.558 818.241C277.056 818.241 276.657 818.397 276.362 818.709C276.076 819.012 275.933 819.45 275.933 820.022V824H274.113V814.38H275.933V817.695C276.167 817.383 276.479 817.14 276.869 816.967C277.259 816.785 277.693 816.694 278.169 816.694ZM282.99 820.373C282.99 819.645 283.133 818.999 283.419 818.436C283.714 817.873 284.108 817.439 284.602 817.136C285.105 816.833 285.664 816.681 286.279 816.681C286.816 816.681 287.284 816.789 287.683 817.006C288.09 817.223 288.415 817.496 288.658 817.825V816.798H290.491V824H288.658V822.947C288.424 823.285 288.099 823.567 287.683 823.792C287.276 824.009 286.803 824.117 286.266 824.117C285.659 824.117 285.105 823.961 284.602 823.649C284.108 823.337 283.714 822.899 283.419 822.336C283.133 821.764 282.99 821.11 282.99 820.373ZM288.658 820.399C288.658 819.957 288.571 819.58 288.398 819.268C288.225 818.947 287.991 818.705 287.696 818.54C287.401 818.367 287.085 818.28 286.747 818.28C286.409 818.28 286.097 818.362 285.811 818.527C285.525 818.692 285.291 818.934 285.109 819.255C284.936 819.567 284.849 819.94 284.849 820.373C284.849 820.806 284.936 821.188 285.109 821.517C285.291 821.838 285.525 822.085 285.811 822.258C286.106 822.431 286.418 822.518 286.747 822.518C287.085 822.518 287.401 822.436 287.696 822.271C287.991 822.098 288.225 821.855 288.398 821.543C288.571 821.222 288.658 820.841 288.658 820.399ZM295.138 818.293V821.777C295.138 822.02 295.194 822.197 295.307 822.31C295.428 822.414 295.627 822.466 295.905 822.466H296.75V824H295.606C294.072 824 293.305 823.255 293.305 821.764V818.293H292.447V816.798H293.305V815.017H295.138V816.798H296.75V818.293H295.138ZM300.928 818.293V821.777C300.928 822.02 300.984 822.197 301.097 822.31C301.218 822.414 301.417 822.466 301.695 822.466H302.54V824H301.396C299.862 824 299.095 823.255 299.095 821.764V818.293H298.237V816.798H299.095V815.017H300.928V816.798H302.54V818.293H300.928ZM304.131 820.373C304.131 819.645 304.274 818.999 304.56 818.436C304.854 817.873 305.249 817.439 305.743 817.136C306.245 816.833 306.804 816.681 307.42 816.681C307.957 816.681 308.425 816.789 308.824 817.006C309.231 817.223 309.556 817.496 309.799 817.825V816.798H311.632V824H309.799V822.947C309.565 823.285 309.24 823.567 308.824 823.792C308.416 824.009 307.944 824.117 307.407 824.117C306.8 824.117 306.245 823.961 305.743 823.649C305.249 823.337 304.854 822.899 304.56 822.336C304.274 821.764 304.131 821.11 304.131 820.373ZM309.799 820.399C309.799 819.957 309.712 819.58 309.539 819.268C309.365 818.947 309.131 818.705 308.837 818.54C308.542 818.367 308.226 818.28 307.888 818.28C307.55 818.28 307.238 818.362 306.952 818.527C306.666 818.692 306.432 818.934 306.25 819.255C306.076 819.567 305.99 819.94 305.99 820.373C305.99 820.806 306.076 821.188 306.25 821.517C306.432 821.838 306.666 822.085 306.952 822.258C307.246 822.431 307.558 822.518 307.888 822.518C308.226 822.518 308.542 822.436 308.837 822.271C309.131 822.098 309.365 821.855 309.539 821.543C309.712 821.222 309.799 820.841 309.799 820.399Z" fill="#EFF0F7"/>
<g opacity="0.5">
<path d="M288 784H281C280.204 784 279.441 784.316 278.879 784.879C278.316 785.441 278 786.204 278 787V795C278 795.796 278.316 796.559 278.879 797.121C279.441 797.684 280.204 798 281 798L280 799V800H281L283 797.97L285 798V793H280V786H289V788H291V787C291 786.204 290.684 785.441 290.121 784.879C289.559 784.316 288.796 784 288 784ZM281 794C281.265 794 281.52 794.105 281.707 794.293C281.895 794.48 282 794.735 282 795C282 795.265 281.895 795.52 281.707 795.707C281.52 795.895 281.265 796 281 796C280.735 796 280.48 795.895 280.293 795.707C280.105 795.52 280 795.265 280 795C280 794.735 280.105 794.48 280.293 794.293C280.48 794.105 280.735 794 281 794ZM296.57 789.66C296.43 789.26 296.05 789 295.6 789H288.41C287.95 789 287.58 789.26 287.43 789.66L286 793.77V799.28C286 799.66 286.32 800 286.7 800H287.32C287.7 800 288 799.62 288 799.24V798H296V799.24C296 799.62 296.31 800 296.69 800H297.3C297.68 800 298 799.66 298 799.28V793.77L296.57 789.66ZM288.41 790H295.6L296.63 793H287.38L288.41 790ZM288 796C287.735 796 287.48 795.895 287.293 795.707C287.105 795.52 287 795.265 287 795C287 794.735 287.105 794.48 287.293 794.293C287.48 794.105 287.735 794 288 794C288.265 794 288.52 794.105 288.707 794.293C288.895 794.48 289 794.735 289 795C289 795.265 288.895 795.52 288.707 795.707C288.52 795.895 288.265 796 288 796ZM296 796C295.735 796 295.48 795.895 295.293 795.707C295.105 795.52 295 795.265 295 795C295 794.735 295.105 794.48 295.293 794.293C295.48 794.105 295.735 794 296 794C296.265 794 296.52 794.105 296.707 794.293C296.895 794.48 297 794.735 297 795C297 795.265 296.895 795.52 296.707 795.707C296.52 795.895 296.265 796 296 796Z" fill="#EFF0F7"/>
<path d="M288 784H281C280.204 784 279.441 784.316 278.879 784.879C278.316 785.441 278 786.204 278 787V795C278 795.796 278.316 796.559 278.879 797.121C279.441 797.684 280.204 798 281 798L280 799V800H281L283 797.97L285 798V793H280V786H289V788H291V787C291 786.204 290.684 785.441 290.121 784.879C289.559 784.316 288.796 784 288 784ZM281 794C281.265 794 281.52 794.105 281.707 794.293C281.895 794.48 282 794.735 282 795C282 795.265 281.895 795.52 281.707 795.707C281.52 795.895 281.265 796 281 796C280.735 796 280.48 795.895 280.293 795.707C280.105 795.52 280 795.265 280 795C280 794.735 280.105 794.48 280.293 794.293C280.48 794.105 280.735 794 281 794ZM296.57 789.66C296.43 789.26 296.05 789 295.6 789H288.41C287.95 789 287.58 789.26 287.43 789.66L286 793.77V799.28C286 799.66 286.32 800 286.7 800H287.32C287.7 800 288 799.62 288 799.24V798H296V799.24C296 799.62 296.31 800 296.69 800H297.3C297.68 800 298 799.66 298 799.28V793.77L296.57 789.66ZM288.41 790H295.6L296.63 793H287.38L288.41 790ZM288 796C287.735 796 287.48 795.895 287.293 795.707C287.105 795.52 287 795.265 287 795C287 794.735 287.105 794.48 287.293 794.293C287.48 794.105 287.735 794 288 794C288.265 794 288.52 794.105 288.707 794.293C288.895 794.48 289 794.735 289 795C289 795.265 288.895 795.52 288.707 795.707C288.52 795.895 288.265 796 288 796ZM296 796C295.735 796 295.48 795.895 295.293 795.707C295.105 795.52 295 795.265 295 795C295 794.735 295.105 794.48 295.293 794.293C295.48 794.105 295.735 794 296 794C296.265 794 296.52 794.105 296.707 794.293C296.895 794.48 297 794.735 297 795C297 795.265 296.895 795.52 296.707 795.707C296.52 795.895 296.265 796 296 796Z" fill="#EFF0F7"/>
</g>
<path opacity="0.5" d="M335.666 817.734C335.666 818.219 335.549 818.674 335.315 819.099C335.09 819.524 334.73 819.866 334.236 820.126C333.751 820.386 333.135 820.516 332.39 820.516H330.869V824H329.049V814.926H332.39C333.092 814.926 333.69 815.047 334.184 815.29C334.678 815.533 335.046 815.866 335.289 816.291C335.54 816.716 335.666 817.197 335.666 817.734ZM332.312 819.047C332.815 819.047 333.187 818.934 333.43 818.709C333.673 818.475 333.794 818.15 333.794 817.734C333.794 816.85 333.3 816.408 332.312 816.408H330.869V819.047H332.312ZM339.528 817.916C339.762 817.535 340.065 817.236 340.438 817.019C340.819 816.802 341.253 816.694 341.738 816.694V818.605H341.257C340.685 818.605 340.252 818.739 339.957 819.008C339.671 819.277 339.528 819.745 339.528 820.412V824H337.708V816.798H339.528V817.916ZM346.912 824.117C346.219 824.117 345.595 823.965 345.04 823.662C344.485 823.35 344.048 822.912 343.727 822.349C343.415 821.786 343.259 821.136 343.259 820.399C343.259 819.662 343.419 819.012 343.74 818.449C344.069 817.886 344.516 817.452 345.079 817.149C345.642 816.837 346.271 816.681 346.964 816.681C347.657 816.681 348.286 816.837 348.849 817.149C349.412 817.452 349.854 817.886 350.175 818.449C350.504 819.012 350.669 819.662 350.669 820.399C350.669 821.136 350.5 821.786 350.162 822.349C349.833 822.912 349.382 823.35 348.81 823.662C348.247 823.965 347.614 824.117 346.912 824.117ZM346.912 822.531C347.241 822.531 347.549 822.453 347.835 822.297C348.13 822.132 348.364 821.89 348.537 821.569C348.71 821.248 348.797 820.858 348.797 820.399C348.797 819.714 348.615 819.19 348.251 818.826C347.896 818.453 347.458 818.267 346.938 818.267C346.418 818.267 345.98 818.453 345.625 818.826C345.278 819.19 345.105 819.714 345.105 820.399C345.105 821.084 345.274 821.612 345.612 821.985C345.959 822.349 346.392 822.531 346.912 822.531ZM356.056 818.293H354.795V824H352.949V818.293H352.13V816.798H352.949V816.434C352.949 815.55 353.2 814.9 353.703 814.484C354.206 814.068 354.964 813.873 355.978 813.899V815.433C355.536 815.424 355.228 815.498 355.055 815.654C354.882 815.81 354.795 816.092 354.795 816.499V816.798H356.056V818.293ZM358.908 815.94C358.588 815.94 358.319 815.84 358.102 815.641C357.894 815.433 357.79 815.177 357.79 814.874C357.79 814.571 357.894 814.319 358.102 814.12C358.319 813.912 358.588 813.808 358.908 813.808C359.229 813.808 359.493 813.912 359.701 814.12C359.918 814.319 360.026 814.571 360.026 814.874C360.026 815.177 359.918 815.433 359.701 815.641C359.493 815.84 359.229 815.94 358.908 815.94ZM359.805 816.798V824H357.985V816.798H359.805ZM364.174 814.38V824H362.354V814.38H364.174ZM373.417 820.243C373.417 820.503 373.399 820.737 373.365 820.945H368.1C368.143 821.465 368.325 821.872 368.646 822.167C368.966 822.462 369.361 822.609 369.829 822.609C370.505 822.609 370.986 822.319 371.272 821.738H373.235C373.027 822.431 372.628 823.003 372.039 823.454C371.449 823.896 370.726 824.117 369.868 824.117C369.174 824.117 368.55 823.965 367.996 823.662C367.45 823.35 367.021 822.912 366.709 822.349C366.405 821.786 366.254 821.136 366.254 820.399C366.254 819.654 366.405 818.999 366.709 818.436C367.012 817.873 367.437 817.439 367.983 817.136C368.529 816.833 369.157 816.681 369.868 816.681C370.552 816.681 371.163 816.828 371.701 817.123C372.247 817.418 372.667 817.838 372.962 818.384C373.265 818.921 373.417 819.541 373.417 820.243ZM371.532 819.723C371.523 819.255 371.354 818.882 371.025 818.605C370.695 818.319 370.292 818.176 369.816 818.176C369.365 818.176 368.984 818.315 368.672 818.592C368.368 818.861 368.182 819.238 368.113 819.723H371.532Z" fill="#EFF0F7"/>
<g opacity="0.5">
<path d="M342 801.5L342.165 800.436C342.374 799.095 343.248 797.947 344.545 797.547C346.137 797.055 348.491 796.5 351 796.5C353.509 796.5 355.863 797.055 357.455 797.547C358.752 797.947 359.626 799.095 359.835 800.436L360 801.5" stroke="#EFF0F7" stroke-width="2" stroke-linecap="round" stroke-linejoin="round"/>
<path d="M351 792C353.761 792 356 789.761 356 787C356 784.239 353.761 782 351 782C348.239 782 346 784.239 346 787C346 789.761 348.239 792 351 792Z" stroke="#EFF0F7" stroke-width="2" stroke-linecap="round" stroke-linejoin="round"/>
</g>
<g opacity="0.5">
<path d="M210.302 802.57H213.044C213.131 802.57 213.214 802.536 213.276 802.474C213.337 802.413 213.372 802.329 213.372 802.242C213.372 802.155 213.337 802.072 213.276 802.01C213.214 801.949 213.131 801.914 213.044 801.914H210.302C210.214 801.914 210.131 801.949 210.069 802.01C210.008 802.072 209.973 802.155 209.973 802.242C209.973 802.329 210.008 802.413 210.069 802.474C210.131 802.536 210.214 802.57 210.302 802.57Z" fill="#EFF0F7"/>
<path d="M216.854 781.43H216.08C215.993 781.43 215.91 781.464 215.848 781.526C215.787 781.587 215.752 781.671 215.752 781.758C215.752 781.845 215.787 781.928 215.848 781.99C215.91 782.051 215.993 782.086 216.08 782.086H216.854C216.941 782.086 217.024 782.051 217.086 781.99C217.147 781.928 217.182 781.845 217.182 781.758C217.182 781.671 217.147 781.587 217.086 781.526C217.024 781.464 216.941 781.43 216.854 781.43Z" fill="#EFF0F7"/>
<path d="M225.265 786.281H218.938V781.078C218.937 780.792 218.824 780.518 218.622 780.316C218.42 780.114 218.146 780 217.86 780H205.485C205.199 780 204.925 780.114 204.723 780.316C204.52 780.518 204.407 780.792 204.406 781.078V802.922C204.407 803.208 204.52 803.482 204.722 803.684C204.924 803.886 205.199 804 205.484 804H217.859C218.145 804 218.419 803.886 218.621 803.684C218.824 803.482 218.937 803.208 218.938 802.922V797.109L220.622 795.425H225.264C225.351 795.425 225.435 795.391 225.496 795.329C225.558 795.268 225.592 795.184 225.592 795.097V786.609C225.592 786.522 225.558 786.439 225.496 786.378C225.435 786.316 225.352 786.281 225.265 786.281ZM211.955 795.426H216.598L218.281 797.11V800.485H205.062V783.516H218.281V786.281H211.955C211.868 786.281 211.785 786.316 211.723 786.377C211.662 786.439 211.627 786.522 211.627 786.609V795.098C211.627 795.185 211.662 795.268 211.723 795.33C211.785 795.391 211.868 795.426 211.955 795.426ZM205.062 781.078C205.063 780.966 205.107 780.859 205.186 780.78C205.265 780.701 205.373 780.656 205.484 780.656H217.859C217.971 780.656 218.078 780.701 218.158 780.78C218.237 780.859 218.281 780.966 218.281 781.078V782.859H205.062V781.078ZM218.281 802.922C218.281 803.034 218.237 803.141 218.158 803.22C218.078 803.299 217.971 803.344 217.859 803.344H205.484C205.373 803.344 205.265 803.299 205.186 803.22C205.107 803.141 205.063 803.034 205.062 802.922V801.141H218.281V802.922ZM224.938 794.77H220.487C220.4 794.77 220.316 794.804 220.255 794.866L218.61 796.51L216.966 794.866C216.904 794.804 216.821 794.77 216.734 794.77H212.284V786.938H224.938V794.77Z" fill="#EFF0F7"/>
<path d="M214.872 789.842H216.182C216.269 789.842 216.353 789.808 216.414 789.746C216.476 789.685 216.51 789.601 216.51 789.514C216.51 789.427 216.476 789.344 216.414 789.282C216.353 789.221 216.269 789.186 216.182 789.186H215.475V788.697C215.475 788.61 215.441 788.527 215.379 788.465C215.317 788.404 215.234 788.369 215.147 788.369C215.06 788.369 214.976 788.404 214.915 788.465C214.853 788.527 214.819 788.61 214.819 788.697V789.189C214.54 789.202 214.277 789.323 214.084 789.525C213.892 789.727 213.784 789.995 213.783 790.274V790.844C213.783 790.931 213.818 791.015 213.88 791.076C213.941 791.138 214.025 791.172 214.112 791.172H215.854V791.414C215.854 791.528 215.808 791.638 215.728 791.719C215.647 791.8 215.537 791.845 215.423 791.845H214.112C214.025 791.845 213.941 791.88 213.88 791.941C213.818 792.003 213.783 792.086 213.783 792.173C213.783 792.26 213.818 792.344 213.88 792.405C213.941 792.467 214.025 792.502 214.112 792.502H214.819V793.009C214.819 793.096 214.853 793.18 214.915 793.241C214.976 793.303 215.06 793.337 215.147 793.337C215.234 793.337 215.317 793.303 215.379 793.241C215.441 793.18 215.475 793.096 215.475 793.009V792.499C215.754 792.486 216.017 792.365 216.21 792.163C216.402 791.961 216.51 791.693 216.51 791.414V790.844C216.51 790.757 216.476 790.674 216.414 790.612C216.353 790.551 216.269 790.516 216.182 790.516H214.44V790.274C214.44 790.16 214.485 790.05 214.566 789.969C214.647 789.888 214.757 789.842 214.872 789.842Z" fill="#EFF0F7"/>
<path d="M218.281 788.697C218.281 788.784 218.316 788.868 218.377 788.929C218.439 788.991 218.522 789.025 218.609 789.025H223.556C223.643 789.025 223.727 788.991 223.788 788.929C223.85 788.868 223.884 788.784 223.884 788.697C223.884 788.61 223.85 788.527 223.788 788.465C223.727 788.404 223.643 788.369 223.556 788.369H218.61C218.567 788.369 218.524 788.377 218.484 788.394C218.444 788.41 218.408 788.434 218.378 788.465C218.347 788.495 218.323 788.532 218.306 788.571C218.29 788.611 218.281 788.654 218.281 788.697Z" fill="#EFF0F7"/>
<path d="M223.557 790.516H218.61C218.523 790.516 218.44 790.551 218.378 790.612C218.317 790.674 218.282 790.757 218.282 790.844C218.282 790.931 218.317 791.015 218.378 791.076C218.44 791.138 218.523 791.172 218.61 791.172H223.557C223.644 791.172 223.727 791.138 223.789 791.076C223.85 791.015 223.885 790.931 223.885 790.844C223.885 790.757 223.85 790.674 223.789 790.612C223.727 790.551 223.644 790.516 223.557 790.516Z" fill="#EFF0F7"/>
<path d="M221.083 792.663H218.61C218.523 792.663 218.44 792.697 218.378 792.759C218.317 792.82 218.282 792.904 218.282 792.991C218.282 793.078 218.317 793.161 218.378 793.223C218.44 793.284 218.523 793.319 218.61 793.319H221.083C221.17 793.319 221.254 793.284 221.315 793.223C221.377 793.161 221.412 793.078 221.412 792.991C221.412 792.904 221.377 792.82 221.315 792.759C221.254 792.697 221.17 792.663 221.083 792.663Z" fill="#EFF0F7"/>
</g>
</g>
<path fill-rule="evenodd" clip-rule="evenodd" d="M428 300V781.956C428 810.484 425.03 820.829 419.452 831.259C413.874 841.689 405.689 849.874 395.259 855.452C384.829 861.03 374.484 864 345.956 864H85.0443C56.5157 864 46.1706 861.03 35.7409 855.452C25.3113 849.874 17.1261 841.689 11.5482 831.259C5.97042 820.829 3 810.484 3 781.956V321C1.34315 321 0 319.657 0 318V260C0 258.343 1.34315 257 3 257V242C1.34315 242 0 240.657 0 239V181C0 179.343 1.34315 178 3 178V151C1.34315 151 0 149.657 0 148V120C0 118.343 1.34315 117 3 117V82.0443C3 53.5157 5.97042 43.1706 11.5482 32.7409C17.1261 22.3113 25.3113 14.1261 35.7409 8.54825C46.1706 2.97042 56.5157 0 85.0443 0H345.956C374.484 0 384.829 2.97042 395.259 8.54825C405.689 14.1261 413.874 22.3113 419.452 32.7409C425.03 43.1706 428 53.5157 428 82.0443V199C429.657 199 431 200.343 431 202V297C431 298.657 429.657 300 428 300ZM27 87.8C27 66.518 27 55.877 31.1418 47.7484C34.7849 40.5982 40.5982 34.7849 47.7484 31.1418C55.877 27 66.518 27 87.8 27L103 27C106.684 27.0098 109.732 29.865 109.998 33.4837C110.14 38.4568 111.1 42.1066 112.785 45.2569C114.615 48.6791 117.301 51.3649 120.723 53.1951C124.145 55.0253 128.157 56 133.814 56H295.146C300.803 56 304.815 55.0253 308.237 53.1951C311.659 51.3649 314.345 48.6791 316.175 45.2569C317.857 42.1117 318.817 38.4686 318.961 33.5079C319.216 29.8778 322.269 27.0098 325.961 27L341.2 27C362.482 27 373.123 27 381.252 31.1418C388.402 34.7849 394.215 40.5982 397.858 47.7484C402 55.877 402 66.518 402 87.8V778.2C402 799.482 402 810.123 397.858 818.252C394.215 825.402 388.402 831.215 381.252 834.858C373.123 839 362.482 839 341.2 839H87.8C66.518 839 55.877 839 47.7484 834.858C40.5982 831.215 34.7849 825.402 31.1418 818.252C27 810.123 27 799.482 27 778.2V87.8Z" fill="white"/>
<path fill-rule="evenodd" clip-rule="evenodd" d="M261 42C264.866 42 268 38.866 268 35C268 31.134 264.866 28 261 28C257.134 28 254 31.134 254 35C254 38.866 257.134 42 261 42Z" fill="#232323"/>
<rect x="189" y="31" width="52" height="8" rx="4" fill="#232323"/>
<defs>
<filter id="filter0_d" x="26" y="185" width="377" height="106" filterUnits="userSpaceOnUse" color-interpolation-filters="sRGB">
<feFlood flood-opacity="0" result="BackgroundImageFix"/>
<feColorMatrix in="SourceAlpha" type="matrix" values="0 0 0 0 0 0 0 0 0 0 0 0 0 0 0 0 0 0 127 0"/>
<feOffset dy="4"/>
<feGaussianBlur stdDeviation="12.5"/>
<feColorMatrix type="matrix" values="0 0 0 0 0.0666667 0 0 0 0 0.0666667 0 0 0 0 0.0666667 0 0 0 0.05 0"/>
<feBlend mode="normal" in2="BackgroundImageFix" result="effect1_dropShadow"/>
<feBlend mode="normal" in="SourceGraphic" in2="effect1_dropShadow" result="shape"/>
</filter>
<filter id="filter1_d" x="26" y="243" width="377" height="106" filterUnits="userSpaceOnUse" color-interpolation-filters="sRGB">
<feFlood flood-opacity="0" result="BackgroundImageFix"/>
<feColorMatrix in="SourceAlpha" type="matrix" values="0 0 0 0 0 0 0 0 0 0 0 0 0 0 0 0 0 0 127 0"/>
<feOffset dy="4"/>
<feGaussianBlur stdDeviation="12.5"/>
<feColorMatrix type="matrix" values="0 0 0 0 0.0666667 0 0 0 0 0.0666667 0 0 0 0 0.0666667 0 0 0 0.05 0"/>
<feBlend mode="normal" in2="BackgroundImageFix" result="effect1_dropShadow"/>
<feBlend mode="normal" in="SourceGraphic" in2="effect1_dropShadow" result="shape"/>
</filter>
<clipPath id="clip0">
<rect width="375" height="812" fill="white" transform="translate(27 26)"/>
</clipPath>
</defs>
</svg>
