<svg width="431" height="864" viewBox="0 0 431 864" fill="none" xmlns="http://www.w3.org/2000/svg">
<g clip-path="url(#clip0)">
<rect width="375" height="812" transform="translate(28 27)" fill="#F7F7FC"/>
<rect x="28" y="27" width="375" height="281" fill="#0122AE"/>
<path d="M28 297C28 280.431 41.4315 267 58 267H373C389.569 267 403 280.431 403 297V831H28V297Z" fill="#F7F7FC"/>
<rect opacity="0.9" x="28" y="767" width="375" height="74" fill="#0122AE"/>
<path d="M70 792.88C70 791.927 70.4533 791.03 71.2212 790.464L80 784L88.7788 790.464C89.5467 791.03 90 791.927 90 792.88V803.5C90 804.881 88.8807 806 87.5 806H84C83.4477 806 83 805.552 83 805V799C83 798.724 82.7761 798.5 82.5 798.5H77.5C77.2239 798.5 77 798.724 77 799V805C77 805.552 76.5523 806 76 806H72.5C71.1193 806 70 804.881 70 803.5V792.88Z" stroke="#FFDE00" stroke-width="2" stroke-linecap="round" stroke-linejoin="round"/>
<path d="M67.672 817.926V827H65.852V823.139H61.965V827H60.145V817.926H61.965V821.657H65.852V817.926H67.672ZM73.4114 827.117C72.7181 827.117 72.0941 826.965 71.5394 826.662C70.9847 826.35 70.5471 825.912 70.2264 825.349C69.9144 824.786 69.7584 824.136 69.7584 823.399C69.7584 822.662 69.9187 822.012 70.2394 821.449C70.5687 820.886 71.0151 820.452 71.5784 820.149C72.1417 819.837 72.7701 819.681 73.4634 819.681C74.1567 819.681 74.7851 819.837 75.3484 820.149C75.9117 820.452 76.3537 820.886 76.6744 821.449C77.0037 822.012 77.1684 822.662 77.1684 823.399C77.1684 824.136 76.9994 824.786 76.6614 825.349C76.3321 825.912 75.8814 826.35 75.3094 826.662C74.7461 826.965 74.1134 827.117 73.4114 827.117ZM73.4114 825.531C73.7407 825.531 74.0484 825.453 74.3344 825.297C74.6291 825.132 74.8631 824.89 75.0364 824.569C75.2097 824.248 75.2964 823.858 75.2964 823.399C75.2964 822.714 75.1144 822.19 74.7504 821.826C74.3951 821.453 73.9574 821.267 73.4374 821.267C72.9174 821.267 72.4797 821.453 72.1244 821.826C71.7777 822.19 71.6044 822.714 71.6044 823.399C71.6044 824.084 71.7734 824.612 72.1114 824.985C72.4581 825.349 72.8914 825.531 73.4114 825.531ZM88.1974 819.694C89.0814 819.694 89.7921 819.967 90.3294 820.513C90.8754 821.05 91.1484 821.804 91.1484 822.775V827H89.3284V823.022C89.3284 822.459 89.1854 822.03 88.8994 821.735C88.6134 821.432 88.2234 821.28 87.7294 821.28C87.2354 821.28 86.8411 821.432 86.5464 821.735C86.2604 822.03 86.1174 822.459 86.1174 823.022V827H84.2974V823.022C84.2974 822.459 84.1544 822.03 83.8684 821.735C83.5824 821.432 83.1924 821.28 82.6984 821.28C82.1958 821.28 81.7971 821.432 81.5024 821.735C81.2164 822.03 81.0734 822.459 81.0734 823.022V827H79.2534V819.798H81.0734V820.669C81.3074 820.366 81.6064 820.127 81.9704 819.954C82.3431 819.781 82.7504 819.694 83.1924 819.694C83.7558 819.694 84.2584 819.815 84.7004 820.058C85.1424 820.292 85.4848 820.63 85.7274 821.072C85.9614 820.656 86.2994 820.322 86.7414 820.071C87.1921 819.82 87.6774 819.694 88.1974 819.694ZM100.321 823.243C100.321 823.503 100.303 823.737 100.269 823.945H95.0035C95.0468 824.465 95.2288 824.872 95.5495 825.167C95.8702 825.462 96.2645 825.609 96.7325 825.609C97.4085 825.609 97.8895 825.319 98.1755 824.738H100.139C99.9305 825.431 99.5318 826.003 98.9425 826.454C98.3532 826.896 97.6295 827.117 96.7715 827.117C96.0782 827.117 95.4542 826.965 94.8995 826.662C94.3535 826.35 93.9245 825.912 93.6125 825.349C93.3092 824.786 93.1575 824.136 93.1575 823.399C93.1575 822.654 93.3092 821.999 93.6125 821.436C93.9158 820.873 94.3405 820.439 94.8865 820.136C95.4325 819.833 96.0608 819.681 96.7715 819.681C97.4562 819.681 98.0672 819.828 98.6045 820.123C99.1505 820.418 99.5708 820.838 99.8655 821.384C100.169 821.921 100.321 822.541 100.321 823.243ZM98.4355 822.723C98.4268 822.255 98.2578 821.882 97.9285 821.605C97.5992 821.319 97.1962 821.176 96.7195 821.176C96.2688 821.176 95.8875 821.315 95.5755 821.592C95.2722 821.861 95.0858 822.238 95.0165 822.723H98.4355Z" fill="#FFDE00"/>
<path opacity="0.5" d="M127.761 825.557H130.751V827H125.941V817.926H127.761V825.557ZM135.856 827.117C135.162 827.117 134.538 826.965 133.984 826.662C133.429 826.35 132.991 825.912 132.671 825.349C132.359 824.786 132.203 824.136 132.203 823.399C132.203 822.662 132.363 822.012 132.684 821.449C133.013 820.886 133.459 820.452 134.023 820.149C134.586 819.837 135.214 819.681 135.908 819.681C136.601 819.681 137.229 819.837 137.793 820.149C138.356 820.452 138.798 820.886 139.119 821.449C139.448 822.012 139.613 822.662 139.613 823.399C139.613 824.136 139.444 824.786 139.106 825.349C138.776 825.912 138.326 826.35 137.754 826.662C137.19 826.965 136.558 827.117 135.856 827.117ZM135.856 825.531C136.185 825.531 136.493 825.453 136.779 825.297C137.073 825.132 137.307 824.89 137.481 824.569C137.654 824.248 137.741 823.858 137.741 823.399C137.741 822.714 137.559 822.19 137.195 821.826C136.839 821.453 136.402 821.267 135.882 821.267C135.362 821.267 134.924 821.453 134.569 821.826C134.222 822.19 134.049 822.714 134.049 823.399C134.049 824.084 134.218 824.612 134.556 824.985C134.902 825.349 135.336 825.531 135.856 825.531ZM141.23 823.373C141.23 822.645 141.373 821.999 141.659 821.436C141.953 820.873 142.348 820.439 142.842 820.136C143.344 819.833 143.903 819.681 144.519 819.681C145.056 819.681 145.524 819.789 145.923 820.006C146.33 820.223 146.655 820.496 146.898 820.825V819.798H148.731V827H146.898V825.947C146.664 826.285 146.339 826.567 145.923 826.792C145.515 827.009 145.043 827.117 144.506 827.117C143.899 827.117 143.344 826.961 142.842 826.649C142.348 826.337 141.953 825.899 141.659 825.336C141.373 824.764 141.23 824.11 141.23 823.373ZM146.898 823.399C146.898 822.957 146.811 822.58 146.638 822.268C146.464 821.947 146.23 821.705 145.936 821.54C145.641 821.367 145.325 821.28 144.987 821.28C144.649 821.28 144.337 821.362 144.051 821.527C143.765 821.692 143.531 821.934 143.349 822.255C143.175 822.567 143.089 822.94 143.089 823.373C143.089 823.806 143.175 824.188 143.349 824.517C143.531 824.838 143.765 825.085 144.051 825.258C144.345 825.431 144.657 825.518 144.987 825.518C145.325 825.518 145.641 825.436 145.936 825.271C146.23 825.098 146.464 824.855 146.638 824.543C146.811 824.222 146.898 823.841 146.898 823.399ZM155.249 819.694C156.107 819.694 156.801 819.967 157.329 820.513C157.858 821.05 158.122 821.804 158.122 822.775V827H156.302V823.022C156.302 822.45 156.159 822.012 155.873 821.709C155.587 821.397 155.197 821.241 154.703 821.241C154.201 821.241 153.802 821.397 153.507 821.709C153.221 822.012 153.078 822.45 153.078 823.022V827H151.258V819.798H153.078V820.695C153.321 820.383 153.629 820.14 154.001 819.967C154.383 819.785 154.799 819.694 155.249 819.694Z" fill="#EFF0F7"/>
<path opacity="0.5" d="M184.619 827L182.617 823.464H181.759V827H179.939V817.926H183.345C184.047 817.926 184.645 818.052 185.139 818.303C185.633 818.546 186.001 818.879 186.244 819.304C186.495 819.72 186.621 820.188 186.621 820.708C186.621 821.306 186.447 821.848 186.101 822.333C185.754 822.81 185.238 823.139 184.554 823.321L186.725 827H184.619ZM181.759 822.099H183.28C183.774 822.099 184.142 821.982 184.385 821.748C184.627 821.505 184.749 821.172 184.749 820.747C184.749 820.331 184.627 820.01 184.385 819.785C184.142 819.551 183.774 819.434 183.28 819.434H181.759V822.099ZM195.712 823.243C195.712 823.503 195.694 823.737 195.66 823.945H190.395C190.438 824.465 190.62 824.872 190.941 825.167C191.261 825.462 191.656 825.609 192.124 825.609C192.8 825.609 193.281 825.319 193.567 824.738H195.53C195.322 825.431 194.923 826.003 194.334 826.454C193.744 826.896 193.021 827.117 192.163 827.117C191.469 827.117 190.845 826.965 190.291 826.662C189.745 826.35 189.316 825.912 189.004 825.349C188.7 824.786 188.549 824.136 188.549 823.399C188.549 822.654 188.7 821.999 189.004 821.436C189.307 820.873 189.732 820.439 190.278 820.136C190.824 819.833 191.452 819.681 192.163 819.681C192.847 819.681 193.458 819.828 193.996 820.123C194.542 820.418 194.962 820.838 195.257 821.384C195.56 821.921 195.712 822.541 195.712 823.243ZM193.827 822.723C193.818 822.255 193.649 821.882 193.32 821.605C192.99 821.319 192.587 821.176 192.111 821.176C191.66 821.176 191.279 821.315 190.967 821.592C190.663 821.861 190.477 822.238 190.408 822.723H193.827ZM197.322 823.399C197.322 822.654 197.474 822.004 197.777 821.449C198.08 820.886 198.501 820.452 199.038 820.149C199.575 819.837 200.191 819.681 200.884 819.681C201.777 819.681 202.513 819.906 203.094 820.357C203.683 820.799 204.078 821.423 204.277 822.229H202.314C202.21 821.917 202.032 821.674 201.781 821.501C201.538 821.319 201.235 821.228 200.871 821.228C200.351 821.228 199.939 821.419 199.636 821.8C199.333 822.173 199.181 822.706 199.181 823.399C199.181 824.084 199.333 824.617 199.636 824.998C199.939 825.371 200.351 825.557 200.871 825.557C201.608 825.557 202.089 825.228 202.314 824.569H204.277C204.078 825.349 203.683 825.969 203.094 826.428C202.505 826.887 201.768 827.117 200.884 827.117C200.191 827.117 199.575 826.965 199.038 826.662C198.501 826.35 198.08 825.917 197.777 825.362C197.474 824.799 197.322 824.144 197.322 823.399ZM210.416 819.694C210.962 819.694 211.448 819.815 211.872 820.058C212.297 820.292 212.626 820.643 212.86 821.111C213.103 821.57 213.224 822.125 213.224 822.775V827H211.404V823.022C211.404 822.45 211.261 822.012 210.975 821.709C210.689 821.397 210.299 821.241 209.805 821.241C209.303 821.241 208.904 821.397 208.609 821.709C208.323 822.012 208.18 822.45 208.18 823.022V827H206.36V817.38H208.18V820.695C208.414 820.383 208.726 820.14 209.116 819.967C209.506 819.785 209.94 819.694 210.416 819.694ZM215.237 823.373C215.237 822.645 215.38 821.999 215.666 821.436C215.961 820.873 216.355 820.439 216.849 820.136C217.352 819.833 217.911 819.681 218.526 819.681C219.063 819.681 219.531 819.789 219.93 820.006C220.337 820.223 220.662 820.496 220.905 820.825V819.798H222.738V827H220.905V825.947C220.671 826.285 220.346 826.567 219.93 826.792C219.523 827.009 219.05 827.117 218.513 827.117C217.906 827.117 217.352 826.961 216.849 826.649C216.355 826.337 215.961 825.899 215.666 825.336C215.38 824.764 215.237 824.11 215.237 823.373ZM220.905 823.399C220.905 822.957 220.818 822.58 220.645 822.268C220.472 821.947 220.238 821.705 219.943 821.54C219.648 821.367 219.332 821.28 218.994 821.28C218.656 821.28 218.344 821.362 218.058 821.527C217.772 821.692 217.538 821.934 217.356 822.255C217.183 822.567 217.096 822.94 217.096 823.373C217.096 823.806 217.183 824.188 217.356 824.517C217.538 824.838 217.772 825.085 218.058 825.258C218.353 825.431 218.665 825.518 218.994 825.518C219.332 825.518 219.648 825.436 219.943 825.271C220.238 825.098 220.472 824.855 220.645 824.543C220.818 824.222 220.905 823.841 220.905 823.399ZM227.086 820.916C227.32 820.535 227.623 820.236 227.996 820.019C228.377 819.802 228.81 819.694 229.296 819.694V821.605H228.815C228.243 821.605 227.809 821.739 227.515 822.008C227.229 822.277 227.086 822.745 227.086 823.412V827H225.266V819.798H227.086V820.916ZM234.093 819.681C234.63 819.681 235.102 819.789 235.51 820.006C235.917 820.214 236.238 820.487 236.472 820.825V819.798H238.305V827.052C238.305 827.719 238.17 828.313 237.902 828.833C237.633 829.362 237.23 829.778 236.693 830.081C236.155 830.393 235.505 830.549 234.743 830.549C233.72 830.549 232.879 830.311 232.221 829.834C231.571 829.357 231.202 828.707 231.116 827.884H232.923C233.018 828.213 233.222 828.473 233.534 828.664C233.854 828.863 234.24 828.963 234.691 828.963C235.219 828.963 235.648 828.803 235.978 828.482C236.307 828.17 236.472 827.693 236.472 827.052V825.934C236.238 826.272 235.913 826.554 235.497 826.779C235.089 827.004 234.621 827.117 234.093 827.117C233.486 827.117 232.931 826.961 232.429 826.649C231.926 826.337 231.527 825.899 231.233 825.336C230.947 824.764 230.804 824.11 230.804 823.373C230.804 822.645 230.947 821.999 231.233 821.436C231.527 820.873 231.922 820.439 232.416 820.136C232.918 819.833 233.477 819.681 234.093 819.681ZM236.472 823.399C236.472 822.957 236.385 822.58 236.212 822.268C236.038 821.947 235.804 821.705 235.51 821.54C235.215 821.367 234.899 821.28 234.561 821.28C234.223 821.28 233.911 821.362 233.625 821.527C233.339 821.692 233.105 821.934 232.923 822.255C232.749 822.567 232.663 822.94 232.663 823.373C232.663 823.806 232.749 824.188 232.923 824.517C233.105 824.838 233.339 825.085 233.625 825.258C233.919 825.431 234.231 825.518 234.561 825.518C234.899 825.518 235.215 825.436 235.51 825.271C235.804 825.098 236.038 824.855 236.212 824.543C236.385 824.222 236.472 823.841 236.472 823.399ZM247.527 823.243C247.527 823.503 247.51 823.737 247.475 823.945H242.21C242.253 824.465 242.435 824.872 242.756 825.167C243.077 825.462 243.471 825.609 243.939 825.609C244.615 825.609 245.096 825.319 245.382 824.738H247.345C247.137 825.431 246.738 826.003 246.149 826.454C245.56 826.896 244.836 827.117 243.978 827.117C243.285 827.117 242.661 826.965 242.106 826.662C241.56 826.35 241.131 825.912 240.819 825.349C240.516 824.786 240.364 824.136 240.364 823.399C240.364 822.654 240.516 821.999 240.819 821.436C241.122 820.873 241.547 820.439 242.093 820.136C242.639 819.833 243.267 819.681 243.978 819.681C244.663 819.681 245.274 819.828 245.811 820.123C246.357 820.418 246.777 820.838 247.072 821.384C247.375 821.921 247.527 822.541 247.527 823.243ZM245.642 822.723C245.633 822.255 245.464 821.882 245.135 821.605C244.806 821.319 244.403 821.176 243.926 821.176C243.475 821.176 243.094 821.315 242.782 821.592C242.479 821.861 242.292 822.238 242.223 822.723H245.642Z" fill="#EFF0F7"/>
<g opacity="0.5">
<path fill-rule="evenodd" clip-rule="evenodd" d="M143.706 799.5H145.008V802.438H143.706V799.5Z" fill="#EFF0F7"/>
<path fill-rule="evenodd" clip-rule="evenodd" d="M143.706 799.5H145.008V802.438H143.706V799.5Z" fill="#EFF0F7"/>
<path fill-rule="evenodd" clip-rule="evenodd" d="M140.882 795H142.207V797.961H140.882V795Z" fill="#EFF0F7"/>
<path fill-rule="evenodd" clip-rule="evenodd" d="M140.882 795H142.207V797.961H140.882V795Z" fill="#EFF0F7"/>
<path fill-rule="evenodd" clip-rule="evenodd" d="M144.124 790.168C145.335 788.668 146.199 785.283 146.199 784.057C146.199 781.468 144.746 784.717 142.955 784.717C141.161 784.717 139.711 781.435 139.711 784.057C139.711 785.304 140.599 788.779 141.845 790.242C138.163 791.352 135.261 796.983 135.261 801.933C135.261 806.31 138.727 806.979 143 806.979C147.273 806.979 150.738 806.25 150.738 801.933C150.738 797.424 147.909 791.131 144.124 790.168ZM146.573 802.57H145.161V804.046H143.75V805.593H142.25V804.046H140.839V802.57L140.857 802.546H139.427V800.953H140.905V802.483L140.928 802.453H142.252V799.546H140.882V798.07H139.404V794.977H140.882V793.453H142.25V791.907H143.75V793.453H145.161V794.953H146.551V796.546H145.073V795.015L145.05 795.024H143.748V797.953H145.183V799.477H146.572V802.57H146.573Z" fill="#EFF0F7"/>
<path fill-rule="evenodd" clip-rule="evenodd" d="M144.124 790.168C145.335 788.668 146.199 785.283 146.199 784.057C146.199 781.468 144.746 784.717 142.955 784.717C141.161 784.717 139.711 781.435 139.711 784.057C139.711 785.304 140.599 788.779 141.845 790.242C138.163 791.352 135.261 796.983 135.261 801.933C135.261 806.31 138.727 806.979 143 806.979C147.273 806.979 150.738 806.25 150.738 801.933C150.738 797.424 147.909 791.131 144.124 790.168ZM146.573 802.57H145.161V804.046H143.75V805.593H142.25V804.046H140.839V802.57L140.857 802.546H139.427V800.953H140.905V802.483L140.928 802.453H142.252V799.546H140.882V798.07H139.404V794.977H140.882V793.453H142.25V791.907H143.75V793.453H145.161V794.953H146.551V796.546H145.073V795.015L145.05 795.024H143.748V797.953H145.183V799.477H146.572V802.57H146.573Z" fill="#EFF0F7"/>
</g>
<path opacity="0.5" d="M263.943 822.45C263.943 821.557 264.142 820.76 264.541 820.058C264.948 819.347 265.498 818.797 266.192 818.407C266.894 818.008 267.678 817.809 268.545 817.809C269.559 817.809 270.447 818.069 271.21 818.589C271.972 819.109 272.505 819.828 272.809 820.747H270.716C270.508 820.314 270.213 819.989 269.832 819.772C269.459 819.555 269.026 819.447 268.532 819.447C268.003 819.447 267.531 819.573 267.115 819.824C266.707 820.067 266.387 820.413 266.153 820.864C265.927 821.315 265.815 821.843 265.815 822.45C265.815 823.048 265.927 823.577 266.153 824.036C266.387 824.487 266.707 824.838 267.115 825.089C267.531 825.332 268.003 825.453 268.532 825.453C269.026 825.453 269.459 825.345 269.832 825.128C270.213 824.903 270.508 824.573 270.716 824.14H272.809C272.505 825.067 271.972 825.791 271.21 826.311C270.456 826.822 269.567 827.078 268.545 827.078C267.678 827.078 266.894 826.883 266.192 826.493C265.498 826.094 264.948 825.544 264.541 824.842C264.142 824.14 263.943 823.343 263.943 822.45ZM279.169 819.694C279.715 819.694 280.201 819.815 280.625 820.058C281.05 820.292 281.379 820.643 281.613 821.111C281.856 821.57 281.977 822.125 281.977 822.775V827H280.157V823.022C280.157 822.45 280.014 822.012 279.728 821.709C279.442 821.397 279.052 821.241 278.558 821.241C278.056 821.241 277.657 821.397 277.362 821.709C277.076 822.012 276.933 822.45 276.933 823.022V827H275.113V817.38H276.933V820.695C277.167 820.383 277.479 820.14 277.869 819.967C278.259 819.785 278.693 819.694 279.169 819.694ZM283.99 823.373C283.99 822.645 284.133 821.999 284.419 821.436C284.714 820.873 285.108 820.439 285.602 820.136C286.105 819.833 286.664 819.681 287.279 819.681C287.816 819.681 288.284 819.789 288.683 820.006C289.09 820.223 289.415 820.496 289.658 820.825V819.798H291.491V827H289.658V825.947C289.424 826.285 289.099 826.567 288.683 826.792C288.276 827.009 287.803 827.117 287.266 827.117C286.659 827.117 286.105 826.961 285.602 826.649C285.108 826.337 284.714 825.899 284.419 825.336C284.133 824.764 283.99 824.11 283.99 823.373ZM289.658 823.399C289.658 822.957 289.571 822.58 289.398 822.268C289.225 821.947 288.991 821.705 288.696 821.54C288.401 821.367 288.085 821.28 287.747 821.28C287.409 821.28 287.097 821.362 286.811 821.527C286.525 821.692 286.291 821.934 286.109 822.255C285.936 822.567 285.849 822.94 285.849 823.373C285.849 823.806 285.936 824.188 286.109 824.517C286.291 824.838 286.525 825.085 286.811 825.258C287.106 825.431 287.418 825.518 287.747 825.518C288.085 825.518 288.401 825.436 288.696 825.271C288.991 825.098 289.225 824.855 289.398 824.543C289.571 824.222 289.658 823.841 289.658 823.399ZM296.138 821.293V824.777C296.138 825.02 296.194 825.197 296.307 825.31C296.428 825.414 296.627 825.466 296.905 825.466H297.75V827H296.606C295.072 827 294.305 826.255 294.305 824.764V821.293H293.447V819.798H294.305V818.017H296.138V819.798H297.75V821.293H296.138ZM301.928 821.293V824.777C301.928 825.02 301.984 825.197 302.097 825.31C302.218 825.414 302.417 825.466 302.695 825.466H303.54V827H302.396C300.862 827 300.095 826.255 300.095 824.764V821.293H299.237V819.798H300.095V818.017H301.928V819.798H303.54V821.293H301.928ZM305.131 823.373C305.131 822.645 305.274 821.999 305.56 821.436C305.854 820.873 306.249 820.439 306.743 820.136C307.245 819.833 307.804 819.681 308.42 819.681C308.957 819.681 309.425 819.789 309.824 820.006C310.231 820.223 310.556 820.496 310.799 820.825V819.798H312.632V827H310.799V825.947C310.565 826.285 310.24 826.567 309.824 826.792C309.416 827.009 308.944 827.117 308.407 827.117C307.8 827.117 307.245 826.961 306.743 826.649C306.249 826.337 305.854 825.899 305.56 825.336C305.274 824.764 305.131 824.11 305.131 823.373ZM310.799 823.399C310.799 822.957 310.712 822.58 310.539 822.268C310.365 821.947 310.131 821.705 309.837 821.54C309.542 821.367 309.226 821.28 308.888 821.28C308.55 821.28 308.238 821.362 307.952 821.527C307.666 821.692 307.432 821.934 307.25 822.255C307.076 822.567 306.99 822.94 306.99 823.373C306.99 823.806 307.076 824.188 307.25 824.517C307.432 824.838 307.666 825.085 307.952 825.258C308.246 825.431 308.558 825.518 308.888 825.518C309.226 825.518 309.542 825.436 309.837 825.271C310.131 825.098 310.365 824.855 310.539 824.543C310.712 824.222 310.799 823.841 310.799 823.399Z" fill="#EFF0F7"/>
<g opacity="0.5">
<path d="M289 787H282C281.204 787 280.441 787.316 279.879 787.879C279.316 788.441 279 789.204 279 790V798C279 798.796 279.316 799.559 279.879 800.121C280.441 800.684 281.204 801 282 801L281 802V803H282L284 800.97L286 801V796H281V789H290V791H292V790C292 789.204 291.684 788.441 291.121 787.879C290.559 787.316 289.796 787 289 787ZM282 797C282.265 797 282.52 797.105 282.707 797.293C282.895 797.48 283 797.735 283 798C283 798.265 282.895 798.52 282.707 798.707C282.52 798.895 282.265 799 282 799C281.735 799 281.48 798.895 281.293 798.707C281.105 798.52 281 798.265 281 798C281 797.735 281.105 797.48 281.293 797.293C281.48 797.105 281.735 797 282 797ZM297.57 792.66C297.43 792.26 297.05 792 296.6 792H289.41C288.95 792 288.58 792.26 288.43 792.66L287 796.77V802.28C287 802.66 287.32 803 287.7 803H288.32C288.7 803 289 802.62 289 802.24V801H297V802.24C297 802.62 297.31 803 297.69 803H298.3C298.68 803 299 802.66 299 802.28V796.77L297.57 792.66ZM289.41 793H296.6L297.63 796H288.38L289.41 793ZM289 799C288.735 799 288.48 798.895 288.293 798.707C288.105 798.52 288 798.265 288 798C288 797.735 288.105 797.48 288.293 797.293C288.48 797.105 288.735 797 289 797C289.265 797 289.52 797.105 289.707 797.293C289.895 797.48 290 797.735 290 798C290 798.265 289.895 798.52 289.707 798.707C289.52 798.895 289.265 799 289 799ZM297 799C296.735 799 296.48 798.895 296.293 798.707C296.105 798.52 296 798.265 296 798C296 797.735 296.105 797.48 296.293 797.293C296.48 797.105 296.735 797 297 797C297.265 797 297.52 797.105 297.707 797.293C297.895 797.48 298 797.735 298 798C298 798.265 297.895 798.52 297.707 798.707C297.52 798.895 297.265 799 297 799Z" fill="#EFF0F7"/>
<path d="M289 787H282C281.204 787 280.441 787.316 279.879 787.879C279.316 788.441 279 789.204 279 790V798C279 798.796 279.316 799.559 279.879 800.121C280.441 800.684 281.204 801 282 801L281 802V803H282L284 800.97L286 801V796H281V789H290V791H292V790C292 789.204 291.684 788.441 291.121 787.879C290.559 787.316 289.796 787 289 787ZM282 797C282.265 797 282.52 797.105 282.707 797.293C282.895 797.48 283 797.735 283 798C283 798.265 282.895 798.52 282.707 798.707C282.52 798.895 282.265 799 282 799C281.735 799 281.48 798.895 281.293 798.707C281.105 798.52 281 798.265 281 798C281 797.735 281.105 797.48 281.293 797.293C281.48 797.105 281.735 797 282 797ZM297.57 792.66C297.43 792.26 297.05 792 296.6 792H289.41C288.95 792 288.58 792.26 288.43 792.66L287 796.77V802.28C287 802.66 287.32 803 287.7 803H288.32C288.7 803 289 802.62 289 802.24V801H297V802.24C297 802.62 297.31 803 297.69 803H298.3C298.68 803 299 802.66 299 802.28V796.77L297.57 792.66ZM289.41 793H296.6L297.63 796H288.38L289.41 793ZM289 799C288.735 799 288.48 798.895 288.293 798.707C288.105 798.52 288 798.265 288 798C288 797.735 288.105 797.48 288.293 797.293C288.48 797.105 288.735 797 289 797C289.265 797 289.52 797.105 289.707 797.293C289.895 797.48 290 797.735 290 798C290 798.265 289.895 798.52 289.707 798.707C289.52 798.895 289.265 799 289 799ZM297 799C296.735 799 296.48 798.895 296.293 798.707C296.105 798.52 296 798.265 296 798C296 797.735 296.105 797.48 296.293 797.293C296.48 797.105 296.735 797 297 797C297.265 797 297.52 797.105 297.707 797.293C297.895 797.48 298 797.735 298 798C298 798.265 297.895 798.52 297.707 798.707C297.52 798.895 297.265 799 297 799Z" fill="#EFF0F7"/>
</g>
<path opacity="0.5" d="M336.666 820.734C336.666 821.219 336.549 821.674 336.315 822.099C336.09 822.524 335.73 822.866 335.236 823.126C334.751 823.386 334.135 823.516 333.39 823.516H331.869V827H330.049V817.926H333.39C334.092 817.926 334.69 818.047 335.184 818.29C335.678 818.533 336.046 818.866 336.289 819.291C336.54 819.716 336.666 820.197 336.666 820.734ZM333.312 822.047C333.815 822.047 334.187 821.934 334.43 821.709C334.673 821.475 334.794 821.15 334.794 820.734C334.794 819.85 334.3 819.408 333.312 819.408H331.869V822.047H333.312ZM340.528 820.916C340.762 820.535 341.065 820.236 341.438 820.019C341.819 819.802 342.253 819.694 342.738 819.694V821.605H342.257C341.685 821.605 341.252 821.739 340.957 822.008C340.671 822.277 340.528 822.745 340.528 823.412V827H338.708V819.798H340.528V820.916ZM347.912 827.117C347.219 827.117 346.595 826.965 346.04 826.662C345.485 826.35 345.048 825.912 344.727 825.349C344.415 824.786 344.259 824.136 344.259 823.399C344.259 822.662 344.419 822.012 344.74 821.449C345.069 820.886 345.516 820.452 346.079 820.149C346.642 819.837 347.271 819.681 347.964 819.681C348.657 819.681 349.286 819.837 349.849 820.149C350.412 820.452 350.854 820.886 351.175 821.449C351.504 822.012 351.669 822.662 351.669 823.399C351.669 824.136 351.5 824.786 351.162 825.349C350.833 825.912 350.382 826.35 349.81 826.662C349.247 826.965 348.614 827.117 347.912 827.117ZM347.912 825.531C348.241 825.531 348.549 825.453 348.835 825.297C349.13 825.132 349.364 824.89 349.537 824.569C349.71 824.248 349.797 823.858 349.797 823.399C349.797 822.714 349.615 822.19 349.251 821.826C348.896 821.453 348.458 821.267 347.938 821.267C347.418 821.267 346.98 821.453 346.625 821.826C346.278 822.19 346.105 822.714 346.105 823.399C346.105 824.084 346.274 824.612 346.612 824.985C346.959 825.349 347.392 825.531 347.912 825.531ZM357.056 821.293H355.795V827H353.949V821.293H353.13V819.798H353.949V819.434C353.949 818.55 354.2 817.9 354.703 817.484C355.206 817.068 355.964 816.873 356.978 816.899V818.433C356.536 818.424 356.228 818.498 356.055 818.654C355.882 818.81 355.795 819.092 355.795 819.499V819.798H357.056V821.293ZM359.908 818.94C359.588 818.94 359.319 818.84 359.102 818.641C358.894 818.433 358.79 818.177 358.79 817.874C358.79 817.571 358.894 817.319 359.102 817.12C359.319 816.912 359.588 816.808 359.908 816.808C360.229 816.808 360.493 816.912 360.701 817.12C360.918 817.319 361.026 817.571 361.026 817.874C361.026 818.177 360.918 818.433 360.701 818.641C360.493 818.84 360.229 818.94 359.908 818.94ZM360.805 819.798V827H358.985V819.798H360.805ZM365.174 817.38V827H363.354V817.38H365.174ZM374.417 823.243C374.417 823.503 374.399 823.737 374.365 823.945H369.1C369.143 824.465 369.325 824.872 369.646 825.167C369.966 825.462 370.361 825.609 370.829 825.609C371.505 825.609 371.986 825.319 372.272 824.738H374.235C374.027 825.431 373.628 826.003 373.039 826.454C372.449 826.896 371.726 827.117 370.868 827.117C370.174 827.117 369.55 826.965 368.996 826.662C368.45 826.35 368.021 825.912 367.709 825.349C367.405 824.786 367.254 824.136 367.254 823.399C367.254 822.654 367.405 821.999 367.709 821.436C368.012 820.873 368.437 820.439 368.983 820.136C369.529 819.833 370.157 819.681 370.868 819.681C371.552 819.681 372.163 819.828 372.701 820.123C373.247 820.418 373.667 820.838 373.962 821.384C374.265 821.921 374.417 822.541 374.417 823.243ZM372.532 822.723C372.523 822.255 372.354 821.882 372.025 821.605C371.695 821.319 371.292 821.176 370.816 821.176C370.365 821.176 369.984 821.315 369.672 821.592C369.368 821.861 369.182 822.238 369.113 822.723H372.532Z" fill="#EFF0F7"/>
<g opacity="0.5">
<path d="M343 804.5L343.165 803.436C343.374 802.095 344.248 800.947 345.545 800.547C347.137 800.055 349.491 799.5 352 799.5C354.509 799.5 356.863 800.055 358.455 800.547C359.752 800.947 360.626 802.095 360.835 803.436L361 804.5" stroke="#EFF0F7" stroke-width="2" stroke-linecap="round" stroke-linejoin="round"/>
<path d="M352 795C354.761 795 357 792.761 357 790C357 787.239 354.761 785 352 785C349.239 785 347 787.239 347 790C347 792.761 349.239 795 352 795Z" stroke="#EFF0F7" stroke-width="2" stroke-linecap="round" stroke-linejoin="round"/>
</g>
<g opacity="0.5">
<path d="M211.302 805.57H214.044C214.131 805.57 214.214 805.536 214.276 805.474C214.337 805.413 214.372 805.329 214.372 805.242C214.372 805.155 214.337 805.072 214.276 805.01C214.214 804.949 214.131 804.914 214.044 804.914H211.302C211.215 804.914 211.131 804.949 211.07 805.01C211.008 805.072 210.974 805.155 210.974 805.242C210.974 805.329 211.008 805.413 211.07 805.474C211.131 805.536 211.215 805.57 211.302 805.57Z" fill="#EFF0F7"/>
<path d="M217.854 784.43H217.08C216.993 784.43 216.91 784.464 216.848 784.526C216.787 784.587 216.752 784.671 216.752 784.758C216.752 784.845 216.787 784.928 216.848 784.99C216.91 785.051 216.993 785.086 217.08 785.086H217.854C217.941 785.086 218.024 785.051 218.086 784.99C218.147 784.928 218.182 784.845 218.182 784.758C218.182 784.671 218.147 784.587 218.086 784.526C218.024 784.464 217.941 784.43 217.854 784.43Z" fill="#EFF0F7"/>
<path d="M226.265 789.281H219.938V784.078C219.937 783.792 219.824 783.518 219.622 783.316C219.42 783.114 219.146 783 218.86 783H206.485C206.199 783 205.925 783.114 205.723 783.316C205.52 783.518 205.407 783.792 205.406 784.078V805.922C205.407 806.208 205.52 806.482 205.722 806.684C205.924 806.886 206.199 807 206.484 807H218.859C219.145 807 219.419 806.886 219.621 806.684C219.824 806.482 219.937 806.208 219.938 805.922V800.109L221.622 798.425H226.264C226.351 798.425 226.435 798.391 226.496 798.329C226.558 798.268 226.592 798.184 226.592 798.097V789.609C226.592 789.522 226.558 789.439 226.496 789.378C226.435 789.316 226.352 789.281 226.265 789.281ZM212.955 798.426H217.598L219.281 800.11V803.485H206.062V786.516H219.281V789.281H212.955C212.868 789.281 212.785 789.316 212.723 789.377C212.662 789.439 212.627 789.522 212.627 789.609V798.098C212.627 798.185 212.662 798.268 212.723 798.33C212.785 798.391 212.868 798.426 212.955 798.426ZM206.062 784.078C206.063 783.966 206.107 783.859 206.186 783.78C206.265 783.701 206.373 783.656 206.484 783.656H218.859C218.971 783.656 219.078 783.701 219.158 783.78C219.237 783.859 219.281 783.966 219.281 784.078V785.859H206.062V784.078ZM219.281 805.922C219.281 806.034 219.237 806.141 219.158 806.22C219.078 806.299 218.971 806.344 218.859 806.344H206.484C206.373 806.344 206.265 806.299 206.186 806.22C206.107 806.141 206.063 806.034 206.062 805.922V804.141H219.281V805.922ZM225.938 797.77H221.487C221.4 797.77 221.316 797.804 221.255 797.866L219.61 799.51L217.966 797.866C217.904 797.804 217.821 797.77 217.734 797.77H213.284V789.938H225.938V797.77Z" fill="#EFF0F7"/>
<path d="M215.871 792.842H217.182C217.269 792.842 217.353 792.808 217.414 792.746C217.476 792.685 217.51 792.601 217.51 792.514C217.51 792.427 217.476 792.344 217.414 792.282C217.353 792.221 217.269 792.186 217.182 792.186H216.475V791.697C216.475 791.61 216.44 791.527 216.379 791.465C216.317 791.404 216.234 791.369 216.147 791.369C216.06 791.369 215.976 791.404 215.915 791.465C215.853 791.527 215.819 791.61 215.819 791.697V792.189C215.54 792.202 215.277 792.323 215.084 792.525C214.891 792.727 214.784 792.995 214.783 793.274V793.844C214.783 793.931 214.818 794.015 214.879 794.076C214.941 794.138 215.024 794.172 215.111 794.172H216.854V794.414C216.854 794.528 216.808 794.638 216.727 794.719C216.647 794.8 216.537 794.845 216.423 794.845H215.111C215.024 794.845 214.941 794.88 214.879 794.941C214.818 795.003 214.783 795.086 214.783 795.173C214.783 795.26 214.818 795.344 214.879 795.405C214.941 795.467 215.024 795.502 215.111 795.502H215.819V796.009C215.819 796.096 215.853 796.18 215.915 796.241C215.976 796.303 216.06 796.337 216.147 796.337C216.234 796.337 216.317 796.303 216.379 796.241C216.44 796.18 216.475 796.096 216.475 796.009V795.499C216.754 795.486 217.017 795.365 217.209 795.163C217.402 794.961 217.51 794.693 217.51 794.414V793.844C217.51 793.757 217.476 793.674 217.414 793.612C217.353 793.551 217.269 793.516 217.182 793.516H215.439V793.274C215.44 793.16 215.485 793.05 215.566 792.969C215.647 792.888 215.757 792.842 215.871 792.842Z" fill="#EFF0F7"/>
<path d="M219.281 791.697C219.281 791.784 219.316 791.868 219.377 791.929C219.439 791.991 219.522 792.025 219.609 792.025H224.556C224.643 792.025 224.727 791.991 224.788 791.929C224.85 791.868 224.884 791.784 224.884 791.697C224.884 791.61 224.85 791.527 224.788 791.465C224.727 791.404 224.643 791.369 224.556 791.369H219.61C219.567 791.369 219.524 791.377 219.484 791.394C219.444 791.41 219.408 791.434 219.378 791.465C219.347 791.495 219.323 791.532 219.306 791.571C219.29 791.611 219.281 791.654 219.281 791.697Z" fill="#EFF0F7"/>
<path d="M224.557 793.516H219.61C219.523 793.516 219.439 793.551 219.378 793.612C219.316 793.674 219.282 793.757 219.282 793.844C219.282 793.931 219.316 794.015 219.378 794.076C219.439 794.138 219.523 794.172 219.61 794.172H224.557C224.644 794.172 224.727 794.138 224.789 794.076C224.85 794.015 224.885 793.931 224.885 793.844C224.885 793.757 224.85 793.674 224.789 793.612C224.727 793.551 224.644 793.516 224.557 793.516Z" fill="#EFF0F7"/>
<path d="M222.083 795.663H219.61C219.523 795.663 219.439 795.697 219.378 795.759C219.316 795.82 219.282 795.904 219.282 795.991C219.282 796.078 219.316 796.161 219.378 796.223C219.439 796.284 219.523 796.319 219.61 796.319H222.083C222.17 796.319 222.254 796.284 222.315 796.223C222.377 796.161 222.411 796.078 222.411 795.991C222.411 795.904 222.377 795.82 222.315 795.759C222.254 795.697 222.17 795.663 222.083 795.663Z" fill="#EFF0F7"/>
</g>
<line x1="52" y1="398" x2="378" y2="398" stroke="#D6D8E7" stroke-width="2"/>
<path d="M76.688 359.112C76.688 360.04 76.368 360.813 75.728 361.432C75.0987 362.04 74.1333 362.344 72.832 362.344H70.688V367H69.232V355.848H72.832C74.0907 355.848 75.0453 356.152 75.696 356.76C76.3573 357.368 76.688 358.152 76.688 359.112ZM72.832 361.144C73.6427 361.144 74.24 360.968 74.624 360.616C75.008 360.264 75.2 359.763 75.2 359.112C75.2 357.736 74.4107 357.048 72.832 357.048H70.688V361.144H72.832ZM83.5996 358.072C84.261 358.072 84.8583 358.216 85.3916 358.504C85.925 358.781 86.341 359.203 86.6396 359.768C86.949 360.333 87.1036 361.021 87.1036 361.832V367H85.6636V362.04C85.6636 361.165 85.445 360.499 85.0076 360.04C84.5703 359.571 83.973 359.336 83.2156 359.336C82.4476 359.336 81.8343 359.576 81.3756 360.056C80.9276 360.536 80.7036 361.235 80.7036 362.152V367H79.2476V355.16H80.7036V359.48C80.9916 359.032 81.3863 358.685 81.8876 358.44C82.3996 358.195 82.9703 358.072 83.5996 358.072ZM94.056 367.144C93.2347 367.144 92.488 366.957 91.816 366.584C91.1547 366.211 90.632 365.683 90.248 365C89.8747 364.307 89.688 363.507 89.688 362.6C89.688 361.704 89.88 360.915 90.264 360.232C90.6587 359.539 91.192 359.011 91.864 358.648C92.536 358.275 93.288 358.088 94.12 358.088C94.952 358.088 95.704 358.275 96.376 358.648C97.048 359.011 97.576 359.533 97.96 360.216C98.3547 360.899 98.552 361.693 98.552 362.6C98.552 363.507 98.3493 364.307 97.944 365C97.5493 365.683 97.0107 366.211 96.328 366.584C95.6453 366.957 94.888 367.144 94.056 367.144ZM94.056 365.864C94.5787 365.864 95.0693 365.741 95.528 365.496C95.9867 365.251 96.3547 364.883 96.632 364.392C96.92 363.901 97.064 363.304 97.064 362.6C97.064 361.896 96.9253 361.299 96.648 360.808C96.3707 360.317 96.008 359.955 95.56 359.72C95.112 359.475 94.6267 359.352 94.104 359.352C93.5707 359.352 93.08 359.475 92.632 359.72C92.1947 359.955 91.8427 360.317 91.576 360.808C91.3093 361.299 91.176 361.896 91.176 362.6C91.176 363.315 91.304 363.917 91.56 364.408C91.8267 364.899 92.1787 365.267 92.616 365.512C93.0533 365.747 93.5333 365.864 94.056 365.864ZM105.488 358.072C106.555 358.072 107.419 358.397 108.08 359.048C108.742 359.688 109.072 360.616 109.072 361.832V367H107.632V362.04C107.632 361.165 107.414 360.499 106.976 360.04C106.539 359.571 105.942 359.336 105.184 359.336C104.416 359.336 103.803 359.576 103.344 360.056C102.896 360.536 102.672 361.235 102.672 362.152V367H101.216V358.232H102.672V359.48C102.96 359.032 103.35 358.685 103.84 358.44C104.342 358.195 104.891 358.072 105.488 358.072ZM120.201 362.28C120.201 362.557 120.185 362.851 120.153 363.16H113.145C113.198 364.024 113.491 364.701 114.025 365.192C114.569 365.672 115.225 365.912 115.993 365.912C116.622 365.912 117.145 365.768 117.561 365.48C117.987 365.181 118.286 364.787 118.457 364.296H120.025C119.79 365.139 119.321 365.827 118.617 366.36C117.913 366.883 117.038 367.144 115.993 367.144C115.161 367.144 114.414 366.957 113.753 366.584C113.102 366.211 112.59 365.683 112.217 365C111.843 364.307 111.657 363.507 111.657 362.6C111.657 361.693 111.838 360.899 112.201 360.216C112.563 359.533 113.07 359.011 113.721 358.648C114.382 358.275 115.139 358.088 115.993 358.088C116.825 358.088 117.561 358.269 118.201 358.632C118.841 358.995 119.331 359.496 119.673 360.136C120.025 360.765 120.201 361.48 120.201 362.28ZM118.697 361.976C118.697 361.421 118.574 360.947 118.329 360.552C118.083 360.147 117.747 359.843 117.321 359.64C116.905 359.427 116.441 359.32 115.929 359.32C115.193 359.32 114.563 359.555 114.041 360.024C113.529 360.493 113.235 361.144 113.161 361.976H118.697ZM136.656 367H135.2L129.344 358.12V367H127.888V355.832H129.344L135.2 364.696V355.832H136.656V367ZM147.664 358.232V367H146.208V365.704C145.931 366.152 145.542 366.504 145.04 366.76C144.55 367.005 144.006 367.128 143.408 367.128C142.726 367.128 142.112 366.989 141.568 366.712C141.024 366.424 140.592 365.997 140.272 365.432C139.963 364.867 139.808 364.179 139.808 363.368V358.232H141.248V363.176C141.248 364.04 141.467 364.707 141.904 365.176C142.342 365.635 142.939 365.864 143.696 365.864C144.475 365.864 145.088 365.624 145.536 365.144C145.984 364.664 146.208 363.965 146.208 363.048V358.232H147.664ZM161.417 358.072C162.099 358.072 162.707 358.216 163.241 358.504C163.774 358.781 164.195 359.203 164.505 359.768C164.814 360.333 164.969 361.021 164.969 361.832V367H163.529V362.04C163.529 361.165 163.31 360.499 162.873 360.04C162.446 359.571 161.865 359.336 161.129 359.336C160.371 359.336 159.769 359.581 159.321 360.072C158.873 360.552 158.649 361.251 158.649 362.168V367H157.209V362.04C157.209 361.165 156.99 360.499 156.553 360.04C156.126 359.571 155.545 359.336 154.809 359.336C154.051 359.336 153.449 359.581 153.001 360.072C152.553 360.552 152.329 361.251 152.329 362.168V367H150.873V358.232H152.329V359.496C152.617 359.037 153.001 358.685 153.481 358.44C153.971 358.195 154.51 358.072 155.097 358.072C155.833 358.072 156.483 358.237 157.049 358.568C157.614 358.899 158.035 359.384 158.313 360.024C158.558 359.405 158.963 358.925 159.529 358.584C160.094 358.243 160.723 358.072 161.417 358.072ZM169.563 359.864C169.862 359.341 170.299 358.915 170.875 358.584C171.451 358.253 172.107 358.088 172.843 358.088C173.632 358.088 174.342 358.275 174.971 358.648C175.6 359.021 176.096 359.549 176.459 360.232C176.822 360.904 177.003 361.688 177.003 362.584C177.003 363.469 176.822 364.259 176.459 364.952C176.096 365.645 175.595 366.184 174.955 366.568C174.326 366.952 173.622 367.144 172.843 367.144C172.086 367.144 171.419 366.979 170.843 366.648C170.278 366.317 169.851 365.896 169.563 365.384V367H168.107V355.16H169.563V359.864ZM175.515 362.584C175.515 361.923 175.382 361.347 175.115 360.856C174.848 360.365 174.486 359.992 174.027 359.736C173.579 359.48 173.083 359.352 172.539 359.352C172.006 359.352 171.51 359.485 171.051 359.752C170.603 360.008 170.24 360.387 169.963 360.888C169.696 361.379 169.563 361.949 169.563 362.6C169.563 363.261 169.696 363.843 169.963 364.344C170.24 364.835 170.603 365.213 171.051 365.48C171.51 365.736 172.006 365.864 172.539 365.864C173.083 365.864 173.579 365.736 174.027 365.48C174.486 365.213 174.848 364.835 175.115 364.344C175.382 363.843 175.515 363.256 175.515 362.584ZM187.67 362.28C187.67 362.557 187.654 362.851 187.622 363.16H180.614C180.667 364.024 180.96 364.701 181.494 365.192C182.038 365.672 182.694 365.912 183.462 365.912C184.091 365.912 184.614 365.768 185.03 365.48C185.456 365.181 185.755 364.787 185.926 364.296H187.494C187.259 365.139 186.79 365.827 186.086 366.36C185.382 366.883 184.507 367.144 183.462 367.144C182.63 367.144 181.883 366.957 181.222 366.584C180.571 366.211 180.059 365.683 179.686 365C179.312 364.307 179.126 363.507 179.126 362.6C179.126 361.693 179.307 360.899 179.67 360.216C180.032 359.533 180.539 359.011 181.19 358.648C181.851 358.275 182.608 358.088 183.462 358.088C184.294 358.088 185.03 358.269 185.67 358.632C186.31 358.995 186.8 359.496 187.142 360.136C187.494 360.765 187.67 361.48 187.67 362.28ZM186.166 361.976C186.166 361.421 186.043 360.947 185.798 360.552C185.552 360.147 185.216 359.843 184.79 359.64C184.374 359.427 183.91 359.32 183.398 359.32C182.662 359.32 182.032 359.555 181.51 360.024C180.998 360.493 180.704 361.144 180.63 361.976H186.166ZM191.797 359.656C192.053 359.155 192.416 358.765 192.885 358.488C193.365 358.211 193.947 358.072 194.629 358.072V359.576H194.245C192.613 359.576 191.797 360.461 191.797 362.232V367H190.341V358.232H191.797V359.656Z" fill="#A0A3BD"/>
<line x1="52" y1="550" x2="378" y2="550" stroke="#D6D8E7" stroke-width="2"/>
<path d="M76.096 507.848V509.032H73.056V519H71.6V509.032H68.544V507.848H76.096ZM80.0943 511.656C80.3503 511.155 80.7129 510.765 81.1823 510.488C81.6623 510.211 82.2436 510.072 82.9263 510.072V511.576H82.5423C80.9103 511.576 80.0943 512.461 80.0943 514.232V519H78.6383V510.232H80.0943V511.656ZM84.813 514.584C84.813 513.688 84.9943 512.904 85.357 512.232C85.7197 511.549 86.2157 511.021 86.845 510.648C87.485 510.275 88.1943 510.088 88.973 510.088C89.741 510.088 90.4077 510.253 90.973 510.584C91.5383 510.915 91.9597 511.331 92.237 511.832V510.232H93.709V519H92.237V517.368C91.949 517.88 91.517 518.307 90.941 518.648C90.3757 518.979 89.7143 519.144 88.957 519.144C88.1783 519.144 87.4743 518.952 86.845 518.568C86.2157 518.184 85.7197 517.645 85.357 516.952C84.9943 516.259 84.813 515.469 84.813 514.584ZM92.237 514.6C92.237 513.939 92.1037 513.363 91.837 512.872C91.5703 512.381 91.2077 512.008 90.749 511.752C90.301 511.485 89.805 511.352 89.261 511.352C88.717 511.352 88.221 511.48 87.773 511.736C87.325 511.992 86.9677 512.365 86.701 512.856C86.4343 513.347 86.301 513.923 86.301 514.584C86.301 515.256 86.4343 515.843 86.701 516.344C86.9677 516.835 87.325 517.213 87.773 517.48C88.221 517.736 88.717 517.864 89.261 517.864C89.805 517.864 90.301 517.736 90.749 517.48C91.2077 517.213 91.5703 516.835 91.837 516.344C92.1037 515.843 92.237 515.261 92.237 514.6ZM101.192 510.072C102.258 510.072 103.122 510.397 103.784 511.048C104.445 511.688 104.776 512.616 104.776 513.832V519H103.336V514.04C103.336 513.165 103.117 512.499 102.68 512.04C102.242 511.571 101.645 511.336 100.888 511.336C100.12 511.336 99.5062 511.576 99.0475 512.056C98.5995 512.536 98.3755 513.235 98.3755 514.152V519H96.9195V510.232H98.3755V511.48C98.6635 511.032 99.0528 510.685 99.5435 510.44C100.045 510.195 100.594 510.072 101.192 510.072ZM111.008 519.144C110.336 519.144 109.733 519.032 109.2 518.808C108.667 518.573 108.245 518.253 107.936 517.848C107.627 517.432 107.456 516.957 107.424 516.424H108.928C108.971 516.861 109.173 517.219 109.536 517.496C109.909 517.773 110.395 517.912 110.992 517.912C111.547 517.912 111.984 517.789 112.304 517.544C112.624 517.299 112.784 516.989 112.784 516.616C112.784 516.232 112.613 515.949 112.272 515.768C111.931 515.576 111.403 515.389 110.688 515.208C110.037 515.037 109.504 514.867 109.088 514.696C108.683 514.515 108.331 514.253 108.032 513.912C107.744 513.56 107.6 513.101 107.6 512.536C107.6 512.088 107.733 511.677 108 511.304C108.267 510.931 108.645 510.637 109.136 510.424C109.627 510.2 110.187 510.088 110.816 510.088C111.787 510.088 112.571 510.333 113.168 510.824C113.765 511.315 114.085 511.987 114.128 512.84H112.672C112.64 512.381 112.453 512.013 112.112 511.736C111.781 511.459 111.333 511.32 110.768 511.32C110.245 511.32 109.829 511.432 109.52 511.656C109.211 511.88 109.056 512.173 109.056 512.536C109.056 512.824 109.147 513.064 109.328 513.256C109.52 513.437 109.755 513.587 110.032 513.704C110.32 513.811 110.715 513.933 111.216 514.072C111.845 514.243 112.357 514.413 112.752 514.584C113.147 514.744 113.483 514.989 113.76 515.32C114.048 515.651 114.197 516.083 114.208 516.616C114.208 517.096 114.075 517.528 113.808 517.912C113.541 518.296 113.163 518.6 112.672 518.824C112.192 519.037 111.637 519.144 111.008 519.144ZM116.469 514.584C116.469 513.688 116.651 512.904 117.013 512.232C117.376 511.549 117.872 511.021 118.501 510.648C119.141 510.275 119.851 510.088 120.629 510.088C121.397 510.088 122.064 510.253 122.629 510.584C123.195 510.915 123.616 511.331 123.893 511.832V510.232H125.365V519H123.893V517.368C123.605 517.88 123.173 518.307 122.597 518.648C122.032 518.979 121.371 519.144 120.613 519.144C119.835 519.144 119.131 518.952 118.501 518.568C117.872 518.184 117.376 517.645 117.013 516.952C116.651 516.259 116.469 515.469 116.469 514.584ZM123.893 514.6C123.893 513.939 123.76 513.363 123.493 512.872C123.227 512.381 122.864 512.008 122.405 511.752C121.957 511.485 121.461 511.352 120.917 511.352C120.373 511.352 119.877 511.48 119.429 511.736C118.981 511.992 118.624 512.365 118.357 512.856C118.091 513.347 117.957 513.923 117.957 514.584C117.957 515.256 118.091 515.843 118.357 516.344C118.624 516.835 118.981 517.213 119.429 517.48C119.877 517.736 120.373 517.864 120.917 517.864C121.461 517.864 121.957 517.736 122.405 517.48C122.864 517.213 123.227 516.835 123.493 516.344C123.76 515.843 123.893 515.261 123.893 514.6ZM128.032 514.6C128.032 513.693 128.213 512.904 128.576 512.232C128.938 511.549 129.44 511.021 130.08 510.648C130.73 510.275 131.472 510.088 132.304 510.088C133.381 510.088 134.266 510.349 134.96 510.872C135.664 511.395 136.128 512.12 136.352 513.048H134.784C134.634 512.515 134.341 512.093 133.904 511.784C133.477 511.475 132.944 511.32 132.304 511.32C131.472 511.32 130.8 511.608 130.288 512.184C129.776 512.749 129.52 513.555 129.52 514.6C129.52 515.656 129.776 516.472 130.288 517.048C130.8 517.624 131.472 517.912 132.304 517.912C132.944 517.912 133.477 517.763 133.904 517.464C134.33 517.165 134.624 516.739 134.784 516.184H136.352C136.117 517.08 135.648 517.8 134.944 518.344C134.24 518.877 133.36 519.144 132.304 519.144C131.472 519.144 130.73 518.957 130.08 518.584C129.44 518.211 128.938 517.683 128.576 517C128.213 516.317 128.032 515.517 128.032 514.6ZM140.821 511.432V516.6C140.821 517.027 140.911 517.331 141.093 517.512C141.274 517.683 141.589 517.768 142.036 517.768H143.109V519H141.797C140.986 519 140.378 518.813 139.973 518.44C139.567 518.067 139.365 517.453 139.365 516.6V511.432H138.229V510.232H139.365V508.024H140.821V510.232H143.109V511.432H140.821ZM146.375 508.808C146.097 508.808 145.863 508.712 145.671 508.52C145.479 508.328 145.383 508.093 145.383 507.816C145.383 507.539 145.479 507.304 145.671 507.112C145.863 506.92 146.097 506.824 146.375 506.824C146.641 506.824 146.865 506.92 147.047 507.112C147.239 507.304 147.335 507.539 147.335 507.816C147.335 508.093 147.239 508.328 147.047 508.52C146.865 508.712 146.641 508.808 146.375 508.808ZM147.079 510.232V519H145.623V510.232H147.079ZM154.134 519.144C153.313 519.144 152.566 518.957 151.894 518.584C151.233 518.211 150.71 517.683 150.326 517C149.953 516.307 149.766 515.507 149.766 514.6C149.766 513.704 149.958 512.915 150.342 512.232C150.737 511.539 151.27 511.011 151.942 510.648C152.614 510.275 153.366 510.088 154.198 510.088C155.03 510.088 155.782 510.275 156.454 510.648C157.126 511.011 157.654 511.533 158.038 512.216C158.433 512.899 158.63 513.693 158.63 514.6C158.63 515.507 158.427 516.307 158.022 517C157.627 517.683 157.089 518.211 156.406 518.584C155.723 518.957 154.966 519.144 154.134 519.144ZM154.134 517.864C154.657 517.864 155.147 517.741 155.606 517.496C156.065 517.251 156.433 516.883 156.71 516.392C156.998 515.901 157.142 515.304 157.142 514.6C157.142 513.896 157.003 513.299 156.726 512.808C156.449 512.317 156.086 511.955 155.638 511.72C155.19 511.475 154.705 511.352 154.182 511.352C153.649 511.352 153.158 511.475 152.71 511.72C152.273 511.955 151.921 512.317 151.654 512.808C151.387 513.299 151.254 513.896 151.254 514.6C151.254 515.315 151.382 515.917 151.638 516.408C151.905 516.899 152.257 517.267 152.694 517.512C153.131 517.747 153.611 517.864 154.134 517.864ZM165.567 510.072C166.633 510.072 167.497 510.397 168.159 511.048C168.82 511.688 169.151 512.616 169.151 513.832V519H167.711V514.04C167.711 513.165 167.492 512.499 167.055 512.04C166.617 511.571 166.02 511.336 165.263 511.336C164.495 511.336 163.881 511.576 163.423 512.056C162.975 512.536 162.751 513.235 162.751 514.152V519H161.295V510.232H162.751V511.48C163.039 511.032 163.428 510.685 163.919 510.44C164.42 510.195 164.969 510.072 165.567 510.072ZM184.751 511.112C184.751 512.04 184.431 512.813 183.791 513.432C183.161 514.04 182.196 514.344 180.895 514.344H178.751V519H177.295V507.848H180.895C182.153 507.848 183.108 508.152 183.759 508.76C184.42 509.368 184.751 510.152 184.751 511.112ZM180.895 513.144C181.705 513.144 182.303 512.968 182.687 512.616C183.071 512.264 183.263 511.763 183.263 511.112C183.263 509.736 182.473 509.048 180.895 509.048H178.751V513.144H180.895ZM188.062 508.808C187.785 508.808 187.55 508.712 187.358 508.52C187.166 508.328 187.07 508.093 187.07 507.816C187.07 507.539 187.166 507.304 187.358 507.112C187.55 506.92 187.785 506.824 188.062 506.824C188.329 506.824 188.553 506.92 188.734 507.112C188.926 507.304 189.022 507.539 189.022 507.816C189.022 508.093 188.926 508.328 188.734 508.52C188.553 508.712 188.329 508.808 188.062 508.808ZM188.766 510.232V519H187.31V510.232H188.766ZM196.27 510.072C197.336 510.072 198.2 510.397 198.862 511.048C199.523 511.688 199.854 512.616 199.854 513.832V519H198.414V514.04C198.414 513.165 198.195 512.499 197.758 512.04C197.32 511.571 196.723 511.336 195.966 511.336C195.198 511.336 194.584 511.576 194.126 512.056C193.678 512.536 193.454 513.235 193.454 514.152V519H191.998V510.232H193.454V511.48C193.742 511.032 194.131 510.685 194.622 510.44C195.123 510.195 195.672 510.072 196.27 510.072Z" fill="#A0A3BD"/>
<line x1="52" y1="474" x2="216" y2="474" stroke="#D6D8E7" stroke-width="2"/>
<path d="M75.824 440.52H70.96L70.064 443H68.528L72.56 431.912H74.24L78.256 443H76.72L75.824 440.52ZM75.408 439.336L73.392 433.704L71.376 439.336H75.408ZM91.3073 434.072C91.9899 434.072 92.5979 434.216 93.1313 434.504C93.6646 434.781 94.0859 435.203 94.3953 435.768C94.7046 436.333 94.8593 437.021 94.8593 437.832V443H93.4193V438.04C93.4193 437.165 93.2006 436.499 92.7633 436.04C92.3366 435.571 91.7553 435.336 91.0193 435.336C90.2619 435.336 89.6593 435.581 89.2113 436.072C88.7633 436.552 88.5393 437.251 88.5393 438.168V443H87.0993V438.04C87.0993 437.165 86.8806 436.499 86.4433 436.04C86.0166 435.571 85.4353 435.336 84.6993 435.336C83.9419 435.336 83.3393 435.581 82.8913 436.072C82.4433 436.552 82.2193 437.251 82.2193 438.168V443H80.7633V434.232H82.2193V435.496C82.5073 435.037 82.8913 434.685 83.3713 434.44C83.8619 434.195 84.4006 434.072 84.9873 434.072C85.7233 434.072 86.3739 434.237 86.9393 434.568C87.5046 434.899 87.9259 435.384 88.2033 436.024C88.4486 435.405 88.8539 434.925 89.4193 434.584C89.9846 434.243 90.6139 434.072 91.3073 434.072ZM101.822 443.144C101 443.144 100.254 442.957 99.5816 442.584C98.9203 442.211 98.3976 441.683 98.0136 441C97.6403 440.307 97.4536 439.507 97.4536 438.6C97.4536 437.704 97.6456 436.915 98.0296 436.232C98.4243 435.539 98.9576 435.011 99.6296 434.648C100.302 434.275 101.054 434.088 101.886 434.088C102.718 434.088 103.47 434.275 104.142 434.648C104.814 435.011 105.342 435.533 105.726 436.216C106.12 436.899 106.318 437.693 106.318 438.6C106.318 439.507 106.115 440.307 105.71 441C105.315 441.683 104.776 442.211 104.094 442.584C103.411 442.957 102.654 443.144 101.822 443.144ZM101.822 441.864C102.344 441.864 102.835 441.741 103.294 441.496C103.752 441.251 104.12 440.883 104.398 440.392C104.686 439.901 104.83 439.304 104.83 438.6C104.83 437.896 104.691 437.299 104.414 436.808C104.136 436.317 103.774 435.955 103.326 435.72C102.878 435.475 102.392 435.352 101.87 435.352C101.336 435.352 100.846 435.475 100.398 435.72C99.9603 435.955 99.6083 436.317 99.3416 436.808C99.075 437.299 98.9416 437.896 98.9416 438.6C98.9416 439.315 99.0696 439.917 99.3256 440.408C99.5923 440.899 99.9443 441.267 100.382 441.512C100.819 441.747 101.299 441.864 101.822 441.864ZM116.758 434.232V443H115.302V441.704C115.025 442.152 114.635 442.504 114.134 442.76C113.643 443.005 113.099 443.128 112.502 443.128C111.819 443.128 111.206 442.989 110.662 442.712C110.118 442.424 109.686 441.997 109.366 441.432C109.057 440.867 108.902 440.179 108.902 439.368V434.232H110.342V439.176C110.342 440.04 110.561 440.707 110.998 441.176C111.435 441.635 112.033 441.864 112.79 441.864C113.569 441.864 114.182 441.624 114.63 441.144C115.078 440.664 115.302 439.965 115.302 439.048V434.232H116.758ZM124.238 434.072C125.305 434.072 126.169 434.397 126.83 435.048C127.492 435.688 127.822 436.616 127.822 437.832V443H126.382V438.04C126.382 437.165 126.164 436.499 125.726 436.04C125.289 435.571 124.692 435.336 123.934 435.336C123.166 435.336 122.553 435.576 122.094 436.056C121.646 436.536 121.422 437.235 121.422 438.152V443H119.966V434.232H121.422V435.48C121.71 435.032 122.1 434.685 122.59 434.44C123.092 434.195 123.641 434.072 124.238 434.072ZM132.727 435.432V440.6C132.727 441.027 132.817 441.331 132.999 441.512C133.18 441.683 133.495 441.768 133.943 441.768H135.015V443H133.703C132.892 443 132.284 442.813 131.879 442.44C131.473 442.067 131.271 441.453 131.271 440.6V435.432H130.135V434.232H131.271V432.024H132.727V434.232H135.015V435.432H132.727Z" fill="#A0A3BD"/>
<path d="M53 607C53 598.163 60.1634 591 69 591H363C371.837 591 379 598.163 379 607V639C379 647.837 371.837 655 363 655H69C60.1635 655 53 647.837 53 639V607Z" fill="#0122AE"/>
<path d="M150.993 617.832L147.873 629H145.233L143.137 621.048L140.945 629L138.321 629.016L135.313 617.832H137.713L139.681 626.504L141.953 617.832H144.449L146.593 626.456L148.577 617.832H150.993ZM155.445 617.832V629H153.205V617.832H155.445ZM166.008 617.832V619.64H163.032V629H160.792V619.64H157.816V617.832H166.008ZM177.657 617.832V629H175.417V624.248H170.633V629H168.393V617.832H170.633V622.424H175.417V617.832H177.657ZM184.516 617.832C185.689 617.832 186.718 618.061 187.604 618.52C188.5 618.979 189.188 619.635 189.668 620.488C190.158 621.331 190.404 622.312 190.404 623.432C190.404 624.552 190.158 625.533 189.668 626.376C189.188 627.208 188.5 627.853 187.604 628.312C186.718 628.771 185.689 629 184.516 629H180.612V617.832H184.516ZM184.436 627.096C185.609 627.096 186.516 626.776 187.156 626.136C187.796 625.496 188.116 624.595 188.116 623.432C188.116 622.269 187.796 621.363 187.156 620.712C186.516 620.051 185.609 619.72 184.436 619.72H182.852V627.096H184.436ZM198.59 629L196.126 624.648H195.07V629H192.83V617.832H197.022C197.886 617.832 198.622 617.987 199.23 618.296C199.838 618.595 200.292 619.005 200.59 619.528C200.9 620.04 201.054 620.616 201.054 621.256C201.054 621.992 200.841 622.659 200.414 623.256C199.988 623.843 199.353 624.248 198.51 624.472L201.182 629H198.59ZM195.07 622.968H196.942C197.55 622.968 198.004 622.824 198.302 622.536C198.601 622.237 198.75 621.827 198.75 621.304C198.75 620.792 198.601 620.397 198.302 620.12C198.004 619.832 197.55 619.688 196.942 619.688H195.07V622.968ZM210.678 626.872H206.23L205.494 629H203.142L207.158 617.816H209.766L213.782 629H211.414L210.678 626.872ZM210.07 625.08L208.454 620.408L206.838 625.08H210.07ZM230.961 617.832L227.841 629H225.201L223.105 621.048L220.913 629L218.289 629.016L215.281 617.832H217.681L219.649 626.504L221.921 617.832H224.417L226.561 626.456L228.545 617.832H230.961ZM249.913 617.832V629H247.673V621.736L244.681 629H242.985L239.977 621.736V629H237.737V617.832H240.281L243.833 626.136L247.385 617.832H249.913ZM258.061 629.112C257.016 629.112 256.056 628.867 255.181 628.376C254.307 627.885 253.613 627.208 253.101 626.344C252.589 625.469 252.333 624.483 252.333 623.384C252.333 622.296 252.589 621.32 253.101 620.456C253.613 619.581 254.307 618.899 255.181 618.408C256.056 617.917 257.016 617.672 258.061 617.672C259.117 617.672 260.077 617.917 260.941 618.408C261.816 618.899 262.504 619.581 263.005 620.456C263.517 621.32 263.773 622.296 263.773 623.384C263.773 624.483 263.517 625.469 263.005 626.344C262.504 627.208 261.816 627.885 260.941 628.376C260.067 628.867 259.107 629.112 258.061 629.112ZM258.061 627.112C258.733 627.112 259.325 626.963 259.837 626.664C260.349 626.355 260.749 625.917 261.037 625.352C261.325 624.787 261.469 624.131 261.469 623.384C261.469 622.637 261.325 621.987 261.037 621.432C260.749 620.867 260.349 620.435 259.837 620.136C259.325 619.837 258.733 619.688 258.061 619.688C257.389 619.688 256.792 619.837 256.269 620.136C255.757 620.435 255.357 620.867 255.069 621.432C254.781 621.987 254.637 622.637 254.637 623.384C254.637 624.131 254.781 624.787 255.069 625.352C255.357 625.917 255.757 626.355 256.269 626.664C256.792 626.963 257.389 627.112 258.061 627.112ZM275.742 629H273.502L268.43 621.336V629H266.19V617.816H268.43L273.502 625.496V617.816H275.742V629ZM280.945 619.64V622.44H284.705V624.216H280.945V627.176H285.185V629H278.705V617.816H285.185V619.64H280.945ZM296.851 617.832L293.075 625.112V629H290.835V625.112L287.043 617.832H289.571L291.971 622.936L294.355 617.832H296.851Z" fill="#F7F7FC"/>
<path d="M61.7173 116L55.0002 123L61.7173 130" stroke="#FCFCFC" stroke-width="2" stroke-linecap="round" stroke-linejoin="round"/>
<line x1="1" y1="-1" x2="16.7331" y2="-1" transform="matrix(1 0 0 -1 55.2671 122.032)" stroke="#FCFCFC" stroke-width="2" stroke-linecap="round"/>
<path d="M173.04 115.04L169.14 129H165.84L163.22 119.06L160.48 129L157.2 129.02L153.44 115.04H156.44L158.9 125.88L161.74 115.04H164.86L167.54 125.82L170.02 115.04H173.04ZM177.038 116.6C176.545 116.6 176.132 116.447 175.798 116.14C175.478 115.82 175.318 115.427 175.318 114.96C175.318 114.493 175.478 114.107 175.798 113.8C176.132 113.48 176.545 113.32 177.038 113.32C177.532 113.32 177.938 113.48 178.258 113.8C178.592 114.107 178.758 114.493 178.758 114.96C178.758 115.427 178.592 115.82 178.258 116.14C177.938 116.447 177.532 116.6 177.038 116.6ZM178.418 117.92V129H175.618V117.92H178.418ZM185.195 120.22V125.58C185.195 125.953 185.281 126.227 185.455 126.4C185.641 126.56 185.948 126.64 186.375 126.64H187.675V129H185.915C183.555 129 182.375 127.853 182.375 125.56V120.22H181.055V117.92H182.375V115.18H185.195V117.92H187.675V120.22H185.195ZM196.679 117.76C197.519 117.76 198.265 117.947 198.919 118.32C199.572 118.68 200.079 119.22 200.439 119.94C200.812 120.647 200.999 121.5 200.999 122.5V129H198.199V122.88C198.199 122 197.979 121.327 197.539 120.86C197.099 120.38 196.499 120.14 195.739 120.14C194.965 120.14 194.352 120.38 193.899 120.86C193.459 121.327 193.239 122 193.239 122.88V129H190.439V114.2H193.239V119.3C193.599 118.82 194.079 118.447 194.679 118.18C195.279 117.9 195.945 117.76 196.679 117.76ZM203.691 123.42C203.691 122.3 203.911 121.307 204.351 120.44C204.805 119.573 205.418 118.907 206.191 118.44C206.965 117.973 207.825 117.74 208.771 117.74C209.491 117.74 210.178 117.9 210.831 118.22C211.485 118.527 212.005 118.94 212.391 119.46V114.2H215.231V129H212.391V127.36C212.045 127.907 211.558 128.347 210.931 128.68C210.305 129.013 209.578 129.18 208.751 129.18C207.818 129.18 206.965 128.94 206.191 128.46C205.418 127.98 204.805 127.307 204.351 126.44C203.911 125.56 203.691 124.553 203.691 123.42ZM212.411 123.46C212.411 122.78 212.278 122.2 212.011 121.72C211.745 121.227 211.385 120.853 210.931 120.6C210.478 120.333 209.991 120.2 209.471 120.2C208.951 120.2 208.471 120.327 208.031 120.58C207.591 120.833 207.231 121.207 206.951 121.7C206.685 122.18 206.551 122.753 206.551 123.42C206.551 124.087 206.685 124.673 206.951 125.18C207.231 125.673 207.591 126.053 208.031 126.32C208.485 126.587 208.965 126.72 209.471 126.72C209.991 126.72 210.478 126.593 210.931 126.34C211.385 126.073 211.745 125.7 212.011 125.22C212.278 124.727 212.411 124.14 212.411 123.46ZM221.516 119.64C221.876 119.053 222.343 118.593 222.916 118.26C223.503 117.927 224.169 117.76 224.916 117.76V120.7H224.176C223.296 120.7 222.629 120.907 222.176 121.32C221.736 121.733 221.516 122.453 221.516 123.48V129H218.716V117.92H221.516V119.64ZM226.832 123.42C226.832 122.3 227.052 121.307 227.492 120.44C227.945 119.573 228.552 118.907 229.312 118.44C230.085 117.973 230.945 117.74 231.892 117.74C232.719 117.74 233.439 117.907 234.052 118.24C234.679 118.573 235.179 118.993 235.552 119.5V117.92H238.372V129H235.552V127.38C235.192 127.9 234.692 128.333 234.052 128.68C233.425 129.013 232.699 129.18 231.872 129.18C230.939 129.18 230.085 128.94 229.312 128.46C228.552 127.98 227.945 127.307 227.492 126.44C227.052 125.56 226.832 124.553 226.832 123.42ZM235.552 123.46C235.552 122.78 235.419 122.2 235.152 121.72C234.885 121.227 234.525 120.853 234.072 120.6C233.619 120.333 233.132 120.2 232.612 120.2C232.092 120.2 231.612 120.327 231.172 120.58C230.732 120.833 230.372 121.207 230.092 121.7C229.825 122.18 229.692 122.753 229.692 123.42C229.692 124.087 229.825 124.673 230.092 125.18C230.372 125.673 230.732 126.053 231.172 126.32C231.625 126.587 232.105 126.72 232.612 126.72C233.132 126.72 233.619 126.593 234.072 126.34C234.525 126.073 234.885 125.7 235.152 125.22C235.419 124.727 235.552 124.14 235.552 123.46ZM257.217 117.92L253.977 129H250.957L248.937 121.26L246.917 129H243.877L240.617 117.92H243.457L245.417 126.36L247.537 117.92H250.497L252.577 126.34L254.537 117.92H257.217ZM258.762 123.42C258.762 122.3 258.982 121.307 259.422 120.44C259.875 119.573 260.482 118.907 261.242 118.44C262.015 117.973 262.875 117.74 263.822 117.74C264.648 117.74 265.368 117.907 265.982 118.24C266.608 118.573 267.108 118.993 267.482 119.5V117.92H270.302V129H267.482V127.38C267.122 127.9 266.622 128.333 265.982 128.68C265.355 129.013 264.628 129.18 263.802 129.18C262.868 129.18 262.015 128.94 261.242 128.46C260.482 127.98 259.875 127.307 259.422 126.44C258.982 125.56 258.762 124.553 258.762 123.42ZM267.482 123.46C267.482 122.78 267.348 122.2 267.082 121.72C266.815 121.227 266.455 120.853 266.002 120.6C265.548 120.333 265.062 120.2 264.542 120.2C264.022 120.2 263.542 120.327 263.102 120.58C262.662 120.833 262.302 121.207 262.022 121.7C261.755 122.18 261.622 122.753 261.622 123.42C261.622 124.087 261.755 124.673 262.022 125.18C262.302 125.673 262.662 126.053 263.102 126.32C263.555 126.587 264.035 126.72 264.542 126.72C265.062 126.72 265.548 126.593 266.002 126.34C266.455 126.073 266.815 125.7 267.082 125.22C267.348 124.727 267.482 124.14 267.482 123.46ZM276.586 114.2V129H273.786V114.2H276.586Z" fill="#FCFCFC"/>
<path d="M58.846 224.83H54.59L53.806 227H52.462L55.99 217.298H57.46L60.974 227H59.63L58.846 224.83ZM58.482 223.794L56.718 218.866L54.954 223.794H58.482ZM66.1176 225.824L68.4976 219.328H69.8556L66.8456 227H65.3616L62.3516 219.328H63.7236L66.1176 225.824ZM71.3833 223.136C71.3833 222.352 71.5419 221.666 71.8593 221.078C72.1766 220.481 72.6106 220.019 73.1613 219.692C73.7213 219.365 74.3419 219.202 75.0233 219.202C75.6953 219.202 76.2786 219.347 76.7733 219.636C77.2679 219.925 77.6366 220.289 77.8793 220.728V219.328H79.1673V227H77.8793V225.572C77.6273 226.02 77.2493 226.393 76.7453 226.692C76.2506 226.981 75.6719 227.126 75.0093 227.126C74.3279 227.126 73.7119 226.958 73.1613 226.622C72.6106 226.286 72.1766 225.815 71.8593 225.208C71.5419 224.601 71.3833 223.911 71.3833 223.136ZM77.8793 223.15C77.8793 222.571 77.7626 222.067 77.5293 221.638C77.2959 221.209 76.9786 220.882 76.5773 220.658C76.1853 220.425 75.7513 220.308 75.2753 220.308C74.7993 220.308 74.3653 220.42 73.9733 220.644C73.5813 220.868 73.2686 221.195 73.0353 221.624C72.8019 222.053 72.6853 222.557 72.6853 223.136C72.6853 223.724 72.8019 224.237 73.0353 224.676C73.2686 225.105 73.5813 225.437 73.9733 225.67C74.3653 225.894 74.7993 226.006 75.2753 226.006C75.7513 226.006 76.1853 225.894 76.5773 225.67C76.9786 225.437 77.2959 225.105 77.5293 224.676C77.7626 224.237 77.8793 223.729 77.8793 223.15ZM82.7282 218.082C82.4855 218.082 82.2802 217.998 82.1122 217.83C81.9442 217.662 81.8602 217.457 81.8602 217.214C81.8602 216.971 81.9442 216.766 82.1122 216.598C82.2802 216.43 82.4855 216.346 82.7282 216.346C82.9615 216.346 83.1575 216.43 83.3162 216.598C83.4842 216.766 83.5682 216.971 83.5682 217.214C83.5682 217.457 83.4842 217.662 83.3162 217.83C83.1575 217.998 82.9615 218.082 82.7282 218.082ZM83.3442 219.328V227H82.0702V219.328H83.3442ZM87.5395 216.64V227H86.2655V216.64H87.5395ZM89.9848 223.136C89.9848 222.352 90.1435 221.666 90.4608 221.078C90.7781 220.481 91.2121 220.019 91.7628 219.692C92.3228 219.365 92.9435 219.202 93.6248 219.202C94.2968 219.202 94.8801 219.347 95.3748 219.636C95.8695 219.925 96.2381 220.289 96.4808 220.728V219.328H97.7688V227H96.4808V225.572C96.2288 226.02 95.8508 226.393 95.3468 226.692C94.8521 226.981 94.2735 227.126 93.6108 227.126C92.9295 227.126 92.3135 226.958 91.7628 226.622C91.2121 226.286 90.7781 225.815 90.4608 225.208C90.1435 224.601 89.9848 223.911 89.9848 223.136ZM96.4808 223.15C96.4808 222.571 96.3641 222.067 96.1308 221.638C95.8975 221.209 95.5801 220.882 95.1788 220.658C94.7868 220.425 94.3528 220.308 93.8768 220.308C93.4008 220.308 92.9668 220.42 92.5748 220.644C92.1828 220.868 91.8701 221.195 91.6368 221.624C91.4035 222.053 91.2868 222.557 91.2868 223.136C91.2868 223.724 91.4035 224.237 91.6368 224.676C91.8701 225.105 92.1828 225.437 92.5748 225.67C92.9668 225.894 93.4008 226.006 93.8768 226.006C94.3528 226.006 94.7868 225.894 95.1788 225.67C95.5801 225.437 95.8975 225.105 96.1308 224.676C96.3641 224.237 96.4808 223.729 96.4808 223.15ZM101.946 220.756C102.207 220.299 102.59 219.925 103.094 219.636C103.598 219.347 104.172 219.202 104.816 219.202C105.506 219.202 106.127 219.365 106.678 219.692C107.228 220.019 107.662 220.481 107.98 221.078C108.297 221.666 108.456 222.352 108.456 223.136C108.456 223.911 108.297 224.601 107.98 225.208C107.662 225.815 107.224 226.286 106.664 226.622C106.113 226.958 105.497 227.126 104.816 227.126C104.153 227.126 103.57 226.981 103.066 226.692C102.571 226.403 102.198 226.034 101.946 225.586V227H100.672V216.64H101.946V220.756ZM107.154 223.136C107.154 222.557 107.037 222.053 106.804 221.624C106.57 221.195 106.253 220.868 105.852 220.644C105.46 220.42 105.026 220.308 104.55 220.308C104.083 220.308 103.649 220.425 103.248 220.658C102.856 220.882 102.538 221.213 102.296 221.652C102.062 222.081 101.946 222.581 101.946 223.15C101.946 223.729 102.062 224.237 102.296 224.676C102.538 225.105 102.856 225.437 103.248 225.67C103.649 225.894 104.083 226.006 104.55 226.006C105.026 226.006 105.46 225.894 105.852 225.67C106.253 225.437 106.57 225.105 106.804 224.676C107.037 224.237 107.154 223.724 107.154 223.136ZM112.157 216.64V227H110.883V216.64H112.157ZM122.078 222.87C122.078 223.113 122.064 223.369 122.036 223.64H115.904C115.951 224.396 116.207 224.989 116.674 225.418C117.15 225.838 117.724 226.048 118.396 226.048C118.947 226.048 119.404 225.922 119.768 225.67C120.141 225.409 120.403 225.063 120.552 224.634H121.924C121.719 225.371 121.308 225.973 120.692 226.44C120.076 226.897 119.311 227.126 118.396 227.126C117.668 227.126 117.015 226.963 116.436 226.636C115.867 226.309 115.419 225.847 115.092 225.25C114.765 224.643 114.602 223.943 114.602 223.15C114.602 222.357 114.761 221.661 115.078 221.064C115.395 220.467 115.839 220.009 116.408 219.692C116.987 219.365 117.649 219.202 118.396 219.202C119.124 219.202 119.768 219.361 120.328 219.678C120.888 219.995 121.317 220.434 121.616 220.994C121.924 221.545 122.078 222.17 122.078 222.87ZM120.762 222.604C120.762 222.119 120.655 221.703 120.44 221.358C120.225 221.003 119.931 220.737 119.558 220.56C119.194 220.373 118.788 220.28 118.34 220.28C117.696 220.28 117.145 220.485 116.688 220.896C116.24 221.307 115.983 221.876 115.918 222.604H120.762ZM133.878 221.974C134.233 222.03 134.555 222.175 134.844 222.408C135.143 222.641 135.376 222.931 135.544 223.276C135.721 223.621 135.81 223.99 135.81 224.382C135.81 224.877 135.684 225.325 135.432 225.726C135.18 226.118 134.811 226.431 134.326 226.664C133.85 226.888 133.285 227 132.632 227H128.992V217.242H132.492C133.155 217.242 133.719 217.354 134.186 217.578C134.653 217.793 135.003 218.087 135.236 218.46C135.469 218.833 135.586 219.253 135.586 219.72C135.586 220.299 135.427 220.779 135.11 221.162C134.802 221.535 134.391 221.806 133.878 221.974ZM130.266 221.456H132.408C133.005 221.456 133.467 221.316 133.794 221.036C134.121 220.756 134.284 220.369 134.284 219.874C134.284 219.379 134.121 218.992 133.794 218.712C133.467 218.432 132.996 218.292 132.38 218.292H130.266V221.456ZM132.52 225.95C133.155 225.95 133.649 225.801 134.004 225.502C134.359 225.203 134.536 224.788 134.536 224.256C134.536 223.715 134.349 223.29 133.976 222.982C133.603 222.665 133.103 222.506 132.478 222.506H130.266V225.95H132.52ZM137.852 223.136C137.852 222.352 138.011 221.666 138.328 221.078C138.645 220.481 139.079 220.019 139.63 219.692C140.19 219.365 140.811 219.202 141.492 219.202C142.164 219.202 142.747 219.347 143.242 219.636C143.737 219.925 144.105 220.289 144.348 220.728V219.328H145.636V227H144.348V225.572C144.096 226.02 143.718 226.393 143.214 226.692C142.719 226.981 142.141 227.126 141.478 227.126C140.797 227.126 140.181 226.958 139.63 226.622C139.079 226.286 138.645 225.815 138.328 225.208C138.011 224.601 137.852 223.911 137.852 223.136ZM144.348 223.15C144.348 222.571 144.231 222.067 143.998 221.638C143.765 221.209 143.447 220.882 143.046 220.658C142.654 220.425 142.22 220.308 141.744 220.308C141.268 220.308 140.834 220.42 140.442 220.644C140.05 220.868 139.737 221.195 139.504 221.624C139.271 222.053 139.154 222.557 139.154 223.136C139.154 223.724 139.271 224.237 139.504 224.676C139.737 225.105 140.05 225.437 140.442 225.67C140.834 225.894 141.268 226.006 141.744 226.006C142.22 226.006 142.654 225.894 143.046 225.67C143.447 225.437 143.765 225.105 143.998 224.676C144.231 224.237 144.348 223.729 144.348 223.15ZM149.813 216.64V227H148.539V216.64H149.813ZM152.258 223.136C152.258 222.352 152.417 221.666 152.734 221.078C153.052 220.481 153.486 220.019 154.036 219.692C154.596 219.365 155.217 219.202 155.898 219.202C156.57 219.202 157.154 219.347 157.648 219.636C158.143 219.925 158.512 220.289 158.754 220.728V219.328H160.042V227H158.754V225.572C158.502 226.02 158.124 226.393 157.62 226.692C157.126 226.981 156.547 227.126 155.884 227.126C155.203 227.126 154.587 226.958 154.036 226.622C153.486 226.286 153.052 225.815 152.734 225.208C152.417 224.601 152.258 223.911 152.258 223.136ZM158.754 223.15C158.754 222.571 158.638 222.067 158.404 221.638C158.171 221.209 157.854 220.882 157.452 220.658C157.06 220.425 156.626 220.308 156.15 220.308C155.674 220.308 155.24 220.42 154.848 220.644C154.456 220.868 154.144 221.195 153.91 221.624C153.677 222.053 153.56 222.557 153.56 223.136C153.56 223.724 153.677 224.237 153.91 224.676C154.144 225.105 154.456 225.437 154.848 225.67C155.24 225.894 155.674 226.006 156.15 226.006C156.626 226.006 157.06 225.894 157.452 225.67C157.854 225.437 158.171 225.105 158.404 224.676C158.638 224.237 158.754 223.729 158.754 223.15ZM166.683 219.188C167.617 219.188 168.373 219.473 168.951 220.042C169.53 220.602 169.819 221.414 169.819 222.478V227H168.559V222.66C168.559 221.895 168.368 221.311 167.985 220.91C167.603 220.499 167.08 220.294 166.417 220.294C165.745 220.294 165.209 220.504 164.807 220.924C164.415 221.344 164.219 221.955 164.219 222.758V227H162.945V219.328H164.219V220.42C164.471 220.028 164.812 219.725 165.241 219.51C165.68 219.295 166.161 219.188 166.683 219.188ZM172.174 223.15C172.174 222.357 172.333 221.666 172.65 221.078C172.968 220.481 173.406 220.019 173.966 219.692C174.536 219.365 175.184 219.202 175.912 219.202C176.855 219.202 177.63 219.431 178.236 219.888C178.852 220.345 179.258 220.98 179.454 221.792H178.082C177.952 221.325 177.695 220.957 177.312 220.686C176.939 220.415 176.472 220.28 175.912 220.28C175.184 220.28 174.596 220.532 174.148 221.036C173.7 221.531 173.476 222.235 173.476 223.15C173.476 224.074 173.7 224.788 174.148 225.292C174.596 225.796 175.184 226.048 175.912 226.048C176.472 226.048 176.939 225.917 177.312 225.656C177.686 225.395 177.942 225.021 178.082 224.536H179.454C179.249 225.32 178.838 225.95 178.222 226.426C177.606 226.893 176.836 227.126 175.912 227.126C175.184 227.126 174.536 226.963 173.966 226.636C173.406 226.309 172.968 225.847 172.65 225.25C172.333 224.653 172.174 223.953 172.174 223.15ZM188.904 222.87C188.904 223.113 188.89 223.369 188.862 223.64H182.73C182.777 224.396 183.034 224.989 183.5 225.418C183.976 225.838 184.55 226.048 185.222 226.048C185.773 226.048 186.23 225.922 186.594 225.67C186.968 225.409 187.229 225.063 187.378 224.634H188.75C188.545 225.371 188.134 225.973 187.518 226.44C186.902 226.897 186.137 227.126 185.222 227.126C184.494 227.126 183.841 226.963 183.262 226.636C182.693 226.309 182.245 225.847 181.918 225.25C181.592 224.643 181.428 223.943 181.428 223.15C181.428 222.357 181.587 221.661 181.904 221.064C182.222 220.467 182.665 220.009 183.234 219.692C183.813 219.365 184.476 219.202 185.222 219.202C185.95 219.202 186.594 219.361 187.154 219.678C187.714 219.995 188.144 220.434 188.442 220.994C188.75 221.545 188.904 222.17 188.904 222.87ZM187.588 222.604C187.588 222.119 187.481 221.703 187.266 221.358C187.052 221.003 186.758 220.737 186.384 220.56C186.02 220.373 185.614 220.28 185.166 220.28C184.522 220.28 183.972 220.485 183.514 220.896C183.066 221.307 182.81 221.876 182.744 222.604H187.588Z" fill="#D6D8E7"/>
<path opacity="0.35" d="M364.5 47C364.5 45.8034 365.47 44.8334 366.667 44.8334H383.333C384.53 44.8334 385.5 45.8034 385.5 47V53C385.5 54.1967 384.53 55.1667 383.333 55.1667H366.667C365.47 55.1667 364.5 54.1967 364.5 53V47Z" stroke="#FCFCFC"/>
<path opacity="0.4" d="M387 48V52C387.805 51.6612 388.328 50.8731 388.328 50C388.328 49.1269 387.805 48.3388 387 48Z" fill="#FCFCFC"/>
<path d="M366 47.6667C366 46.9303 366.597 46.3334 367.333 46.3334H382.667C383.403 46.3334 384 46.9303 384 47.6667V52.3334C384 53.0698 383.403 53.6667 382.667 53.6667H367.333C366.597 53.6667 366 53.0698 366 52.3334V47.6667Z" fill="#FCFCFC"/>
<path fill-rule="evenodd" clip-rule="evenodd" d="M351.33 46.608C353.546 46.6081 355.678 47.4596 357.283 48.9863C357.404 49.1042 357.598 49.1027 357.717 48.983L358.873 47.8163C358.933 47.7556 358.967 47.6734 358.966 47.5878C358.966 47.5022 358.931 47.4204 358.87 47.3603C354.655 43.3208 348.005 43.3208 343.79 47.3603C343.729 47.4203 343.694 47.5021 343.694 47.5877C343.693 47.6733 343.727 47.7556 343.787 47.8163L344.943 48.983C345.062 49.1029 345.256 49.1044 345.377 48.9863C346.983 47.4595 349.114 46.608 351.33 46.608ZM351.33 50.4037C352.548 50.4036 353.722 50.8561 354.624 51.6733C354.747 51.7893 354.939 51.7868 355.058 51.6677L356.212 50.501C356.273 50.4398 356.307 50.3568 356.306 50.2705C356.305 50.1843 356.27 50.102 356.208 50.042C353.46 47.4856 349.204 47.4856 346.455 50.042C346.393 50.102 346.358 50.1843 346.357 50.2706C346.356 50.3569 346.39 50.4399 346.451 50.501L347.605 51.6677C347.724 51.7868 347.917 51.7893 348.039 51.6733C348.941 50.8567 350.114 50.4042 351.33 50.4037ZM353.643 52.9575C353.645 53.044 353.611 53.1274 353.549 53.188L351.552 55.2037C351.494 55.2629 351.414 55.2963 351.33 55.2963C351.247 55.2963 351.167 55.2629 351.109 55.2037L349.111 53.188C349.049 53.1274 349.015 53.0439 349.017 52.9574C349.019 52.8709 349.057 52.789 349.121 52.731C350.396 51.6521 352.265 51.6521 353.54 52.731C353.604 52.7891 353.642 52.871 353.643 52.9575Z" fill="#FCFCFC"/>
<path fill-rule="evenodd" clip-rule="evenodd" d="M337.667 44.6666H336.667C336.114 44.6666 335.667 45.1143 335.667 45.6666V54.3333C335.667 54.8856 336.114 55.3333 336.667 55.3333H337.667C338.219 55.3333 338.667 54.8856 338.667 54.3333V45.6666C338.667 45.1143 338.219 44.6666 337.667 44.6666ZM332 47H333C333.552 47 334 47.4477 334 48V54.3333C334 54.8856 333.552 55.3333 333 55.3333H332C331.448 55.3333 331 54.8856 331 54.3333V48C331 47.4477 331.448 47 332 47ZM328.333 49.3333H327.333C326.781 49.3333 326.333 49.781 326.333 50.3333V54.3333C326.333 54.8856 326.781 55.3333 327.333 55.3333H328.333C328.885 55.3333 329.333 54.8856 329.333 54.3333V50.3333C329.333 49.781 328.885 49.3333 328.333 49.3333ZM323.667 51.3333H322.667C322.114 51.3333 321.667 51.781 321.667 52.3333V54.3333C321.667 54.8856 322.114 55.3333 322.667 55.3333H323.667C324.219 55.3333 324.667 54.8856 324.667 54.3333V52.3333C324.667 51.781 324.219 51.3333 323.667 51.3333Z" fill="#FCFCFC"/>
<path d="M66.5104 44.35C67.9504 44.35 69.0654 44.8 69.8554 45.7C70.6554 46.6 71.0554 47.89 71.0554 49.57C71.0554 50.75 70.8404 51.76 70.4104 52.6C69.9804 53.43 69.3754 54.065 68.5955 54.505C67.8254 54.935 66.9304 55.15 65.9104 55.15C65.3704 55.15 64.8604 55.095 64.3804 54.985C63.9104 54.865 63.5004 54.695 63.1504 54.475L63.8704 53.005C64.3904 53.345 65.0554 53.515 65.8654 53.515C66.8754 53.515 67.6654 53.205 68.2354 52.585C68.8054 51.965 69.0904 51.07 69.0904 49.9V49.885C68.7805 50.245 68.3855 50.52 67.9054 50.71C67.4254 50.89 66.8854 50.98 66.2854 50.98C65.5954 50.98 64.9754 50.85 64.4254 50.59C63.8754 50.32 63.4454 49.94 63.1354 49.45C62.8254 48.96 62.6704 48.395 62.6704 47.755C62.6704 47.075 62.8404 46.48 63.1804 45.97C63.5204 45.45 63.9804 45.05 64.5604 44.77C65.1404 44.49 65.7904 44.35 66.5104 44.35ZM66.6604 49.45C67.2904 49.45 67.8004 49.28 68.1904 48.94C68.5904 48.6 68.7904 48.17 68.7904 47.65C68.7904 47.14 68.5954 46.72 68.2054 46.39C67.8254 46.05 67.2954 45.88 66.6154 45.88C66.0054 45.88 65.5104 46.045 65.1304 46.375C64.7504 46.695 64.5604 47.125 64.5604 47.665C64.5604 48.215 64.7504 48.65 65.1304 48.97C65.5104 49.29 66.0204 49.45 66.6604 49.45ZM73.2447 49.39C72.9047 49.39 72.6147 49.275 72.3747 49.045C72.1347 48.805 72.0147 48.505 72.0147 48.145C72.0147 47.775 72.1297 47.475 72.3597 47.245C72.5997 47.015 72.8947 46.9 73.2447 46.9C73.5947 46.9 73.8847 47.015 74.1147 47.245C74.3547 47.475 74.4747 47.775 74.4747 48.145C74.4747 48.505 74.3547 48.805 74.1147 49.045C73.8747 49.275 73.5847 49.39 73.2447 49.39ZM73.2447 55.105C72.9047 55.105 72.6147 54.99 72.3747 54.76C72.1347 54.52 72.0147 54.22 72.0147 53.86C72.0147 53.49 72.1297 53.19 72.3597 52.96C72.5997 52.73 72.8947 52.615 73.2447 52.615C73.5947 52.615 73.8847 52.73 74.1147 52.96C74.3547 53.19 74.4747 53.49 74.4747 53.86C74.4747 54.22 74.3547 54.52 74.1147 54.76C73.8747 54.99 73.5847 55.105 73.2447 55.105ZM84.7969 52.615H82.9369V55H81.0469V52.615H75.2869V51.265L80.4619 44.5H82.5469L77.6719 50.965H81.1069V48.85H82.9369V50.965H84.7969V52.615ZM88.5667 44.5V55H86.6167V46.135H84.3967V44.5H88.5667Z" fill="#FCFCFC"/>
<path d="M68.56 194H64.456L57.592 183.608V194H53.488V177.152H57.592L64.456 187.592V177.152H68.56V194ZM71.6949 180.296V176.48H78.3429V194H74.0709V180.296H71.6949ZM82.0063 190.712C82.5503 190.28 82.7983 190.08 82.7503 190.112C84.3183 188.816 85.5503 187.752 86.4463 186.92C87.3583 186.088 88.1263 185.216 88.7503 184.304C89.3743 183.392 89.6863 182.504 89.6863 181.64C89.6863 180.984 89.5343 180.472 89.2303 180.104C88.9263 179.736 88.4703 179.552 87.8623 179.552C87.2543 179.552 86.7743 179.784 86.4223 180.248C86.0863 180.696 85.9183 181.336 85.9183 182.168H81.9583C81.9903 180.808 82.2783 179.672 82.8223 178.76C83.3823 177.848 84.1103 177.176 85.0063 176.744C85.9183 176.312 86.9263 176.096 88.0303 176.096C89.9343 176.096 91.3663 176.584 92.3263 177.56C93.3023 178.536 93.7903 179.808 93.7903 181.376C93.7903 183.088 93.2063 184.68 92.0383 186.152C90.8703 187.608 89.3823 189.032 87.5743 190.424H94.0543V193.76H82.0063V190.712ZM101.685 190.208L99.0213 197.096H96.4053L97.7973 190.208H101.685ZM104.752 185C104.752 182.248 105.28 180.08 106.336 178.496C107.408 176.912 109.128 176.12 111.496 176.12C113.864 176.12 115.576 176.912 116.632 178.496C117.704 180.08 118.24 182.248 118.24 185C118.24 187.784 117.704 189.968 116.632 191.552C115.576 193.136 113.864 193.928 111.496 193.928C109.128 193.928 107.408 193.136 106.336 191.552C105.28 189.968 104.752 187.784 104.752 185ZM114.208 185C114.208 183.384 114.032 182.144 113.68 181.28C113.328 180.4 112.6 179.96 111.496 179.96C110.392 179.96 109.664 180.4 109.312 181.28C108.96 182.144 108.784 183.384 108.784 185C108.784 186.088 108.848 186.992 108.976 187.712C109.104 188.416 109.36 188.992 109.744 189.44C110.144 189.872 110.728 190.088 111.496 190.088C112.264 190.088 112.84 189.872 113.224 189.44C113.624 188.992 113.888 188.416 114.016 187.712C114.144 186.992 114.208 186.088 114.208 185ZM121.408 185C121.408 182.248 121.936 180.08 122.992 178.496C124.064 176.912 125.784 176.12 128.152 176.12C130.52 176.12 132.232 176.912 133.288 178.496C134.36 180.08 134.896 182.248 134.896 185C134.896 187.784 134.36 189.968 133.288 191.552C132.232 193.136 130.52 193.928 128.152 193.928C125.784 193.928 124.064 193.136 122.992 191.552C121.936 189.968 121.408 187.784 121.408 185ZM130.864 185C130.864 183.384 130.688 182.144 130.336 181.28C129.984 180.4 129.256 179.96 128.152 179.96C127.048 179.96 126.32 180.4 125.968 181.28C125.616 182.144 125.44 183.384 125.44 185C125.44 186.088 125.504 186.992 125.632 187.712C125.76 188.416 126.016 188.992 126.4 189.44C126.8 189.872 127.384 190.088 128.152 190.088C128.92 190.088 129.496 189.872 129.88 189.44C130.28 188.992 130.544 188.416 130.672 187.712C130.8 186.992 130.864 186.088 130.864 185ZM138.064 185C138.064 182.248 138.592 180.08 139.648 178.496C140.72 176.912 142.44 176.12 144.808 176.12C147.176 176.12 148.888 176.912 149.944 178.496C151.016 180.08 151.552 182.248 151.552 185C151.552 187.784 151.016 189.968 149.944 191.552C148.888 193.136 147.176 193.928 144.808 193.928C142.44 193.928 140.72 193.136 139.648 191.552C138.592 189.968 138.064 187.784 138.064 185ZM147.52 185C147.52 183.384 147.344 182.144 146.992 181.28C146.64 180.4 145.912 179.96 144.808 179.96C143.704 179.96 142.976 180.4 142.624 181.28C142.272 182.144 142.096 183.384 142.096 185C142.096 186.088 142.16 186.992 142.288 187.712C142.416 188.416 142.672 188.992 143.056 189.44C143.456 189.872 144.04 190.088 144.808 190.088C145.576 190.088 146.152 189.872 146.536 189.44C146.936 188.992 147.2 188.416 147.328 187.712C147.456 186.992 147.52 186.088 147.52 185ZM157.049 194.192C156.329 194.192 155.737 193.984 155.273 193.568C154.825 193.136 154.601 192.608 154.601 191.984C154.601 191.344 154.825 190.808 155.273 190.376C155.737 189.944 156.329 189.728 157.049 189.728C157.753 189.728 158.329 189.944 158.777 190.376C159.241 190.808 159.473 191.344 159.473 191.984C159.473 192.608 159.241 193.136 158.777 193.568C158.329 193.984 157.753 194.192 157.049 194.192ZM174.83 180.056H167.342V183.368C167.662 183.016 168.11 182.728 168.686 182.504C169.262 182.28 169.886 182.168 170.558 182.168C171.758 182.168 172.75 182.44 173.534 182.984C174.334 183.528 174.918 184.232 175.286 185.096C175.654 185.96 175.838 186.896 175.838 187.904C175.838 189.776 175.31 191.264 174.254 192.368C173.198 193.456 171.71 194 169.79 194C168.51 194 167.398 193.784 166.454 193.352C165.51 192.904 164.782 192.288 164.27 191.504C163.758 190.72 163.478 189.816 163.43 188.792H167.438C167.534 189.288 167.766 189.704 168.134 190.04C168.502 190.36 169.006 190.52 169.646 190.52C170.398 190.52 170.958 190.28 171.326 189.8C171.694 189.32 171.878 188.68 171.878 187.88C171.878 187.096 171.686 186.496 171.302 186.08C170.918 185.664 170.358 185.456 169.622 185.456C169.078 185.456 168.63 185.592 168.278 185.864C167.926 186.12 167.694 186.464 167.582 186.896H163.622V176.456H174.83V180.056ZM179.103 185C179.103 182.248 179.631 180.08 180.687 178.496C181.759 176.912 183.479 176.12 185.847 176.12C188.215 176.12 189.927 176.912 190.983 178.496C192.055 180.08 192.591 182.248 192.591 185C192.591 187.784 192.055 189.968 190.983 191.552C189.927 193.136 188.215 193.928 185.847 193.928C183.479 193.928 181.759 193.136 180.687 191.552C179.631 189.968 179.103 187.784 179.103 185ZM188.559 185C188.559 183.384 188.383 182.144 188.031 181.28C187.679 180.4 186.951 179.96 185.847 179.96C184.743 179.96 184.015 180.4 183.663 181.28C183.311 182.144 183.135 183.384 183.135 185C183.135 186.088 183.199 186.992 183.327 187.712C183.455 188.416 183.711 188.992 184.095 189.44C184.495 189.872 185.079 190.088 185.847 190.088C186.615 190.088 187.191 189.872 187.575 189.44C187.975 188.992 188.239 188.416 188.367 187.712C188.495 186.992 188.559 186.088 188.559 185Z" fill="#FCFCFC"/>
<path d="M62.88 300.04V302.3H59.16V314H56.36V302.3H52.64V300.04H62.88ZM70.593 314.18C69.5263 314.18 68.5663 313.947 67.713 313.48C66.8596 313 66.1863 312.327 65.693 311.46C65.213 310.593 64.973 309.593 64.973 308.46C64.973 307.327 65.2196 306.327 65.713 305.46C66.2196 304.593 66.9063 303.927 67.773 303.46C68.6396 302.98 69.6063 302.74 70.673 302.74C71.7396 302.74 72.7063 302.98 73.573 303.46C74.4396 303.927 75.1196 304.593 75.613 305.46C76.1196 306.327 76.373 307.327 76.373 308.46C76.373 309.593 76.113 310.593 75.593 311.46C75.0863 312.327 74.393 313 73.513 313.48C72.6463 313.947 71.673 314.18 70.593 314.18ZM70.593 311.74C71.0996 311.74 71.573 311.62 72.013 311.38C72.4663 311.127 72.8263 310.753 73.093 310.26C73.3596 309.767 73.493 309.167 73.493 308.46C73.493 307.407 73.213 306.6 72.653 306.04C72.1063 305.467 71.433 305.18 70.633 305.18C69.833 305.18 69.1596 305.467 68.613 306.04C68.0796 306.6 67.813 307.407 67.813 308.46C67.813 309.513 68.073 310.327 68.593 310.9C69.1263 311.46 69.793 311.74 70.593 311.74ZM89.5125 314.14C88.5392 314.14 87.6592 313.973 86.8725 313.64C86.0992 313.307 85.4858 312.827 85.0325 312.2C84.5792 311.573 84.3458 310.833 84.3325 309.98H87.3325C87.3725 310.553 87.5725 311.007 87.9325 311.34C88.3058 311.673 88.8125 311.84 89.4525 311.84C90.1058 311.84 90.6192 311.687 90.9925 311.38C91.3658 311.06 91.5525 310.647 91.5525 310.14C91.5525 309.727 91.4258 309.387 91.1725 309.12C90.9192 308.853 90.5992 308.647 90.2125 308.5C89.8392 308.34 89.3192 308.167 88.6525 307.98C87.7458 307.713 87.0058 307.453 86.4325 307.2C85.8725 306.933 85.3858 306.54 84.9725 306.02C84.5725 305.487 84.3725 304.78 84.3725 303.9C84.3725 303.073 84.5792 302.353 84.9925 301.74C85.4058 301.127 85.9858 300.66 86.7325 300.34C87.4792 300.007 88.3325 299.84 89.2925 299.84C90.7325 299.84 91.8992 300.193 92.7925 300.9C93.6992 301.593 94.1992 302.567 94.2925 303.82H91.2125C91.1858 303.34 90.9792 302.947 90.5925 302.64C90.2192 302.32 89.7192 302.16 89.0925 302.16C88.5458 302.16 88.1058 302.3 87.7725 302.58C87.4525 302.86 87.2925 303.267 87.2925 303.8C87.2925 304.173 87.4125 304.487 87.6525 304.74C87.9058 304.98 88.2125 305.18 88.5725 305.34C88.9458 305.487 89.4658 305.66 90.1325 305.86C91.0392 306.127 91.7792 306.393 92.3525 306.66C92.9258 306.927 93.4192 307.327 93.8325 307.86C94.2458 308.393 94.4525 309.093 94.4525 309.96C94.4525 310.707 94.2592 311.4 93.8725 312.04C93.4858 312.68 92.9192 313.193 92.1725 313.58C91.4258 313.953 90.5392 314.14 89.5125 314.14ZM96.91 308.42C96.91 307.3 97.13 306.307 97.57 305.44C98.0233 304.573 98.63 303.907 99.39 303.44C100.163 302.973 101.023 302.74 101.97 302.74C102.797 302.74 103.517 302.907 104.13 303.24C104.757 303.573 105.257 303.993 105.63 304.5V302.92H108.45V314H105.63V312.38C105.27 312.9 104.77 313.333 104.13 313.68C103.503 314.013 102.777 314.18 101.95 314.18C101.017 314.18 100.163 313.94 99.39 313.46C98.63 312.98 98.0233 312.307 97.57 311.44C97.13 310.56 96.91 309.553 96.91 308.42ZM105.63 308.46C105.63 307.78 105.497 307.2 105.23 306.72C104.963 306.227 104.603 305.853 104.15 305.6C103.697 305.333 103.21 305.2 102.69 305.2C102.17 305.2 101.69 305.327 101.25 305.58C100.81 305.833 100.45 306.207 100.17 306.7C99.9033 307.18 99.77 307.753 99.77 308.42C99.77 309.087 99.9033 309.673 100.17 310.18C100.45 310.673 100.81 311.053 101.25 311.32C101.703 311.587 102.183 311.72 102.69 311.72C103.21 311.72 103.697 311.593 104.15 311.34C104.603 311.073 104.963 310.7 105.23 310.22C105.497 309.727 105.63 309.14 105.63 308.46ZM118.075 302.76C119.395 302.76 120.461 303.18 121.275 304.02C122.088 304.847 122.495 306.007 122.495 307.5V314H119.695V307.88C119.695 307 119.475 306.327 119.035 305.86C118.595 305.38 117.995 305.14 117.235 305.14C116.461 305.14 115.848 305.38 115.395 305.86C114.955 306.327 114.735 307 114.735 307.88V314H111.935V302.92H114.735V304.3C115.108 303.82 115.581 303.447 116.155 303.18C116.741 302.9 117.381 302.76 118.075 302.76ZM141.267 302.92L138.027 314H135.007L132.987 306.26L130.967 314H127.927L124.667 302.92H127.507L129.467 311.36L131.587 302.92H134.547L136.627 311.34L138.587 302.92H141.267ZM148.452 314.18C147.386 314.18 146.426 313.947 145.572 313.48C144.719 313 144.046 312.327 143.552 311.46C143.072 310.593 142.832 309.593 142.832 308.46C142.832 307.327 143.079 306.327 143.572 305.46C144.079 304.593 144.766 303.927 145.632 303.46C146.499 302.98 147.466 302.74 148.532 302.74C149.599 302.74 150.566 302.98 151.432 303.46C152.299 303.927 152.979 304.593 153.472 305.46C153.979 306.327 154.232 307.327 154.232 308.46C154.232 309.593 153.972 310.593 153.452 311.46C152.946 312.327 152.252 313 151.372 313.48C150.506 313.947 149.532 314.18 148.452 314.18ZM148.452 311.74C148.959 311.74 149.432 311.62 149.872 311.38C150.326 311.127 150.686 310.753 150.952 310.26C151.219 309.767 151.352 309.167 151.352 308.46C151.352 307.407 151.072 306.6 150.512 306.04C149.966 305.467 149.292 305.18 148.492 305.18C147.692 305.18 147.019 305.467 146.472 306.04C145.939 306.6 145.672 307.407 145.672 308.46C145.672 309.513 145.932 310.327 146.452 310.9C146.986 311.46 147.652 311.74 148.452 311.74ZM159.836 304.52C160.196 304.013 160.69 303.593 161.316 303.26C161.956 302.913 162.683 302.74 163.496 302.74C164.443 302.74 165.296 302.973 166.056 303.44C166.83 303.907 167.436 304.573 167.876 305.44C168.33 306.293 168.556 307.287 168.556 308.42C168.556 309.553 168.33 310.56 167.876 311.44C167.436 312.307 166.83 312.98 166.056 313.46C165.296 313.94 164.443 314.18 163.496 314.18C162.683 314.18 161.963 314.013 161.336 313.68C160.723 313.347 160.223 312.927 159.836 312.42V319.28H157.036V302.92H159.836V304.52ZM165.696 308.42C165.696 307.753 165.556 307.18 165.276 306.7C165.01 306.207 164.65 305.833 164.196 305.58C163.756 305.327 163.276 305.2 162.756 305.2C162.25 305.2 161.77 305.333 161.316 305.6C160.876 305.853 160.516 306.227 160.236 306.72C159.97 307.213 159.836 307.793 159.836 308.46C159.836 309.127 159.97 309.707 160.236 310.2C160.516 310.693 160.876 311.073 161.316 311.34C161.77 311.593 162.25 311.72 162.756 311.72C163.276 311.72 163.756 311.587 164.196 311.32C164.65 311.053 165.01 310.673 165.276 310.18C165.556 309.687 165.696 309.1 165.696 308.42ZM170.621 308.42C170.621 307.3 170.841 306.307 171.281 305.44C171.734 304.573 172.341 303.907 173.101 303.44C173.874 302.973 174.734 302.74 175.681 302.74C176.508 302.74 177.228 302.907 177.841 303.24C178.468 303.573 178.968 303.993 179.341 304.5V302.92H182.161V314H179.341V312.38C178.981 312.9 178.481 313.333 177.841 313.68C177.214 314.013 176.488 314.18 175.661 314.18C174.728 314.18 173.874 313.94 173.101 313.46C172.341 312.98 171.734 312.307 171.281 311.44C170.841 310.56 170.621 309.553 170.621 308.42ZM179.341 308.46C179.341 307.78 179.208 307.2 178.941 306.72C178.674 306.227 178.314 305.853 177.861 305.6C177.408 305.333 176.921 305.2 176.401 305.2C175.881 305.2 175.401 305.327 174.961 305.58C174.521 305.833 174.161 306.207 173.881 306.7C173.614 307.18 173.481 307.753 173.481 308.42C173.481 309.087 173.614 309.673 173.881 310.18C174.161 310.673 174.521 311.053 174.961 311.32C175.414 311.587 175.894 311.72 176.401 311.72C176.921 311.72 177.408 311.593 177.861 311.34C178.314 311.073 178.674 310.7 178.941 310.22C179.208 309.727 179.341 309.14 179.341 308.46ZM196.246 302.92L189.386 319.24H186.406L188.806 313.72L184.366 302.92H187.506L190.366 310.66L193.266 302.92H196.246ZM212.581 311.34H207.021L206.101 314H203.161L208.181 300.02H211.441L216.461 314H213.501L212.581 311.34ZM211.821 309.1L209.801 303.26L207.781 309.1H211.821ZM223.427 302.74C224.254 302.74 224.98 302.907 225.607 303.24C226.234 303.56 226.727 303.98 227.087 304.5V302.92H229.907V314.08C229.907 315.107 229.7 316.02 229.287 316.82C228.874 317.633 228.254 318.273 227.427 318.74C226.6 319.22 225.6 319.46 224.427 319.46C222.854 319.46 221.56 319.093 220.547 318.36C219.547 317.627 218.98 316.627 218.847 315.36H221.627C221.774 315.867 222.087 316.267 222.567 316.56C223.06 316.867 223.654 317.02 224.347 317.02C225.16 317.02 225.82 316.773 226.327 316.28C226.834 315.8 227.087 315.067 227.087 314.08V312.36C226.727 312.88 226.227 313.313 225.587 313.66C224.96 314.007 224.24 314.18 223.427 314.18C222.494 314.18 221.64 313.94 220.867 313.46C220.094 312.98 219.48 312.307 219.027 311.44C218.587 310.56 218.367 309.553 218.367 308.42C218.367 307.3 218.587 306.307 219.027 305.44C219.48 304.573 220.087 303.907 220.847 303.44C221.62 302.973 222.48 302.74 223.427 302.74ZM227.087 308.46C227.087 307.78 226.954 307.2 226.687 306.72C226.42 306.227 226.06 305.853 225.607 305.6C225.154 305.333 224.667 305.2 224.147 305.2C223.627 305.2 223.147 305.327 222.707 305.58C222.267 305.833 221.907 306.207 221.627 306.7C221.36 307.18 221.227 307.753 221.227 308.42C221.227 309.087 221.36 309.673 221.627 310.18C221.907 310.673 222.267 311.053 222.707 311.32C223.16 311.587 223.64 311.72 224.147 311.72C224.667 311.72 225.154 311.593 225.607 311.34C226.06 311.073 226.42 310.7 226.687 310.22C226.954 309.727 227.087 309.14 227.087 308.46ZM243.692 308.22C243.692 308.62 243.665 308.98 243.612 309.3H235.512C235.578 310.1 235.858 310.727 236.352 311.18C236.845 311.633 237.452 311.86 238.172 311.86C239.212 311.86 239.952 311.413 240.392 310.52H243.412C243.092 311.587 242.478 312.467 241.572 313.16C240.665 313.84 239.552 314.18 238.232 314.18C237.165 314.18 236.205 313.947 235.352 313.48C234.512 313 233.852 312.327 233.372 311.46C232.905 310.593 232.672 309.593 232.672 308.46C232.672 307.313 232.905 306.307 233.372 305.44C233.838 304.573 234.492 303.907 235.332 303.44C236.172 302.973 237.138 302.74 238.232 302.74C239.285 302.74 240.225 302.967 241.052 303.42C241.892 303.873 242.538 304.52 242.992 305.36C243.458 306.187 243.692 307.14 243.692 308.22ZM240.792 307.42C240.778 306.7 240.518 306.127 240.012 305.7C239.505 305.26 238.885 305.04 238.152 305.04C237.458 305.04 236.872 305.253 236.392 305.68C235.925 306.093 235.638 306.673 235.532 307.42H240.792ZM252.625 302.76C253.945 302.76 255.012 303.18 255.825 304.02C256.639 304.847 257.045 306.007 257.045 307.5V314H254.245V307.88C254.245 307 254.025 306.327 253.585 305.86C253.145 305.38 252.545 305.14 251.785 305.14C251.012 305.14 250.399 305.38 249.945 305.86C249.505 306.327 249.285 307 249.285 307.88V314H246.485V302.92H249.285V304.3C249.659 303.82 250.132 303.447 250.705 303.18C251.292 302.9 251.932 302.76 252.625 302.76ZM263.718 305.22V310.58C263.718 310.953 263.805 311.227 263.978 311.4C264.165 311.56 264.471 311.64 264.898 311.64H266.198V314H264.438C262.078 314 260.898 312.853 260.898 310.56V305.22H259.578V302.92H260.898V300.18H263.718V302.92H266.198V305.22H263.718Z" fill="#14142B"/>
</g>
<path fill-rule="evenodd" clip-rule="evenodd" d="M428 300V781.956C428 810.484 425.03 820.829 419.452 831.259C413.874 841.689 405.689 849.874 395.259 855.452C384.829 861.03 374.484 864 345.956 864H85.0443C56.5157 864 46.1706 861.03 35.7409 855.452C25.3113 849.874 17.1261 841.689 11.5482 831.259C5.97042 820.829 3 810.484 3 781.956V321C1.34315 321 0 319.657 0 318V260C0 258.343 1.34315 257 3 257V242C1.34315 242 0 240.657 0 239V181C0 179.343 1.34315 178 3 178V151C1.34315 151 0 149.657 0 148V120C0 118.343 1.34315 117 3 117V82.0443C3 53.5157 5.97042 43.1706 11.5482 32.7409C17.1261 22.3113 25.3113 14.1261 35.7409 8.54825C46.1706 2.97042 56.5157 0 85.0443 0H345.956C374.484 0 384.829 2.97042 395.259 8.54825C405.689 14.1261 413.874 22.3113 419.452 32.7409C425.03 43.1706 428 53.5157 428 82.0443V199C429.657 199 431 200.343 431 202V297C431 298.657 429.657 300 428 300ZM27 87.8C27 66.518 27 55.877 31.1418 47.7484C34.7849 40.5982 40.5982 34.7849 47.7484 31.1418C55.877 27 66.518 27 87.8 27L103 27C106.684 27.0098 109.732 29.865 109.998 33.4837C110.14 38.4568 111.1 42.1066 112.785 45.2569C114.615 48.6791 117.301 51.3649 120.723 53.1951C124.145 55.0253 128.157 56 133.814 56H295.146C300.803 56 304.815 55.0253 308.237 53.1951C311.659 51.3649 314.345 48.6791 316.175 45.2569C317.857 42.1117 318.817 38.4686 318.961 33.5079C319.216 29.8778 322.269 27.0098 325.961 27L341.2 27C362.482 27 373.123 27 381.252 31.1418C388.402 34.7849 394.215 40.5982 397.858 47.7484C402 55.877 402 66.518 402 87.8V778.2C402 799.482 402 810.123 397.858 818.252C394.215 825.402 388.402 831.215 381.252 834.858C373.123 839 362.482 839 341.2 839H87.8C66.518 839 55.877 839 47.7484 834.858C40.5982 831.215 34.7849 825.402 31.1418 818.252C27 810.123 27 799.482 27 778.2V87.8Z" fill="white"/>
<path fill-rule="evenodd" clip-rule="evenodd" d="M261 42C264.866 42 268 38.866 268 35C268 31.134 264.866 28 261 28C257.134 28 254 31.134 254 35C254 38.866 257.134 42 261 42Z" fill="#232323"/>
<rect x="189" y="31" width="52" height="8" rx="4" fill="#232323"/>
<defs>
<clipPath id="clip0">
<rect width="375" height="812" fill="white" transform="translate(28 27)"/>
</clipPath>
</defs>
</svg>
